<?xml version="1.0" encoding="utf-8"?>
<!-- Generator: Adobe Illustrator 24.1.2, SVG Export Plug-In . SVG Version: 6.00 Build 0)  -->
<svg version="1.1" xmlns="http://www.w3.org/2000/svg" xmlns:xlink="http://www.w3.org/1999/xlink" x="0px" y="0px"
	 viewBox="0 0 750 500" style="enable-background:new 0 0 750 500;" xml:space="preserve">
<style type="text/css">
	.st0{fill:url(#SVGID_1_);}
	.st1{clip-path:url(#SVGID_3_);}
	.st2{fill:#FFFFFF;}
	.st3{fill:url(#SVGID_4_);}
	.st4{opacity:0.4;fill:#231F20;}
	.st5{fill:url(#SVGID_5_);}
	.st6{fill:url(#SVGID_6_);}
	.st7{fill:url(#SVGID_7_);}
	.st8{fill:url(#SVGID_8_);}
	.st9{fill:url(#SVGID_9_);}
	.st10{fill:url(#SVGID_10_);}
	.st11{fill:url(#SVGID_11_);}
	.st12{fill:url(#SVGID_12_);}
	.st13{fill:url(#SVGID_13_);}
	.st14{fill:url(#SVGID_14_);}
	.st15{fill:url(#SVGID_15_);}
	.st16{fill:url(#SVGID_16_);}
	.st17{fill:url(#SVGID_17_);}
	.st18{fill:url(#SVGID_18_);}
	.st19{fill:url(#SVGID_19_);}
	.st20{fill:url(#SVGID_20_);}
	.st21{opacity:0.7;fill:#231F20;}
	.st22{fill:url(#SVGID_21_);}
	.st23{fill:#BE5140;}
	.st24{opacity:0.2;fill:#231F20;}
	.st25{fill:url(#SVGID_22_);}
	.st26{fill:url(#SVGID_23_);}
	.st27{fill:url(#SVGID_24_);}
	.st28{fill:url(#SVGID_25_);}
	.st29{fill:#F15A29;}
	.st30{fill:url(#SVGID_26_);}
	.st31{fill:#231F20;}
	.st32{fill:url(#SVGID_27_);}
	.st33{fill:url(#SVGID_28_);}
	.st34{fill:url(#SVGID_29_);}
	.st35{fill:url(#SVGID_30_);}
	.st36{fill:url(#SVGID_31_);}
	.st37{fill:url(#SVGID_32_);}
	.st38{fill:#FBB040;}
	.st39{fill:#F7941E;}
	.st40{opacity:0.5;fill:#3C2415;}
	.st41{fill:#FBB060;}
	.st42{fill:none;stroke:#FFFFFF;stroke-linecap:round;stroke-miterlimit:10;}
</style>
<g id="BACKGROUND">
	<linearGradient id="SVGID_1_" gradientUnits="userSpaceOnUse" x1="375" y1="-48.3965" x2="375" y2="180.002">
		<stop  offset="0" style="stop-color:#DFFFFF"/>
		<stop  offset="1" style="stop-color:#FFFF9D"/>
	</linearGradient>
	<rect class="st0" width="750" height="500"/>
</g>
<g id="OBJECTS">
	<g>
		<defs>
			<rect id="SVGID_2_" width="750" height="500"/>
		</defs>
		<clipPath id="SVGID_3_">
			<use xlink:href="#SVGID_2_"  style="overflow:visible;"/>
		</clipPath>
		<g class="st1">
			<g>
				<path class="st2" d="M282.68,157.44h67.62c0,0-2.98-3.25-12.44-4.87c-9.47-1.62-13.8-5.41-15.96-10.82
					c-2.16-5.41-12.71-10.28-18.93-2.98c-6.22,7.3-3.99,13.76-8.93,9.47c-6.22-5.41-10.55-1.98-11.36,4.06
					c-0.46,3.42-13.25,0.81-13.25,5.14H282.68z"/>
				<path class="st2" d="M441.89,54.79h78.14c0,0-3.44-3.75-14.38-5.63c-10.94-1.88-15.94-6.25-18.44-12.5
					c-2.5-6.25-14.69-11.88-21.88-3.44c-7.19,8.44-4.62,15.9-10.31,10.94c-7.19-6.25-12.19-2.29-13.13,4.69
					c-0.53,3.96-15.32,0.94-15.32,5.94H441.89z"/>
				<path class="st2" d="M11.18,56.76h128.59c0,0-5.66-6.17-23.66-9.26c-18-3.09-26.23-10.29-30.35-20.57
					c-4.11-10.29-24.17-19.54-36-5.66c-11.83,13.89-7.59,26.16-16.97,18c-11.83-10.29-20.06-3.77-21.6,7.71
					c-0.87,6.51-25.2,1.54-25.2,9.77H11.18z"/>
				<path class="st2" d="M627.91,152.49h32.76c0,0-1.44-1.57-6.03-2.36c-4.59-0.79-6.68-2.62-7.73-5.24
					c-1.05-2.62-6.16-4.98-9.17-1.44c-3.01,3.54-1.93,6.66-4.32,4.59c-3.01-2.62-5.11-0.96-5.5,1.97c-0.22,1.66-6.42,0.39-6.42,2.49
					H627.91z"/>
			</g>
			<g>
				<linearGradient id="SVGID_4_" gradientUnits="userSpaceOnUse" x1="645.4499" y1="202.667" x2="645.4499" y2="161.3281">
					<stop  offset="0" style="stop-color:#F6BC50"/>
					<stop  offset="1" style="stop-color:#F6D750"/>
				</linearGradient>
				<ellipse class="st3" cx="645.45" cy="172.33" rx="10.83" ry="15.67"/>
				<path class="st4" d="M645.45,181.83c-5.25,0-9.63-5.41-10.62-12.58c-0.14,1-0.21,2.03-0.21,3.08c0,8.65,4.85,15.67,10.83,15.67
					s10.83-7.01,10.83-15.67c0-1.06-0.07-2.09-0.21-3.08C655.08,176.43,650.7,181.83,645.45,181.83z"/>
				<linearGradient id="SVGID_5_" gradientUnits="userSpaceOnUse" x1="645.4499" y1="202.667" x2="645.4499" y2="161.328">
					<stop  offset="0" style="stop-color:#F6BC50"/>
					<stop  offset="1" style="stop-color:#F6D750"/>
				</linearGradient>
				<path class="st5" d="M647.49,203.71h-4.08c0,0,0.26-19.69,1.28-26.27c0.22-1.41,0.47-2.21,0.76-2.11
					C647.1,175.92,647.49,203.71,647.49,203.71z"/>
				<path class="st4" d="M646.03,203.71h-2.62c0,0,0.26-19.69,1.28-26.27C645.76,184.02,646.03,203.71,646.03,203.71z"/>
			</g>
			<g>
				<linearGradient id="SVGID_6_" gradientUnits="userSpaceOnUse" x1="610.4467" y1="207.4174" x2="610.4467" y2="170.3642">
					<stop  offset="0" style="stop-color:#F6BC50"/>
					<stop  offset="1" style="stop-color:#F6D750"/>
				</linearGradient>
				<ellipse class="st6" cx="610.45" cy="180.23" rx="9.71" ry="14.04"/>
				<path class="st4" d="M610.45,188.74c-4.71,0-8.63-4.85-9.52-11.28c-0.12,0.89-0.19,1.82-0.19,2.76c0,7.76,4.35,14.04,9.71,14.04
					c5.36,0,9.71-6.29,9.71-14.04c0-0.95-0.07-1.87-0.19-2.76C619.08,183.9,615.15,188.74,610.45,188.74z"/>
				<linearGradient id="SVGID_7_" gradientUnits="userSpaceOnUse" x1="610.4467" y1="207.4174" x2="610.4467" y2="170.3641">
					<stop  offset="0" style="stop-color:#F6BC50"/>
					<stop  offset="1" style="stop-color:#F6D750"/>
				</linearGradient>
				<path class="st7" d="M612.28,208.35h-3.66c0,0,0.23-17.65,1.15-23.55c0.2-1.26,0.42-1.98,0.68-1.89
					C611.93,183.44,612.28,208.35,612.28,208.35z"/>
				<path class="st4" d="M610.97,208.35h-2.35c0,0,0.23-17.65,1.15-23.55C610.72,190.7,610.97,208.35,610.97,208.35z"/>
			</g>
			<g>
				<linearGradient id="SVGID_8_" gradientUnits="userSpaceOnUse" x1="323.3209" y1="217.5791" x2="323.3209" y2="172.0714">
					<stop  offset="0" style="stop-color:#F6BC50"/>
					<stop  offset="1" style="stop-color:#F6D750"/>
				</linearGradient>
				<ellipse class="st8" cx="323.32" cy="186.42" rx="10.83" ry="15.67"/>
				<path class="st4" d="M323.32,195.92c-5.25,0-9.63-5.41-10.62-12.58c-0.14,1-0.21,2.03-0.21,3.08c0,8.65,4.85,15.67,10.83,15.67
					c5.98,0,10.83-7.01,10.83-15.67c0-1.06-0.07-2.09-0.21-3.08C332.95,190.51,328.57,195.92,323.32,195.92z"/>
				<linearGradient id="SVGID_9_" gradientUnits="userSpaceOnUse" x1="323.3208" y1="217.5791" x2="323.3208" y2="172.0713">
					<stop  offset="0" style="stop-color:#F6BC50"/>
					<stop  offset="1" style="stop-color:#F6D750"/>
				</linearGradient>
				<path class="st9" d="M325.36,217.79h-4.08c0,0,0.26-19.69,1.28-26.27c0.22-1.41,0.47-2.21,0.76-2.11
					C324.97,190,325.36,217.79,325.36,217.79z"/>
				<path class="st4" d="M323.9,217.79h-2.62c0,0,0.26-19.69,1.28-26.27C323.63,198.1,323.9,217.79,323.9,217.79z"/>
			</g>
			<g>
				<linearGradient id="SVGID_10_" gradientUnits="userSpaceOnUse" x1="193.6827" y1="222.8312" x2="193.6827" y2="184.0339">
					<stop  offset="0" style="stop-color:#F6BC50"/>
					<stop  offset="1" style="stop-color:#F6D750"/>
				</linearGradient>
				<ellipse class="st10" cx="193.68" cy="196.26" rx="9.24" ry="13.36"/>
				<path class="st4" d="M193.68,204.36c-4.48,0-8.21-4.61-9.06-10.73c-0.12,0.85-0.18,1.73-0.18,2.63c0,7.38,4.14,13.36,9.24,13.36
					c5.1,0,9.24-5.98,9.24-13.36c0-0.9-0.06-1.78-0.18-2.63C201.89,199.75,198.16,204.36,193.68,204.36z"/>
				<linearGradient id="SVGID_11_" gradientUnits="userSpaceOnUse" x1="193.6826" y1="222.8312" x2="193.6826" y2="184.0339">
					<stop  offset="0" style="stop-color:#F6BC50"/>
					<stop  offset="1" style="stop-color:#F6D750"/>
				</linearGradient>
				<path class="st11" d="M195.42,223.01h-3.48c0,0,0.22-16.79,1.09-22.4c0.19-1.2,0.4-1.88,0.65-1.8
					C195.09,199.32,195.42,223.01,195.42,223.01z"/>
				<path class="st4" d="M194.18,223.01h-2.23c0,0,0.22-16.79,1.09-22.4C193.95,206.23,194.18,223.01,194.18,223.01z"/>
			</g>
			<g>
				<linearGradient id="SVGID_12_" gradientUnits="userSpaceOnUse" x1="437.5168" y1="222.5548" x2="437.5168" y2="203.1563">
					<stop  offset="0" style="stop-color:#F6BC50"/>
					<stop  offset="1" style="stop-color:#F6D750"/>
				</linearGradient>
				<path class="st12" d="M442.14,209.27c0,3.69-2.07,6.68-4.62,6.68c-2.55,0-4.62-2.99-4.62-6.68c0-3.69,2.07-6.68,4.62-6.68
					C440.07,202.59,442.14,205.58,442.14,209.27z"/>
				<path class="st4" d="M437.52,213.32c-2.24,0-4.11-2.31-4.53-5.36c-0.06,0.43-0.09,0.86-0.09,1.31c0,3.69,2.07,6.68,4.62,6.68
					c2.55,0,4.62-2.99,4.62-6.68c0-0.45-0.03-0.89-0.09-1.31C441.62,211.02,439.76,213.32,437.52,213.32z"/>
				<linearGradient id="SVGID_13_" gradientUnits="userSpaceOnUse" x1="437.5168" y1="222.5549" x2="437.5168" y2="203.1562">
					<stop  offset="0" style="stop-color:#F6BC50"/>
					<stop  offset="1" style="stop-color:#F6D750"/>
				</linearGradient>
				<path class="st13" d="M438.39,222.65h-1.74c0,0,0.11-8.39,0.55-11.2c0.09-0.6,0.2-0.94,0.32-0.9
					C438.22,210.8,438.39,222.65,438.39,222.65z"/>
				<path class="st4" d="M437.76,222.65h-1.12c0,0,0.11-8.39,0.55-11.2C437.65,214.25,437.76,222.65,437.76,222.65z"/>
			</g>
			<g>
				<linearGradient id="SVGID_14_" gradientUnits="userSpaceOnUse" x1="123.0879" y1="230.75" x2="123.0879" y2="183.6199">
					<stop  offset="0" style="stop-color:#FFA150"/>
					<stop  offset="1" style="stop-color:#FFC950"/>
				</linearGradient>
				<ellipse class="st14" cx="123.09" cy="198.92" rx="10.83" ry="15.67"/>
				<path class="st4" d="M123.09,208.42c-5.25,0-9.63-5.41-10.62-12.58c-0.14,1-0.21,2.03-0.21,3.08c0,8.65,4.85,15.67,10.83,15.67
					s10.83-7.01,10.83-15.67c0-1.06-0.07-2.09-0.21-3.08C132.72,203.01,128.34,208.42,123.09,208.42z"/>
				<linearGradient id="SVGID_15_" gradientUnits="userSpaceOnUse" x1="123.0879" y1="230.75" x2="123.0879" y2="183.6199">
					<stop  offset="0" style="stop-color:#FFA150"/>
					<stop  offset="1" style="stop-color:#FFC950"/>
				</linearGradient>
				<path class="st15" d="M125.13,230.29h-4.08c0,0,0.26-19.69,1.28-26.27c0.22-1.41,0.47-2.21,0.76-2.11
					C124.74,202.5,125.13,230.29,125.13,230.29z"/>
				<path class="st4" d="M123.67,230.29h-2.62c0,0,0.26-19.69,1.28-26.27C123.4,210.6,123.67,230.29,123.67,230.29z"/>
			</g>
			<g>
				<g>
					<linearGradient id="SVGID_16_" gradientUnits="userSpaceOnUse" x1="-1.373503e-06" y1="272.231" x2="173.0001" y2="272.231">
						<stop  offset="0" style="stop-color:#FFA150"/>
						<stop  offset="1" style="stop-color:#FFC950"/>
					</linearGradient>
					<ellipse class="st16" cx="0" cy="272.23" rx="186.1" ry="65.64"/>
					<ellipse class="st4" cx="-23" cy="273.27" rx="186.1" ry="65.64"/>
					<linearGradient id="SVGID_17_" gradientUnits="userSpaceOnUse" x1="0.7501" y1="289.5445" x2="104.5148" y2="289.5445">
						<stop  offset="0" style="stop-color:#ED9750"/>
						<stop  offset="1" style="stop-color:#F4AD50"/>
					</linearGradient>
					<path class="st17" d="M126.67,289.54c0,41.91-56.71,75.88-126.67,75.88s-126.67-33.97-126.67-75.88
						c0-41.91,56.71-75.88,126.67-75.88S126.67,247.64,126.67,289.54z"/>
					<ellipse class="st4" cx="-38" cy="291.28" rx="126.67" ry="75.88"/>
				</g>
				<linearGradient id="SVGID_18_" gradientUnits="userSpaceOnUse" x1="329.6488" y1="273.2065" x2="128.6329" y2="273.2065">
					<stop  offset="0" style="stop-color:#ED9750"/>
					<stop  offset="1" style="stop-color:#F4AD50"/>
				</linearGradient>
				<path class="st18" d="M276.65,208.16c58.39,0,106.7,27.52,138.49,34.78c10.66,2.43,20.68-0.6,27.28-1.78
					c3.06-0.78,6.21-1.5,9.43-2.15c0.02-0.01,0.05-0.02,0.05-0.02l-0.01,0.01c13.51-2.72,28.4-4.23,44.04-4.23
					c61.39,0,111.16,23.16,111.16,51.74c0,28.58-49.77,51.74-111.16,51.74c-51.87,0-95.44-16.54-107.71-38.91
					c-29.2,7.49-68.43,12.08-111.58,12.08c-90.2,0-163.31-20.04-163.31-44.76C113.33,241.95,186.45,208.16,276.65,208.16z"/>
				<path class="st4" d="M288.65,214.16c58.39,0,106.7,27.52,138.49,34.78c10.66,2.43,20.68-0.6,27.28-1.78
					c3.06-0.78,6.21-1.5,9.43-2.15c0.02-0.01,0.05-0.02,0.05-0.02l-0.01,0.01c13.51-2.72,28.4-4.23,44.04-4.23
					c61.39,0,111.16,23.16,111.16,51.74c0,28.58-49.77,51.74-111.16,51.74c-51.87,0-95.44-16.54-107.71-38.91
					c-29.2,7.49-68.43,12.08-111.58,12.08c-90.2,0-163.31-20.04-163.31-44.76C125.33,247.95,198.45,214.16,288.65,214.16z"/>
				<linearGradient id="SVGID_19_" gradientUnits="userSpaceOnUse" x1="719.0707" y1="260.7336" x2="357.0677" y2="260.7336">
					<stop  offset="0" style="stop-color:#F6BC50"/>
					<stop  offset="1" style="stop-color:#F6D750"/>
				</linearGradient>
				<path class="st19" d="M640.31,195.69c-58.39,0-106.7,27.52-138.49,34.78c-10.66,2.43-20.68-0.6-27.28-1.78
					c-3.06-0.78-6.21-1.5-9.43-2.15c-0.02-0.01-0.05-0.02-0.05-0.02l0.01,0.01c-13.51-2.72-28.4-4.23-44.05-4.23
					c-61.39,0-111.16,23.16-111.16,51.74c0,28.58,49.77,51.74,111.16,51.74c51.87,0,95.44-16.54,107.71-38.91
					c29.2,7.49,68.43,12.08,111.58,12.08c90.2,0,163.31-20.04,163.31-44.76C803.62,229.48,730.5,195.69,640.31,195.69z"/>
				<path class="st4" d="M608.99,215.01c-58.39,0-106.7,27.52-138.49,34.78c-10.66,2.43-20.68-0.6-27.28-1.78
					c-3.06-0.78-6.21-1.5-9.43-2.15c-0.02-0.01-0.05-0.02-0.05-0.02l0.01,0.01c-13.51-2.72-28.4-4.23-44.04-4.23
					c-61.39,0-111.16,23.16-111.16,51.74c0,28.58,49.77,51.74,111.16,51.74c51.87,0,95.44-16.54,107.71-38.91
					c29.2,7.49,68.43,12.08,111.58,12.08c90.2,0,163.31-20.04,163.31-44.76C772.31,248.8,699.19,215.01,608.99,215.01z"/>
			</g>
			<linearGradient id="SVGID_20_" gradientUnits="userSpaceOnUse" x1="396.0896" y1="370.0847" x2="396.0896" y2="234.9995">
				<stop  offset="0" style="stop-color:#DFFFFF"/>
				<stop  offset="1" style="stop-color:#FFFF9D"/>
			</linearGradient>
			<rect x="-50.89" y="250" class="st20" width="893.96" height="300.08"/>
			<path class="st21" d="M23.7,285c51.6,10.7,153.2-18.84,194.95-26.6c41.53-7.72,101.77,22.6,149.11,21.69
				c129.01-2.5,111.36-33.61,229.18-2.5C713.81,308.44,798,250.23,798,250.23l-0.04-0.23h-839.8C-37.58,261.75,0,280.09,23.7,285z"
				/>
			<g>
				<g>
					<linearGradient id="SVGID_21_" gradientUnits="userSpaceOnUse" x1="97.4104" y1="278.9999" x2="97.4104" y2="3.9428">
						<stop  offset="0" style="stop-color:#743D34"/>
						<stop  offset="1" style="stop-color:#917040"/>
					</linearGradient>
					<path class="st22" d="M238.66,149.36c3.46-1.91,13.45-7.06,23.16-8.6c0,0-9.13,0.4-31.01,9.17
						c-7.55,0.47-15.98,0.79-25.38,0.92c-3.39,0.04-6.62,0.06-9.72,0.06c5.88-5.12,13.06-13.3,13.11-22.76
						C222,121.76,224.67,114,224.67,114c-2.87,6.17-15.94,12.35-15.94,12.35c-1.32-14.26,23.98-38.1,23.98-38.1
						s-10.55,8.85-18.16,18.99c0,0-2.45-5.2,6.73-19.09c0,0-10.34,12.28-7.79,20.55c-3.98,5.6-6.89,11.49-6.53,16.43
						c0.95,12.78-10.88,21.69-17.75,25.75c-58.41-0.55-62.81-8.42-91.25,1.55c0,0,9.06-18.18,7.93-40.46
						c-0.03-0.55-0.05-1.1-0.06-1.65c5.05-6.51,14.48-15.78,26.2-13.79c4.88,0.83,11.02-1.52,16.97-4.96
						c7.99,3.31,21.19-5.84,21.19-5.84c-14.69,7.84-19.64,4.92-19.64,4.91c10.82-6.62,20.61-16.3,20.61-16.3
						s-26.11,22.96-40.18,20.31c0,0,7.37-12.44,13.79-14.71c0,0-7.97,1.93-15.57,14.47c-9.08-0.81-17.61,5.1-23.27,10.34
						c1.11-19.14,10.61-37.45,28.23-52.82c16.62-3.34,22.91-9.83,22.91-9.83c-8.88,6.38-18.36,8.12-21.39,8.54
						c10.36-8.71,23.39-16.44,39.04-22.78c0,0-41.51,14.05-63.26,43.7c0.21-5.88-0.76-12.13-4.42-17.01
						c6.67-13.06,4.13-20.85,4.13-20.85c1.44,6.65-5.27,19.46-5.27,19.46c-9.66-10.58-3.86-44.86-3.86-44.86s-3.08,13.42-3.02,26.1
						c0,0-5.09-2.67-6.15-19.29c0,0-0.84,16.03,6.18,21.09c0.2,6.87,1.43,13.32,4.7,17.04c6.29,7.14,5.66,16.84,3.69,24.38
						c-3.12,5.24-5.59,10.92-7.13,17.03c-1.59-4.59-4.42-13.95-4.48-22.67c0,0-0.85,7.95,3.44,27.75c-0.05,0.33-0.11,0.66-0.16,0.99
						c-7.22,50.55-23.79,56.71-23.79,56.71s-3.81-29.79-33.58-46.12c2.06-6.87,5.27-21.77-1.92-31.38
						c6.67-13.06,4.13-20.85,4.13-20.85c1.43,6.65-5.27,19.46-5.27,19.46c-9.66-10.58-3.86-44.86-3.86-44.86s-3.08,13.42-3.02,26.1
						c0,0-5.09-2.67-6.15-19.29c0,0-0.84,16.03,6.18,21.09c0.2,6.87,1.43,13.32,4.7,17.04c8.3,9.43,4.56,23.32,1.55,30.81
						c-3.77-1.8-7.91-3.39-12.47-4.69C-19,92-32.38,64.82-32.38,64.82s9.22,20.12,41.45,36.48c-1.34,0.16-2.66,0.54-3.85,1.23
						c-5.65-3.79-9.39-3.06-9.39-3.06c3.15-0.3,8.69,3.5,8.69,3.5c-5.41,3.87-20.92-0.69-20.92-0.69s6.03,2.16,11.89,2.84h0
						c0,0-1.51,2.2-9.24,1.77c0,0,7.35,1.27,10.08-1.69c3.18,0.29,6.23,0.07,8.13-1.23c2.16-1.48,4.59-1.8,6.92-1.54
						c1.32,0.64,2.66,1.27,4.05,1.9c12.81,5.75,21.91,13.74,28.38,22.13c-5.17,0.23-26.72,0.8-44.43-4.94c0,0,10.56,8.18,45.99,7.05
						c13.72,19.22,14.25,39.7,14.25,39.7s-12.75-13.17-36.11-13.17c-3.77,0-8.42,0.34-13.74,0.77c-1.71-5.53-6.24-16.87-15.32-20.06
						c-1.39-11.71-6.58-15.78-6.58-15.78c3.94,3.8,5.19,15.37,5.19,15.37c-11.19-2.75-22.66-28.25-22.66-28.25s3.95,10.35,9.67,18.8
						l0,0c0,0-4.59,0.5-12.74-10.14c0,0,6.61,11.09,13.57,11.33c3.21,4.5,6.92,8.26,10.77,9.28c9.69,2.56,13.42,13.36,14.8,19.73
						c-10.04,0.84-22.1,1.85-34.98,1.65c-5.32-1.12-12.23-3.85-14.56-10.48c-1.09-3.12-4.45-5.94-8.38-8.3
						c-0.65-5.74-10.26-10.48-10.26-10.48c9.33,6.04,9.22,9.88,9.22,9.88l0,0c-7.36-4.18-16.18-6.77-16.18-6.77
						s21.85,7.82,24.85,16.89c0,0-9.64-0.28-13.05-3.29c0,0,3.71,4.03,13.48,4.41c1.58,3.58,4.71,6.12,8.05,7.91
						c-8.96-0.45-18.2-1.58-27.32-3.82c-1.35-0.6-4.01-1.62-6.89-1.92c-9.92-3.11-19.58-7.71-28.46-14.36c0,0,7.59,7.75,24.01,14.62
						c-0.77,0.2-1.52,0.5-2.22,0.93c-5.1-3.29-8.42-2.57-8.42-2.57c2.8-0.32,7.81,2.98,7.81,2.98c-4.76,3.54-18.66-0.27-18.66-0.27
						s5.41,1.83,10.64,2.33l0,0c0,0-1.31,1.99-8.21,1.73c0,0,6.58,1.01,8.95-1.67c2.84,0.2,5.55-0.04,7.22-1.23
						c1.43-1.03,3.02-1.46,4.6-1.53c15.63,6.24,38.73,11.5,70.29,9.1c67.12-5.1,55.95,56.15,52.47,79.76
						c-4.4,29.83-15.93,119.72-15.93,119.72h40.85V238.84c0,0-1.34-76.53,55.37-78.44c5.06-0.17,10.35-0.34,15.78-0.53
						c5.07,5.86,14.7,14.89,25.56,14.42c7.01,12.88,14.88,15.18,14.88,15.18c-6.3-2.57-13.09-15.33-13.09-15.33
						c14.18-2,39.2,22.14,39.2,22.14s-9.34-10.12-19.84-17.23c0.01,0,5.08-2.69,19.39,5.82c0,0-12.76-9.75-20.89-6.81
						c-5.79-3.71-11.81-6.34-16.72-5.74c-10.46,1.28-18.72-6.2-23.77-12.61c34.85-1.22,75.06-3.12,104.73-9.06
						c15.51,1.95,23.04-1.72,23.04-1.72c-8.45,2.39-16.25,1.85-20.54,1.21c15.26-3.24,27.48-7.63,34.36-13.63
						C290.26,138.55,278.26,146.08,238.66,149.36z"/>
					<path class="st4" d="M36.8,359.37c1.82-14.14,11.68-90.59,15.64-117.42l0.32-2.16c2.48-16.53,7.1-47.31-8.69-65.64
						c-8.32-9.66-21.26-14.56-38.45-14.56c-2.49,0-5.1,0.1-7.77,0.31c-5.12,0.39-10.21,0.59-15.13,0.59
						c-6.24,0-12.3-0.31-18.16-0.92l0.47-1.68c2.04,0.88,4.13,1.47,6.04,1.88l0.19,0.04l0.19,0c1.12,0.02,2.22,0.02,3.33,0.02
						c11.73,0,22.89-0.93,31.85-1.68l3.3-0.27c5.78-0.47,10.06-0.77,13.58-0.77c22.17,0,34.55,12.44,34.68,12.56l3.56,3.65
						l-0.13-5.1c-0.02-0.85-0.68-20.7-14-39.92l0.12-0.01l-2.35-3.04c-5.93-7.69-13.24-14.06-21.83-19.01c0.5,0.15,1,0.3,1.51,0.44
						c4.25,1.21,8.34,2.75,12.16,4.57l1.92,0.92c0,0,0.9-2.25,0.96-2.4c-0.1,0.34-0.19,0.67-0.28,0.97l-0.47,1.55l1.42,0.78
						c28.55,15.66,32.52,44.33,32.56,44.62l0.32,2.5l2.36-0.88c0.72-0.27,17.77-7.16,25.07-58.31c0.03-0.19,0.06-0.38,0.09-0.56
						l0.13-0.76c0,0-0.09-0.4-0.09-0.42l1.04-4.11c1.42-5.64,3.75-11.19,6.91-16.5l0.14-0.24c0,0,0.16-0.62,0.21-0.8l3.57-4.86
						c1.4-1.92,2.9-3.77,4.46-5.55c-8.19,11.55-12.83,24.23-13.6,37.46l-0.29,4.96l0.79-0.73c-0.06,0.08-0.61,0.79-0.61,0.79
						l0.02,0.71c0.01,0.57,0.04,1.13,0.06,1.7c1.09,21.46-7.63,39.29-7.72,39.47l-2.19,4.41l4.64-1.63
						c10.07-3.53,17.31-4.91,25.81-4.91c5.1,0,10.57,0.47,17.5,1.07c10.65,0.92,25.24,2.19,47.26,2.4l0.56,0.01l0.48-0.28
						c0.51-0.3,1.04-0.62,1.58-0.97l-1.47,1.28h5.34c3.11,0,6.35-0.02,9.75-0.06c9-0.12,17.57-0.43,25.48-0.92l0.32-0.02l0.3-0.12
						c2.36-0.95,4.57-1.79,6.63-2.55l0.64,2.12c0.87-0.07,1.73-0.15,2.58-0.22c-26.48,3.9-58.75,5.49-90.21,6.59l-4.72,0.16
						l-15.78,0.53c-24.09,0.81-46.3,15.65-55.44,41.85c-6.79,19.48-5.58,30.92-5.58,38.58L66.26,359L36.8,359.37z"/>
					<path class="st23" d="M293.43,135.98c-0.19,0.18-0.4,0.35-0.59,0.52C293.26,136.17,293.43,135.98,293.43,135.98z"/>
				</g>
				<path class="st24" d="M238.66,149.36c3.46-1.91,13.45-7.06,23.16-8.6c0,0-9.13,0.4-31.01,9.17c-7.55,0.47-15.98,0.79-25.38,0.92
					c-3.39,0.04-6.62,0.06-9.72,0.06c5.88-5.12,13.06-13.3,13.11-22.76C222,121.76,224.67,114,224.67,114
					c-2.87,6.17-15.94,12.35-15.94,12.35c-1.32-14.26,23.98-38.1,23.98-38.1s-10.55,8.85-18.16,18.99c0,0-2.45-5.2,6.73-19.09
					c0,0-10.34,12.28-7.79,20.55c-3.98,5.6-6.89,11.49-6.53,16.43c0.95,12.78-10.88,21.69-17.75,25.75
					c-58.41-0.55-71.77,0.82-100.21,10.8c0,0,18.02-27.42,16.89-49.7c-0.03-0.55-0.05-1.1-0.06-1.65
					c5.05-6.51,14.48-15.78,26.2-13.79c4.88,0.83,11.02-1.52,16.97-4.96c7.99,3.31,21.19-5.84,21.19-5.84
					c-14.69,7.84-19.64,4.92-19.64,4.91c10.82-6.62,20.61-16.3,20.61-16.3s-26.11,22.96-40.18,20.31c0,0,7.37-12.44,13.79-14.71
					c0,0-7.97,1.93-15.57,14.47c-9.08-0.81-17.61,5.1-23.27,10.34c1.11-19.14,10.61-37.45,28.23-52.82
					c16.62-3.34,22.91-9.83,22.91-9.83c-8.88,6.38-18.36,8.12-21.39,8.54c10.36-8.71,23.39-16.44,39.04-22.78
					c0,0-41.51,14.05-63.26,43.7c0.21-5.88-0.76-12.13-4.42-17.01c6.67-13.06,4.13-20.85,4.13-20.85
					c1.44,6.65-5.27,19.46-5.27,19.46c-9.66-10.58-3.86-44.86-3.86-44.86s-3.08,13.42-3.02,26.1c0,0-5.09-2.67-6.15-19.29
					c0,0-0.84,16.03,6.18,21.09c0.2,6.87,1.43,13.32,4.7,17.04c6.29,7.14,5.66,16.84,3.69,24.38c-3.12,5.24-5.59,10.92-7.13,17.03
					c-1.59-4.59-4.42-13.95-4.48-22.67c0,0-0.85,7.95,3.44,27.75c-0.05,0.33-0.11,0.66-0.16,0.99
					c-7.22,50.55-26.66,64.79-26.66,64.79s-0.94-37.86-30.72-54.19c2.06-6.87,5.27-21.77-1.92-31.38
					c6.67-13.06,4.13-20.85,4.13-20.85c1.43,6.65-5.27,19.46-5.27,19.46c-9.66-10.58-3.86-44.86-3.86-44.86s-3.08,13.42-3.02,26.1
					c0,0-5.09-2.67-6.15-19.29c0,0-0.84,16.03,6.18,21.09c0.2,6.87,1.43,13.32,4.7,17.04c8.3,9.43,4.56,23.32,1.55,30.81
					c-3.77-1.8-7.91-3.39-12.47-4.69C-19,92-32.38,64.82-32.38,64.82s9.22,20.12,41.45,36.48c-1.34,0.16-2.66,0.54-3.85,1.23
					c-5.65-3.79-9.39-3.06-9.39-3.06c3.15-0.3,8.69,3.5,8.69,3.5c-5.41,3.87-20.92-0.69-20.92-0.69s6.03,2.16,11.89,2.84h0
					c0,0-1.51,2.2-9.24,1.77c0,0,7.35,1.27,10.08-1.69c3.18,0.29,6.23,0.07,8.13-1.23c2.16-1.48,4.59-1.8,6.92-1.54
					c1.32,0.64,2.66,1.27,4.05,1.9c12.81,5.75,21.91,13.74,28.38,22.13c-5.17,0.23-26.72,0.8-44.43-4.94c0,0,10.56,8.18,45.99,7.05
					c13.72,19.22,14.67,46.49,14.67,46.49s-13.17-19.97-36.53-19.97c-3.77,0-8.42,0.34-13.74,0.77
					c-1.71-5.53-6.24-16.87-15.32-20.06c-1.39-11.71-6.58-15.78-6.58-15.78c3.94,3.8,5.19,15.37,5.19,15.37
					c-11.19-2.75-22.66-28.25-22.66-28.25s3.95,10.35,9.67,18.8l0,0c0,0-4.59,0.5-12.74-10.14c0,0,6.61,11.09,13.57,11.33
					c3.21,4.5,6.92,8.26,10.77,9.28c9.69,2.56,13.42,13.36,14.8,19.73c-10.04,0.84-22.1,1.85-34.98,1.65
					c-5.32-1.12-12.23-3.85-14.56-10.48c-1.09-3.12-4.45-5.94-8.38-8.3c-0.65-5.74-10.26-10.48-10.26-10.48
					c9.33,6.04,9.22,9.88,9.22,9.88l0,0c-7.36-4.18-16.18-6.77-16.18-6.77s21.85,7.82,24.85,16.89c0,0-9.64-0.28-13.05-3.29
					c0,0,3.71,4.03,13.48,4.41c1.58,3.58,4.71,6.12,8.05,7.91c-8.96-0.45-18.2-1.58-27.32-3.82c-1.35-0.6-4.01-1.62-6.89-1.92
					c-9.92-3.11-19.58-7.71-28.46-14.36c0,0,7.59,7.75,24.01,14.62c-0.77,0.2-1.52,0.5-2.22,0.93c-5.1-3.29-8.42-2.57-8.42-2.57
					c2.8-0.32,7.81,2.98,7.81,2.98c-4.76,3.54-18.66-0.27-18.66-0.27s5.41,1.83,10.64,2.33l0,0c0,0-1.31,1.99-8.21,1.73
					c0,0,6.58,1.01,8.95-1.67c2.84,0.2,5.55-0.04,7.22-1.23c1.43-1.03,3.02-1.46,4.6-1.53c15.63,6.24,38.73,11.5,70.29,9.1
					c67.12-5.1,55.95,56.15,52.47,79.76c-4.4,29.83-15.93,119.72-15.93,119.72H51.7l12.14-122.52c0,0-1.27-75.89,66.91-78.44
					c5.06-0.19,10.35-0.34,15.78-0.53c5.07,5.86,14.7,14.89,25.56,14.42c7.01,12.88,14.88,15.18,14.88,15.18
					c-6.3-2.57-13.09-15.33-13.09-15.33c14.18-2,39.2,22.14,39.2,22.14s-9.34-10.12-19.84-17.23c0.01,0,5.08-2.69,19.39,5.82
					c0,0-12.76-9.75-20.89-6.81c-5.79-3.71-11.81-6.34-16.72-5.74c-10.46,1.28-18.72-6.2-23.77-12.61
					c34.85-1.22,75.06-3.12,104.73-9.06c15.51,1.95,23.04-1.72,23.04-1.72c-8.45,2.39-16.25,1.85-20.54,1.21
					c15.26-3.24,27.48-7.63,34.36-13.63C290.26,138.55,278.26,146.08,238.66,149.36z"/>
			</g>
			<g>
				<linearGradient id="SVGID_22_" gradientUnits="userSpaceOnUse" x1="584.655" y1="352" x2="584.655" y2="301.4742">
					<stop  offset="0" style="stop-color:#EC8E40"/>
					<stop  offset="1" style="stop-color:#ECBB40"/>
				</linearGradient>
				<path class="st25" d="M1073.24,442.12c12.87,108.64-195.44,222.63-465.28,254.59c-269.84,31.96-499.02-30.2-511.89-138.84
					C83.2,449.24,291.51,335.25,561.35,303.29C831.19,271.32,1060.37,333.48,1073.24,442.12z"/>
				
					<ellipse transform="matrix(0.0567 -0.9984 0.9984 0.0567 355.6953 1432.7256)" class="st4" cx="936.03" cy="528.13" rx="198.09" ry="492"/>
				<path class="st4" d="M809.25,298.76c-14.97,1.21-30.11,2.72-45.38,4.53c-269.84,31.96-478.15,145.95-465.28,254.59
					c8.99,75.85,123.42,129.04,283.52,143.36c14.98-1.21,30.11-2.72,45.38-4.53c269.84-31.96,478.15-145.95,465.28-254.59
					C1083.78,366.27,969.35,313.08,809.25,298.76z"/>
			</g>
			<g>
				<linearGradient id="SVGID_23_" gradientUnits="userSpaceOnUse" x1="47.1272" y1="403.667" x2="47.1272" y2="352.8767">
					<stop  offset="0" style="stop-color:#CC6640"/>
					<stop  offset="1" style="stop-color:#DD8D40"/>
				</linearGradient>
				<ellipse class="st26" cx="47.13" cy="548" rx="492" ry="198.09"/>
				<ellipse class="st4" cx="0" cy="566.41" rx="492" ry="198.09"/>
				<ellipse class="st24" cx="-26.25" cy="581.74" rx="492" ry="198.09"/>
			</g>
			<g>
				<g>
					<g>
						<linearGradient id="SVGID_24_" gradientUnits="userSpaceOnUse" x1="757.3177" y1="351.0059" x2="757.3177" y2="-9.9185">
							<stop  offset="0" style="stop-color:#743D34"/>
							<stop  offset="1" style="stop-color:#917040"/>
						</linearGradient>
						<path class="st27" d="M1056.51,8.86c6.69-4.99,26.11-18.64,46-24.67c0,0-18.99,3.46-62.27,28.12
							c-15.66,3.16-33.21,6.26-52.86,9.22c-7.08,1.07-13.85,2.04-20.33,2.93c10.83-12.4,23.52-31.6,20.88-51.41
							c25.78-17.17,29.14-34.17,29.14-34.17c-4.22,13.74-29.81,30.43-29.81,30.43c-6.87-29.47,39.23-86.65,39.23-86.65
							s-19.55,21.55-32.54,44.98c0,0-6.62-10.18,8.6-41.9c0,0-18.12,28.67-10.4,45.25c-6.73,12.88-11.13,26.03-8.94,36.26
							c5.67,26.47-16.54,48.53-29.74,59.01C831.08,41.9,819.6,26.69,762.94,55.75c0,0,13.74-40.65,4.96-86.96
							c-0.22-1.14-0.42-2.29-0.6-3.43c8.69-15.07,25.78-37.2,50.88-36.41c10.46,0.33,22.62-6.34,34.09-15.26
							c17.68,4.63,42.66-18.31,42.66-18.31c-28.49,20.63-39.68,15.94-39.69,15.93c20.74-16.96,38.45-40.04,38.45-40.04
							s-48.05,55.56-78.26,54.06c0,0,11.86-28.15,24.62-34.76c0,0-16.13,6.34-28.42,34.77c-19.25,0.91-35.4,15.73-45.74,28.34
							c-3.17-40.39,11.43-81.44,43.9-118.68c33.82-11.77,45.12-27.17,45.12-27.17c-16.76,15.9-36.08,22.28-42.32,24.02
							c19.19-21.21,44.23-41.14,75.17-58.92c0,0-82.84,41.34-119.84,109.66c-1.26-12.36-5.09-25.17-14.16-34.34
							c10.21-29.25,2.64-44.83,2.64-44.83c4.92,13.51-5.42,42.25-5.42,42.25C727.72-173.68,730-247.1,730-247.1
							s-2.59,28.98,1.18,55.5c0,0-11.42-4.12-18.41-38.61c0,0,2.85,33.8,19,42.36c2.4,14.33,6.83,27.48,14.74,34.31
							c15.22,13.14,16.7,33.62,14.74,49.97c-5.03,11.87-8.55,24.46-10.03,37.7c-4.65-9.16-13.27-27.93-15.9-46.16
							c0,0,0.5,16.88,15.18,57.09c-0.02,0.71-0.05,1.41-0.06,2.12c-0.57,107.89-33.48,125.55-33.48,125.55s-16.54-61.25-83.56-86.87
							c2.35-14.97,4.78-47.09-13.04-65.12c10.2-29.24,2.64-44.83,2.64-44.83c4.92,13.51-5.42,42.25-5.42,42.25
							c-23.25-19.36-20.97-92.78-20.97-92.78s-2.59,28.98,1.18,55.5c0,0-11.41-4.12-18.41-38.6c0,0,2.84,33.8,18.99,42.36
							c2.4,14.33,6.83,27.48,14.75,34.31c20.1,17.36,16.24,47.49,12.11,64.04c-8.41-2.68-17.53-4.82-27.44-6.23
							C500.73-37.08,464.9-90.14,464.9-90.14s25.08,39.46,97.24,64.43c-2.77,0.72-5.4,1.89-7.71,3.68
							c-12.93-6.31-20.54-3.7-20.54-3.7c6.51-1.52,19.21,4.83,19.21,4.83c-10.22,9.67-43.99,4.56-43.99,4.56s13.24,2.8,25.7,2.52
							l-0.01,0c0,0-2.53,5.04-18.84,6.37c0,0,15.76,0.55,20.61-6.43c6.75-0.32,13.06-1.64,16.65-4.91c4.09-3.73,9.1-5.09,14.05-5.21
							c2.94,0.96,5.94,1.89,9.03,2.8c28.47,8.35,49.82,22.46,65.76,38.16c-10.75,1.97-55.7,9.35-94.42,2.43
							c0,0,24.46,14.08,98.29,1.53c34.25,36.28,41.24,78.99,41.24,78.99s-30.46-23.9-79.37-17.18c-7.89,1.08-17.53,3.13-28.54,5.57
							c-5.17-11.09-17.91-33.52-37.83-37.58c-6.27-24.12-18.31-31.14-18.31-31.14c9.33,6.83,15.29,30.67,15.29,30.67
							c-24.21-2.53-55.56-52.62-55.56-52.62s11.24,20.53,25.64,36.57l0,0c0,0-9.47,2.36-29.59-17.56c0,0,17.04,21.32,31.66,19.81
							c8.02,8.5,16.86,15.31,25.22,16.33c21.02,2.58,31.93,24.1,36.65,37.05c-20.77,4.65-45.74,10.23-72.73,13.52
							c-11.46-0.82-26.7-4.54-33.48-17.74c-3.19-6.21-11.02-11.15-19.93-14.96c-3.01-11.82-24.49-18.99-24.49-18.99
							c21.26,9.97,22.14,18.02,22.14,18.02l0.01,0c-16.61-6.62-35.81-9.51-35.81-9.51s47.97,10.08,56.87,28.21
							c0,0-20.27,2.18-28.25-3.13c0,0,8.92,7.36,29.49,5.35c4.34,7.04,11.62,11.46,19.12,14.25c-18.89,1.63-38.55,1.93-58.28-0.15
							c-3-0.86-8.86-2.23-14.97-2.04c-21.67-3.67-43.21-10.5-63.7-21.88c0,0,18.11,14.04,54.45,23.7c-1.56,0.65-3.04,1.49-4.38,2.58
							c-11.62-5.42-18.37-2.95-18.37-2.95c5.77-1.47,17.2,3.99,17.2,3.99c-8.95,8.79-39.13,4.8-39.13,4.8s11.85,2.27,22.94,1.82
							l-0.01,0c0,0-2.17,4.54-16.68,5.99c0,0,14.05,0.23,18.26-6.07c6.01-0.4,11.62-1.68,14.76-4.66c2.7-2.56,5.89-3.92,9.19-4.52
							c34.5,8.57,84.38,12.93,149.75-1.16c139.03-29.98,133.26,101.43,132.76,151.86c-0.63,63.7,1.09,255.16,1.09,255.16l85.5-11.75
							l-35.24-256.46c0,0-24.82-159.79,93.34-180.11c10.55-1.81,21.55-3.69,32.87-5.64c12.29,10.8,35.05,26.94,57.64,22.83
							c18.38,24.93,35.51,27.49,35.51,27.49c-13.92-3.57-31.81-28.33-31.81-28.33c29.1-8.26,88.42,35.06,88.42,35.06
							S994.03,95.93,970,84.06c0.01-0.01,9.86-7.09,42.26,6.6c0,0-29.5-16.73-45.69-8.24c-13.18-6.11-26.54-9.87-36.65-7.2
							c-21.53,5.69-40.97-7.6-53.37-19.55c72.59-12.57,156.21-28.12,216.59-49.09c33.03-0.37,47.72-10.23,47.72-10.23
							c-17,7.44-33.47,8.54-42.64,8.43c31.01-11.18,55.32-23.86,67.99-38.42C1161.41-28.61,1138.46-9.39,1056.51,8.86z"/>
						<path class="st4" d="M720.2,509.18c-0.18-21.16-19-194.06-18.42-253.41c0.01-1.47,0.03-3.01,0.05-4.61
							c0.41-33.35-9.58-95.02-43.21-129.06c-15.77-15.96-37.49-24.06-64.57-24.06c-11.6,0-24.41,1.49-38.06,4.44
							c-27.95,6.03-55.14,9.08-80.83,9.08c-24.01,0-46.87-2.65-67.95-7.88c1.52,0.29,3.05,0.56,4.58,0.82l0.18,0.03l0.19-0.01
							c0.38-0.01,0.75-0.02,1.12-0.02c5.49,0,10.67,1.24,13.27,1.99l0.15,0.04l0.16,0.02c9.31,0.98,19.09,1.47,29.07,1.47
							c9.46,0,19.4-0.45,29.56-1.32l0.49-3.61c-1.11-0.41-2.17-0.84-3.2-1.3c5.62,2.09,11.54,3.04,16.75,3.42l0.18,0.01l0.18-0.02
							c27.12-3.3,52.51-8.98,72.91-13.55l2.07-0.46l-0.73-2c-3.6-9.89-10.92-25.05-23.75-33.09c14.12,7.88,23.4,24.98,27.13,33
							l0.63,1.36l1.46-0.32c12-2.66,20.93-4.52,28.39-5.55c5.67-0.78,11.38-1.17,16.97-1.17c37.65,0,60.77,17.79,61,17.97l3.76,2.95
							L689,99.62c-0.07-0.43-7.47-43.69-41.72-79.97l-0.68-0.73l-0.98,0.17c-20.23,3.44-38.61,5.18-54.63,5.18
							c-2.36,0-4.6-0.04-6.74-0.11c27.07-0.04,51.33-4.11,58.15-5.36l3.52-0.65l-2.55-2.52c-18.32-18.05-40.71-31.05-66.54-38.63
							c-2.94-0.86-5.87-1.77-8.98-2.78l-0.3-0.1l-0.13,0l-4.66-1.61c-5.62-1.95-10.96-3.98-16.02-6.09
							c14.56,5.08,31.43,9.41,50.77,12.17c9.37,1.34,18.5,3.41,27.14,6.16l1.89,0.6l0.48-1.93c4-16.04,7.77-44.85-9.79-63.14
							l1.01,0.84l-0.03,0.08l0.82,0.83c17.52,17.72,14.6,50.32,12.53,63.52l-0.23,1.49l1.41,0.54
							c34.1,13.04,54.69,35.59,65.95,52.22c12.23,18.06,16.43,33.24,16.47,33.39l0.61,2.27l2.07-1.11
							c1.38-0.74,33.89-19.42,34.47-127.18c0-0.42,0.02-0.83,0.03-1.24c0.01-0.28,0.03-1.2,0.03-1.2l-0.12-0.33
							c-1.77-4.83-3.32-9.33-4.7-13.5c0.72,1.49,1.39,2.85,2.01,4.06l2.83,5.56l0.69-6.2c1.39-12.45,4.72-24.96,9.89-37.18l0.1-0.24
							l0.03-0.26c1.78-14.84,0.91-34.91-12.47-48.86l1.03,0.86l-0.03,0.08l0.82,0.83c7.58,7.66,12.16,18.84,13.63,33.22l0.61,6.02
							l2.88-5.32c11.23-20.75,26.84-39.04,43.06-54.43c-0.47,0.51-0.94,1.03-1.41,1.55l-4.32,4.78l0.16-0.04
							c-31.36,36.63-46.23,77.56-43.01,118.49l0.36,4.62l2.94-3.58c9.95-12.13,25.72-26.78,44.38-27.65l1.16-0.06l0.03-0.08
							l1.31,0.07c-24.33,1.52-40.77,23.81-48.54,37.28L765.34-35l0.11,0.66c0.19,1.16,0.39,2.32,0.61,3.48
							c8.59,45.31-4.76,85.62-4.89,86.02l-1.47,4.36l4.09-2.1c35.01-17.96,52.4-18.83,90.51-20.74c22.52-1.13,53.36-2.68,99.42-8.56
							l0.52-0.07l0.41-0.32c13.18-10.46,34.07-31.36,31.06-56.87L986-27.9l-0.07,0.05l0.15,1.15c2.53,19.03-9.72,37.66-20.44,49.93
							l-3.28,3.75l4.94-0.68c6.67-0.92,13.52-1.9,20.36-2.93c18.78-2.83,36.6-5.94,52.95-9.23l0.29-0.06l0.26-0.15
							c7.65-4.36,14.55-8.06,20.71-11.18c-2.66,1.82-4.86,3.41-6.48,4.62l1.52,3.32c35.42-7.89,59.92-15.98,76.75-23.06
							c-10.15,5.26-22.18,10.41-36.07,15.41l0.26,1.56c-1.53,0.06-3.11,0.1-4.73,0.12l-0.3,0l-0.29,0.1
							c-58.33,20.25-138.43,35.52-216.3,49.01l-3.62,0.63l2.65,2.55c10.14,9.78,26.05,21.44,44.24,21.43c2.35,0,4.69-0.2,7.01-0.58
							l-1.29,0.37l-0.05-0.07l-1.14,0.21c-2.28,0.41-4.65,0.62-7.04,0.62c-19.87,0-39.25-14.43-49.03-23.02l-0.67-0.59l-33.75,5.79
							c-49.14,8.45-81.12,42.73-92.49,99.14c-8.53,42.32-2.44,82.69-2.38,83.09l34.98,254.58L720.2,509.18z M953.21,79.13
							c-5.93-1.67-11.67-2.68-16.92-2.68c-1.63,0-3.19,0.1-4.68,0.29c1.71-0.35,3.57-0.53,5.54-0.53
							C941.81,76.22,947.18,77.19,953.21,79.13z M508.58,34.67l0.48-0.63c0.21,0.21,0.42,0.42,0.63,0.63
							c-0.21,0.01-0.42,0.02-0.63,0.02C508.89,34.68,508.73,34.68,508.58,34.67z M984.82-34.39c-0.91-5.85,0.26-13.09,3.47-21.61
							C985.71-48.31,984.29-40.89,984.82-34.39z M819.49-72.91c6.5-0.64,13.55-3.36,20.65-7.28
							C832.33-75.5,825.41-73.06,819.49-72.91z M613.39-83.29c-4.27-4.13-7.72-10.62-10.3-19.4
							C605.67-94.97,609.03-88.17,613.39-83.29z M746.82-155.76c-4.28-4.12-7.72-10.61-10.3-19.38
							C739.1-167.44,742.45-160.64,746.82-155.76z"/>
						<path class="st23" d="M1167.32-34.89c-0.34,0.42-0.73,0.84-1.09,1.26C1167.01-34.45,1167.32-34.89,1167.32-34.89z"/>
					</g>
				</g>
				<g>
					<g>
						<path class="st24" d="M1056.51,8.86c6.69-4.99,26.11-18.64,46-24.67c0,0-18.99,3.46-62.27,28.12
							c-15.66,3.16-33.21,6.26-52.86,9.22c-7.08,1.07-13.85,2.04-20.33,2.93c10.83-12.4,23.52-31.6,20.88-51.41
							c25.78-17.17,29.14-34.17,29.14-34.17c-4.22,13.74-29.81,30.43-29.81,30.43c-6.87-29.47,39.23-86.65,39.23-86.65
							s-19.55,21.55-32.54,44.98c0,0-6.62-10.18,8.6-41.9c0,0-18.12,28.67-10.4,45.25c-6.73,12.88-11.13,26.03-8.94,36.26
							c5.67,26.47-16.54,48.53-29.74,59.01C831.08,41.9,815.78,38.33,759.12,67.39c0,0,17.56-52.29,8.78-98.6
							c-0.22-1.14-0.42-2.29-0.6-3.43c8.69-15.07,25.78-37.2,50.88-36.41c10.46,0.33,22.62-6.34,34.09-15.26
							c17.68,4.63,42.66-18.31,42.66-18.31c-28.49,20.63-39.68,15.94-39.69,15.93c20.74-16.96,38.45-40.04,38.45-40.04
							s-48.05,55.56-78.26,54.06c0,0,11.86-28.15,24.62-34.76c0,0-16.13,6.34-28.42,34.77c-19.25,0.91-35.4,15.73-45.74,28.34
							c-3.17-40.39,11.43-81.44,43.9-118.68c33.82-11.77,45.12-27.17,45.12-27.17c-16.76,15.9-36.08,22.28-42.32,24.02
							c19.19-21.21,44.23-41.14,75.17-58.92c0,0-82.84,41.34-119.84,109.66c-1.26-12.36-5.09-25.17-14.16-34.34
							c10.21-29.25,2.64-44.83,2.64-44.83c4.92,13.51-5.42,42.25-5.42,42.25C727.72-173.68,730-247.1,730-247.1
							s-2.59,28.98,1.18,55.5c0,0-11.42-4.12-18.41-38.61c0,0,2.85,33.8,19,42.36c2.4,14.33,6.83,27.48,14.74,34.31
							c15.22,13.14,16.7,33.62,14.74,49.97c-5.03,11.87-8.55,24.46-10.03,37.7c-4.65-9.16-13.27-27.93-15.9-46.16
							c0,0,0.5,16.88,15.18,57.09c-0.02,0.71-0.05,1.41-0.06,2.12c-0.57,107.89-31.28,137.7-31.28,137.7s-18.74-73.4-85.76-99.01
							c2.35-14.97,4.78-47.09-13.04-65.12c10.2-29.24,2.64-44.83,2.64-44.83c4.92,13.51-5.42,42.25-5.42,42.25
							c-23.25-19.36-20.97-92.78-20.97-92.78s-2.59,28.98,1.18,55.5c0,0-11.41-4.12-18.41-38.6c0,0,2.84,33.8,18.99,42.36
							c2.4,14.33,6.83,27.48,14.75,34.31c20.1,17.36,16.24,47.49,12.11,64.04c-8.41-2.68-17.53-4.82-27.44-6.23
							C500.73-37.08,464.9-90.14,464.9-90.14s25.08,39.46,97.24,64.43c-2.77,0.72-5.4,1.89-7.71,3.68
							c-12.93-6.31-20.54-3.7-20.54-3.7c6.51-1.52,19.21,4.83,19.21,4.83c-10.22,9.67-43.99,4.56-43.99,4.56s13.24,2.8,25.7,2.52
							l-0.01,0c0,0-2.53,5.04-18.84,6.37c0,0,15.76,0.55,20.61-6.43c6.75-0.32,13.06-1.64,16.65-4.91c4.09-3.73,9.1-5.09,14.05-5.21
							c2.94,0.96,5.94,1.89,9.03,2.8c28.47,8.35,49.82,22.46,65.76,38.16c-10.75,1.97-55.7,9.35-94.42,2.43
							c0,0,31.9,12.24,105.73-0.32c34.25,36.28,44.97,89.1,44.97,89.1S656.7,76.03,607.8,82.75c-7.89,1.08-17.53,3.13-28.54,5.57
							c-5.17-11.09-17.91-33.52-37.83-37.58c-6.27-24.12-18.31-31.14-18.31-31.14c9.33,6.83,15.29,30.67,15.29,30.67
							c-24.21-2.53-55.56-52.62-55.56-52.62s11.24,20.53,25.64,36.57l0,0c0,0-9.47,2.36-29.59-17.56c0,0,17.04,21.32,31.66,19.81
							c8.02,8.5,16.86,15.31,25.22,16.33c21.02,2.58,31.93,24.1,36.65,37.05c-20.77,4.65-45.74,10.23-72.73,13.52
							c-11.46-0.82-26.7-4.54-33.48-17.74c-3.19-6.21-11.02-11.15-19.93-14.96c-3.01-11.82-24.49-18.99-24.49-18.99
							c21.26,9.97,22.14,18.02,22.14,18.02l0.01,0c-16.61-6.62-35.81-9.51-35.81-9.51s47.97,10.08,56.87,28.21
							c0,0-20.27,2.18-28.25-3.13c0,0,8.92,7.36,29.49,5.35c4.34,7.04,11.62,11.46,19.12,14.25c-18.89,1.63-38.55,1.93-58.28-0.15
							c-3-0.86-8.86-2.23-14.97-2.04c-21.67-3.67-43.21-10.5-63.7-21.88c0,0,18.11,14.04,54.45,23.7c-1.56,0.65-3.04,1.49-4.38,2.58
							c-11.62-5.42-18.37-2.95-18.37-2.95c5.77-1.47,17.2,3.99,17.2,3.99c-8.95,8.79-39.13,4.8-39.13,4.8s11.85,2.27,22.94,1.82
							l-0.01,0c0,0-2.17,4.54-16.68,5.99c0,0,14.05,0.23,18.26-6.07c6.01-0.4,11.62-1.68,14.76-4.66c2.7-2.56,5.89-3.92,9.19-4.52
							c34.5,8.57,84.38,12.93,149.75-1.16c139.03-29.98,158.25,80.87,157.75,131.29c-0.63,63.7,25.41,275.72,25.41,275.72
							l36.19-11.75l-35.24-256.46c0,0-24.82-159.79,93.34-180.11c10.55-1.81,21.55-3.69,32.87-5.64
							c12.29,10.8,35.05,26.94,57.64,22.83c18.38,24.93,35.51,27.49,35.51,27.49c-13.92-3.57-31.81-28.33-31.81-28.33
							c29.1-8.26,88.42,35.06,88.42,35.06S994.03,95.93,970,84.06c0.01-0.01,9.86-7.09,42.26,6.6c0,0-29.5-16.73-45.69-8.24
							c-13.18-6.11-26.54-9.87-36.65-7.2c-21.53,5.69-40.97-7.6-53.37-19.55c72.59-12.57,156.21-28.12,216.59-49.09
							c33.03-0.37,47.72-10.23,47.72-10.23c-17,7.44-33.47,8.54-42.64,8.43c31.01-11.18,55.32-23.86,67.99-38.42
							C1161.41-28.61,1138.46-9.39,1056.51,8.86z"/>
						<path class="st23" d="M1167.32-34.89c-0.34,0.42-0.73,0.84-1.09,1.26C1167.01-34.45,1167.32-34.89,1167.32-34.89z"/>
					</g>
				</g>
			</g>
			<g>
				<linearGradient id="SVGID_25_" gradientUnits="userSpaceOnUse" x1="619.9916" y1="481.3937" x2="619.9916" y2="400.9979">
					<stop  offset="0" style="stop-color:#842C40"/>
					<stop  offset="1" style="stop-color:#BE5140"/>
				</linearGradient>
				<ellipse class="st28" cx="619.99" cy="547.31" rx="492" ry="198.09"/>
				<path class="st4" d="M617.57,348.82c-20.89,0-41.48,0.52-61.69,1.54c-23.5,1.18-42.31,20.33-42.44,43.86c0,0.15,0,0.29,0,0.44
					c0,109.4,220.28,198.09,492,198.09c31.75,0,62.8-1.21,92.88-3.53c7.37-13.63,11.25-27.79,11.25-42.31
					C1109.57,437.51,889.29,348.82,617.57,348.82z"/>
				<path class="st24" d="M616.51,348.82c-51.72,0.04-71.22,67.64-27.64,95.5C675.96,500,829.99,537,1005.48,537
					c35.26,0,69.66-1.5,102.82-4.34c-18.14-102.75-230.91-183.84-490.74-183.84C617.21,348.82,616.86,348.82,616.51,348.82z"/>
			</g>
			<path class="st29" d="M188.12,441.47c-1.98,2.69-2.48,6-1.52,9.83c-0.91,0.88-4.78,4.56-10.72,9.59
				c-0.96-2.62-1.99-6.18-2.24-9.88c1.45-0.34,6.02-1.79,6.1-6.59c0.09-5.39-5.54-14.09-5.78-14.45l-0.32-0.49l-0.46,0.37
				c-0.27,0.23-6.73,5.64-6.78,12.76c-0.02,2.73,0.89,4.6,2.04,5.87c1.46,1.63,3.32,2.29,4.16,2.52c0.26,4.03,1.41,7.89,2.44,10.62
				c-2.59,2.18-5.54,4.58-8.78,7.11c-1.4-2.43-3.04-5.8-3.92-9.46c1.37-0.58,5.63-2.77,4.91-7.52c-0.82-5.33-7.83-12.96-8.13-13.28
				l-0.4-0.43l-0.39,0.45c-0.23,0.27-5.69,6.69-4.55,13.72c0.33,2.05,1.12,3.53,2.07,4.58c1.88,2.09,4.42,2.55,5.44,2.65
				c0.92,3.87,2.66,7.43,4.12,9.95c-3.37,2.6-7.04,5.32-10.94,8.05c-1.48-2.42-3.3-5.94-4.29-9.77c1.36-0.6,5.59-2.86,4.79-7.59
				c-0.9-5.32-8.02-12.84-8.32-13.15l-0.41-0.43l-0.38,0.45c-0.23,0.27-5.59,6.77-4.34,13.78c0.36,1.99,1.13,3.43,2.06,4.47
				c1.92,2.14,4.52,2.56,5.56,2.65c1.02,4.02,2.93,7.69,4.46,10.2c-4.17,2.88-8.59,5.76-13.19,8.49c-1.46-2.42-3.23-5.86-4.19-9.61
				c1.36-0.6,5.59-2.86,4.79-7.6c-0.89-5.32-8.02-12.84-8.32-13.15l-0.41-0.43l-0.38,0.45c-0.23,0.27-5.59,6.77-4.34,13.78
				c0.36,1.99,1.13,3.43,2.06,4.47c1.92,2.14,4.52,2.56,5.56,2.65c0.99,3.9,2.82,7.47,4.32,9.97c-4.04,2.38-8.21,4.63-12.45,6.68
				c-1.15-2.26-2.46-5.36-3.09-8.67c1.32-0.49,5.26-2.32,4.82-6.68c-0.35-3.42-3.38-7.97-5.29-10.55l-5.77,14.21
				c0.18,0.26,0.36,0.5,0.56,0.71c1.6,1.78,3.71,2.28,4.63,2.42c0.64,3.44,1.99,6.66,3.18,9.01c-5.21,2.47-10.52,4.6-15.83,6.25
				l-0.52,1.27c5.96-1.8,11.92-4.22,17.75-7.03c0.23,0.26,0.46,0.53,0.71,0.82c1.77,1.97,4.25,4.35,7.15,6.17
				c-0.27,1.15-0.7,4.32,1.66,6.94c0.63,0.7,1.45,1.35,2.52,1.92c5.91,3.15,13.27,0.23,13.58,0.1l0.55-0.22l-0.28-0.52
				c-0.2-0.36-4.86-8.9-9.36-11.24c-3.99-2.08-7.23,1.01-8.18,2.07c-3.07-1.95-5.65-4.52-7.38-6.53c3.96-1.95,7.86-4.07,11.64-6.3
				c2.06,2.09,5.15,4.82,8.78,6.77c-0.19,1.16-0.43,4.3,1.88,6.87c0.76,0.84,1.79,1.62,3.18,2.24c6.5,2.91,14.1-0.72,14.42-0.88
				l0.53-0.26l-0.31-0.5c-0.24-0.37-5.8-9.1-10.75-11.26c-4.4-1.92-7.62,1.64-8.53,2.81c-3.38-1.83-6.28-4.36-8.27-6.35
				c4.5-2.68,8.84-5.5,12.93-8.32c2.06,2.09,5.14,4.8,8.76,6.74c-0.19,1.16-0.43,4.3,1.88,6.87c0.76,0.84,1.79,1.62,3.18,2.24
				c6.5,2.91,14.1-0.72,14.42-0.88l0.53-0.26l-0.32-0.5c-0.24-0.37-5.8-9.1-10.75-11.26c-4.4-1.92-7.62,1.64-8.53,2.81
				c-3.4-1.84-6.31-4.38-8.3-6.38c4.06-2.83,7.87-5.65,11.35-8.35c2.26,1.89,5.64,4.36,9.51,5.97c-0.07,1.08-0.02,3.86,2.01,6.12
				c0.88,0.98,2.14,1.86,3.91,2.46c6.75,2.26,13.97-2.09,14.27-2.28l0.5-0.31l-0.36-0.47c-0.27-0.34-6.66-8.5-11.79-10.16
				c-4.57-1.48-7.42,2.37-8.21,3.63c-3.61-1.52-6.8-3.81-8.98-5.62c3.15-2.46,6.01-4.79,8.54-6.92c2.62,1.34,6.49,3.01,10.64,3.72
				c0.14,0.86,0.6,2.77,2.06,4.4c1.15,1.28,2.91,2.38,5.63,2.64c7.09,0.7,13.15-5.15,13.4-5.4l0.42-0.41l-0.46-0.37
				c-0.34-0.28-8.39-6.8-13.76-7.28c-4.78-0.43-6.71,3.96-7.2,5.37c-3.79-0.66-7.34-2.14-9.86-3.41c5.9-5,9.77-8.67,10.78-9.64
				c1.16,0.54,5.04,2.01,9.19,0.05c4.74-2.23,8.04-8.05,9.81-17.3l0.12-0.65l-0.66,0.02C205.23,434.26,193.05,434.78,188.12,441.47z
				"/>
			<path class="st29" d="M713.4,313.77c1.76,2.84,4.64,4.53,8.56,5.06c0.48,1.18,2.45,6.13,4.91,13.52
				c-2.79-0.08-6.48-0.45-10.01-1.6c0.22-1.47,0.58-6.25-3.85-8.11c-4.97-2.09-15.14-0.1-15.57-0.01l-0.58,0.12l0.18,0.56
				c0.11,0.34,2.73,8.35,9.32,11.04c2.52,1.03,4.6,0.89,6.21,0.3c2.05-0.75,3.36-2.23,3.88-2.92c3.84,1.26,7.85,1.62,10.77,1.68
				c1.06,3.21,2.19,6.84,3.33,10.8c-2.77,0.4-6.52,0.66-10.24,0.12c-0.03-1.48-0.48-6.26-5.16-7.35c-5.25-1.23-14.94,2.44-15.35,2.6
				l-0.55,0.21l0.27,0.52c0.16,0.32,4.09,7.77,11.04,9.33c2.03,0.45,3.69,0.28,5.02-0.21c2.64-0.97,4.01-3.15,4.49-4.06
				c3.93,0.59,7.89,0.29,10.77-0.13c1.16,4.1,2.32,8.51,3.4,13.15c-2.8,0.47-6.74,0.85-10.67,0.34c-0.05-1.48-0.57-6.25-5.27-7.27
				c-5.27-1.15-14.9,2.67-15.31,2.83l-0.55,0.22l0.28,0.52c0.17,0.31,4.21,7.71,11.18,9.16c1.98,0.41,3.6,0.23,4.91-0.25
				c2.7-0.99,4.06-3.24,4.53-4.17c4.11,0.55,8.23,0.14,11.13-0.35c1.13,4.94,2.15,10.12,2.97,15.4c-2.79,0.46-6.64,0.81-10.48,0.31
				c-0.05-1.48-0.57-6.25-5.27-7.27c-5.27-1.15-14.9,2.67-15.31,2.83l-0.55,0.22l0.28,0.52c0.17,0.31,4.21,7.71,11.18,9.16
				c1.98,0.41,3.6,0.23,4.91-0.25c2.7-0.99,4.06-3.24,4.53-4.17c3.99,0.53,7.98,0.17,10.86-0.3c0.7,4.64,1.25,9.35,1.57,14.05
				c-2.53,0.23-5.89,0.28-9.19-0.36c0.04-1.41-0.19-5.75-4.41-6.96c-3.3-0.95-8.66,0.17-11.76,0.98l11.04,10.64
				c0.3-0.07,0.59-0.15,0.87-0.25c2.25-0.82,3.5-2.6,3.97-3.39c3.44,0.68,6.93,0.63,9.55,0.4c0.35,5.76,0.35,11.48-0.09,17.02
				l0.99,0.95c0.55-6.2,0.52-12.64,0.08-19.1c0.33-0.11,0.67-0.23,1.02-0.36c2.49-0.91,5.61-2.33,8.39-4.34
				c0.97,0.68,3.75,2.25,7.06,1.04c0.88-0.32,1.79-0.84,2.72-1.62c5.12-4.32,5.15-12.24,5.15-12.57l0-0.59l-0.59,0.07
				c-0.41,0.05-10.07,1.2-13.91,4.5c-3.41,2.93-1.75,7.09-1.12,8.37c-2.95,2.13-6.3,3.56-8.81,4.42c-0.33-4.4-0.85-8.81-1.51-13.15
				c2.71-1.13,6.39-2.99,9.55-5.64c1,0.61,3.83,2,7.08,0.81c1.06-0.39,2.17-1.06,3.27-2.12c5.12-4.95,4.58-13.36,4.56-13.71
				l-0.04-0.59l-0.58,0.11c-0.43,0.08-10.61,2-14.45,5.79c-3.42,3.37-1.32,7.68-0.56,8.96c-2.96,2.46-6.38,4.21-8.98,5.31
				c-0.81-5.18-1.81-10.25-2.91-15.1c2.7-1.14,6.37-2.98,9.52-5.62c1,0.61,3.83,2,7.08,0.81c1.06-0.39,2.17-1.06,3.27-2.12
				c5.12-4.95,4.58-13.36,4.55-13.71l-0.04-0.59l-0.58,0.11c-0.43,0.08-10.61,2-14.45,5.79c-3.42,3.37-1.32,7.68-0.57,8.96
				c-2.97,2.47-6.42,4.23-9.01,5.33c-1.11-4.82-2.32-9.4-3.52-13.64c2.6-1.39,6.14-3.62,9.08-6.6c0.98,0.47,3.58,1.46,6.43,0.41
				c1.24-0.45,2.52-1.29,3.74-2.72c4.61-5.43,3.26-13.74,3.2-14.09l-0.1-0.58l-0.57,0.16c-0.42,0.12-10.37,3.02-13.82,7.17
				c-3.08,3.69-0.56,7.77,0.31,8.97c-2.76,2.79-6.07,4.89-8.56,6.24c-1.11-3.84-2.21-7.37-3.24-10.5c2.22-1.93,5.21-4.91,7.41-8.49
				c0.85,0.19,2.8,0.47,4.85-0.28c1.61-0.59,3.29-1.82,4.55-4.24c3.29-6.32,0.11-14.12-0.02-14.45l-0.23-0.54l-0.52,0.29
				c-0.38,0.21-9.43,5.26-11.88,10.07c-2.18,4.28,1.18,7.7,2.3,8.68c-2.03,3.27-4.72,6.02-6.83,7.89
				c-2.44-7.33-4.41-12.29-4.93-13.6c0.93-0.88,3.74-3.93,3.47-8.51c-0.31-5.23-4.48-10.46-12.41-15.54l-0.56-0.36l-0.22,0.62
				C713.07,295.2,709.03,306.71,713.4,313.77z"/>
			<path class="st29" d="M19.54,312.63c-1.12,3.73-3.86,6.51-8.11,8.29c-0.18,1.47-0.9,7.65-1.44,16.71
				c3.11-0.93,7.16-2.47,10.78-4.83c-0.7-1.59-2.54-6.86,1.88-10.3c4.97-3.86,17.01-4.69,17.52-4.72l0.69-0.05l-0.03,0.69
				c-0.02,0.42-0.55,10.22-7.15,15.25c-2.53,1.93-4.91,2.39-6.9,2.21c-2.54-0.23-4.45-1.49-5.25-2.11
				c-3.94,2.58-8.34,4.2-11.61,5.15c-0.22,3.94-0.4,8.37-0.48,13.16c3.24-0.39,7.54-1.23,11.56-2.96c-0.42-1.68-1.36-7.19,3.58-9.84
				c5.54-2.97,17.56-1.77,18.07-1.71l0.68,0.07l-0.15,0.67c-0.09,0.41-2.25,9.99-9.61,13.84c-2.15,1.13-4.07,1.43-5.72,1.28
				c-3.27-0.29-5.47-2.33-6.28-3.22c-4.25,1.85-8.79,2.72-12.16,3.12c-0.07,4.96-0.04,10.29,0.15,15.83
				c3.29-0.32,7.85-1.08,12.11-2.84c-0.39-1.69-1.25-7.21,3.73-9.78c5.59-2.89,17.59-1.5,18.09-1.44l0.68,0.08l-0.16,0.67
				c-0.1,0.4-2.4,9.95-9.81,13.69c-2.11,1.06-3.99,1.35-5.61,1.21c-3.34-0.3-5.55-2.42-6.36-3.33c-4.46,1.86-9.22,2.65-12.63,2.98
				c0.23,5.91,0.64,12.04,1.31,18.24c3.28-0.33,7.73-1.09,11.89-2.82c-0.39-1.68-1.25-7.21,3.73-9.78
				c5.59-2.89,17.58-1.5,18.09-1.44l0.68,0.08l-0.16,0.67c-0.09,0.41-2.4,9.95-9.81,13.69c-2.11,1.06-3.99,1.35-5.61,1.21
				c-3.34-0.3-5.55-2.42-6.36-3.33c-4.33,1.81-8.94,2.6-12.32,2.94c0.62,5.43,1.43,10.9,2.49,16.29c2.91-0.51,6.72-1.46,10.24-3.19
				c-0.47-1.58-1.52-6.53,2.86-9.17c3.43-2.07,9.8-2.43,13.53-2.45l-9.21,15.32c-0.36,0.01-0.71,0.01-1.05-0.02
				c-2.78-0.25-4.72-1.87-5.49-2.62c-3.66,1.81-7.61,2.8-10.63,3.34c1.34,6.59,3.08,13.03,5.25,19.13l-0.83,1.37
				c-2.49-6.81-4.41-14.07-5.87-21.48c-0.4-0.03-0.82-0.05-1.26-0.09c-3.08-0.27-7.02-0.92-10.76-2.35
				c-0.89,1.05-3.54,3.67-7.63,3.31c-1.09-0.1-2.27-0.4-3.56-1c-7.07-3.31-9.5-12.22-9.6-12.6l-0.18-0.66l0.68-0.1
				c0.48-0.07,11.7-1.7,17.03,0.86c4.73,2.27,4.12,7.45,3.79,9.08c3.97,1.5,8.17,2.1,11.25,2.31c-0.96-5.06-1.7-10.18-2.28-15.27
				c-3.39-0.46-8.1-1.43-12.46-3.45c-0.95,0.98-3.71,3.41-7.72,3.06c-1.31-0.12-2.76-0.53-4.32-1.4c-7.26-4.02-9.2-13.65-9.28-14.06
				l-0.13-0.67l0.68-0.05c0.51-0.04,12.55-0.96,18.02,2.14c4.87,2.76,3.81,8.25,3.35,9.92c4.08,1.87,8.46,2.81,11.71,3.27
				c-0.65-6.07-1.06-12.09-1.29-17.88c-3.39-0.46-8.07-1.43-12.42-3.45c-0.95,0.99-3.71,3.41-7.72,3.06
				c-1.31-0.12-2.76-0.53-4.32-1.4c-7.26-4.02-9.2-13.65-9.28-14.06l-0.13-0.67l0.68-0.05c0.51-0.04,12.55-0.96,18.02,2.14
				c4.87,2.76,3.81,8.25,3.35,9.92c4.1,1.88,8.5,2.82,11.76,3.27c-0.21-5.76-0.24-11.29-0.16-16.43c-3.34-0.78-8.01-2.22-12.22-4.69
				c-0.96,0.82-3.59,2.72-7.12,2.41c-1.53-0.14-3.23-0.69-5.03-1.93c-6.84-4.71-7.83-14.49-7.87-14.9l-0.06-0.68l0.69,0.01
				c0.51,0.01,12.59,0.27,17.73,3.89c4.58,3.22,2.99,8.58,2.37,10.2c3.95,2.3,8.32,3.67,11.53,4.44c0.09-4.66,0.26-8.96,0.47-12.81
				c-3.09-1.5-7.35-3.95-10.92-7.32c-0.9,0.47-3,1.38-5.54,1.15c-1.99-0.18-4.25-1.05-6.4-3.4c-5.61-6.12-4.4-15.87-4.35-16.28
				l0.09-0.68l0.67,0.17c0.5,0.12,12.21,3.06,16.42,7.74c3.75,4.16,1,9.03,0.03,10.47c3.27,3.07,7.14,5.35,10.08,6.81
				c0.53-9,1.24-15.18,1.44-16.8c-1.31-0.71-5.4-3.29-6.48-8.53c-1.24-5.98,1.88-13.13,9.27-21.25l0.52-0.57l0.44,0.63
				C14.29,291.63,22.33,303.36,19.54,312.63z"/>
			<path class="st29" d="M563.51,443.14c1.32,2.79,1.18,5.87-0.37,9.18c0.67,0.96,3.52,4.98,8.01,10.6c1.34-2.2,2.9-5.25,3.79-8.56
				c-1.25-0.56-5.13-2.69-4.35-7.06c0.88-4.9,7.53-11.78,7.81-12.07l0.38-0.39l0.35,0.42c0.21,0.25,5.1,6.3,3.88,12.77
				c-0.47,2.47-1.62,4.01-2.89,4.96c-1.61,1.21-3.41,1.48-4.21,1.54c-0.95,3.6-2.68,6.89-4.1,9.19c1.96,2.43,4.2,5.13,6.69,8
				c1.7-1.95,3.78-4.72,5.23-7.87c-1.14-0.77-4.61-3.51-3.11-7.69c1.69-4.69,9.39-10.35,9.72-10.59l0.44-0.32l0.27,0.47
				c0.16,0.29,3.97,7.07,1.68,13.23c-0.67,1.8-1.64,3-2.69,3.78c-2.08,1.56-4.45,1.53-5.4,1.43c-1.52,3.34-3.73,6.26-5.5,8.28
				c2.59,2.96,5.43,6.07,8.48,9.24c1.77-1.93,4.05-4.79,5.62-8.09c-1.13-0.78-4.56-3.58-2.99-7.73c1.76-4.66,9.55-10.21,9.88-10.44
				l0.44-0.31l0.26,0.48c0.16,0.29,3.86,7.13,1.48,13.26c-0.68,1.74-1.63,2.91-2.66,3.68c-2.12,1.59-4.55,1.52-5.51,1.41
				c-1.64,3.46-4.02,6.45-5.85,8.45c3.27,3.35,6.76,6.75,10.44,10.04c1.75-1.93,3.97-4.74,5.5-7.96c-1.13-0.78-4.56-3.58-2.99-7.73
				c1.76-4.66,9.55-10.2,9.88-10.44l0.44-0.31l0.26,0.48c0.16,0.29,3.86,7.13,1.48,13.26c-0.68,1.74-1.63,2.91-2.66,3.68
				c-2.12,1.59-4.55,1.52-5.51,1.41c-1.59,3.36-3.88,6.27-5.69,8.26c3.24,2.87,6.62,5.66,10.1,8.27c1.44-1.84,3.18-4.42,4.34-7.3
				c-1.11-0.68-4.36-3.04-3.18-6.91c0.92-3.03,4.48-6.62,6.66-8.62l2.7,13.9c-0.21,0.2-0.41,0.39-0.63,0.55
				c-1.77,1.33-3.77,1.41-4.62,1.37c-1.19,3.01-2.99,5.68-4.49,7.6c4.28,3.16,8.71,6.03,13.23,8.47l0.24,1.25
				c-5.08-2.69-10.05-5.94-14.84-9.53c-0.25,0.2-0.51,0.4-0.79,0.61c-1.96,1.47-4.62,3.18-7.58,4.32c0.04,1.09-0.14,4.04-2.74,5.99
				c-0.69,0.52-1.55,0.97-2.62,1.29c-5.91,1.8-12.07-2.15-12.32-2.32l-0.46-0.3l0.35-0.42c0.24-0.29,5.98-7.2,10.47-8.52
				c3.99-1.17,6.37,2.2,7.04,3.33c3.13-1.22,5.92-3.1,7.84-4.61c-3.24-2.47-6.4-5.09-9.43-7.77c-2.24,1.53-5.52,3.45-9.16,4.57
				c-0.03,1.08-0.38,3.98-2.92,5.89c-0.83,0.63-1.91,1.15-3.28,1.47c-6.41,1.48-12.65-3.16-12.91-3.36l-0.43-0.33l0.37-0.4
				c0.28-0.29,6.88-7.22,11.74-8.29c4.33-0.96,6.61,2.84,7.23,4.06c3.39-1.06,6.47-2.83,8.62-4.29c-3.6-3.23-7.03-6.55-10.24-9.84
				c-2.24,1.52-5.51,3.43-9.13,4.55c-0.03,1.08-0.38,3.98-2.92,5.89c-0.84,0.63-1.91,1.15-3.28,1.47
				c-6.41,1.48-12.65-3.16-12.91-3.36l-0.43-0.33l0.37-0.4c0.28-0.29,6.88-7.22,11.74-8.29c4.33-0.96,6.61,2.84,7.23,4.06
				c3.41-1.06,6.5-2.85,8.65-4.31c-3.18-3.28-6.12-6.52-8.8-9.58c-2.38,1.31-5.89,2.94-9.67,3.72c-0.13,0.99-0.67,3.5-2.91,5.19
				c-0.97,0.73-2.27,1.3-3.98,1.53c-6.52,0.85-12.28-4.38-12.52-4.6l-0.4-0.37l0.41-0.36c0.3-0.26,7.55-6.51,12.49-7.11
				c4.4-0.53,6.3,3.47,6.8,4.75c3.54-0.74,6.84-2.25,9.14-3.5c-2.42-2.79-4.6-5.41-6.51-7.79c-2.61,0.75-6.42,1.57-10.3,1.48
				c-0.28,0.75-1.04,2.4-2.65,3.62c-1.27,0.95-3.06,1.63-5.57,1.4c-6.54-0.62-11-7-11.18-7.27l-0.31-0.45l0.48-0.26
				c0.36-0.19,8.81-4.67,13.76-4.15c4.41,0.46,5.37,4.78,5.57,6.14c3.55,0.07,7.03-0.64,9.54-1.33c-4.46-5.57-7.31-9.59-8.06-10.65
				c-1.15,0.28-4.92,0.92-8.33-1.59c-3.9-2.86-5.85-8.72-5.81-17.42l0-0.61l0.6,0.14C549.3,433.56,560.24,436.2,563.51,443.14z"/>
			<g>
				<g>
					
						<linearGradient id="SVGID_26_" gradientUnits="userSpaceOnUse" x1="126.9379" y1="532.1854" x2="15.6087" y2="430.3603" gradientTransform="matrix(-1 0 0 1 122.1204 0)">
						<stop  offset="0" style="stop-color:#8DC63F"/>
						<stop  offset="1" style="stop-color:#C6CF18"/>
					</linearGradient>
					<path class="st30" d="M99.83,418.52c10.03,11.43-9.81,21.51,1,32.2c12.59,12.44,32.23-14.12,44.81,2.67
						c12.61,16.82-9.99,22.37-8.83,28.71c3.29,18.09,28.65,1.61,36.34,17.71c7.69,16.09-19.2,13.92-55.98,13.85
						c-36.77-0.07-106.1-3.69-141.42-2.11c-9.54,0.43-33,3.61-35.44-14.23c-2.44-17.84,21.09,1.05,25.53-17.8
						c4.72-20.09-26.1-24.75-10.12-49.12c15.98-24.37,36.07,11.46,53.59-0.96c15.79-11.2-18.02-26.43,16.38-34
						c30.35-6.68,6.84,27.62,25.65,32.29C69.29,432.17,76.91,392.4,99.83,418.52z"/>
					<path class="st21" d="M-24.38,480.86c0.62-2.23,5.43-6.46-8.2-18.44c-13.63-11.98-5-29.47,3.89-29.32
						c8.89,0.16,31.73,26.39,43.61,14.99c10.36-9.95-1.73-53.44,23.31-31.78c6.93,6,3.89,21.06,15.54,23.82
						c4.03,0.95,21.16-17.76,35.84-6.69c15.77,11.89-5.13,28.92,5.61,35.06c15.27,8.72,19.86-12.16,36.27-2.75
						c15.81,9.07-12.66,33.91,3.22,34.82c21.19,1.22,29.43,6.04,32.63,13.14c-9.74,2.69-28,1.91-49.73,1.87
						c-31.8-0.06-114.36-1.59-136.1-2.01c-8.42,0.08-26.28-4.26-25.75-9.4C-42.93,491.47-25,483.09-24.38,480.86z"/>
					<path class="st31" d="M50.46,474.34l9.21-13.85C59.67,460.49,51.03,465.71,50.46,474.34z"/>
					<path class="st31" d="M111,491.33l9.21-13.85C120.21,477.48,111.58,482.7,111,491.33z"/>
					<path class="st31" d="M78.45,512.08l9.21-13.85C87.66,498.23,79.03,503.46,78.45,512.08z"/>
					<path class="st31" d="M76.8,454.41l9.21-13.85C86.01,440.56,77.38,445.79,76.8,454.41z"/>
					<path class="st31" d="M73.61,483.51l9.21-13.85C82.82,469.66,74.19,474.89,73.61,483.51z"/>
					<path class="st31" d="M42.61,501.7l9.21-13.85C51.82,487.85,43.19,493.08,42.61,501.7z"/>
					<path class="st31" d="M33.19,457.17l9.21-13.85C42.4,443.32,33.76,448.55,33.19,457.17z"/>
					<path class="st31" d="M114.69,516.25l9.21-13.85C123.9,502.4,115.27,507.63,114.69,516.25z"/>
				</g>
			</g>
			<g>
				
					<linearGradient id="SVGID_27_" gradientUnits="userSpaceOnUse" x1="-11.5672" y1="454.4795" x2="88.9451" y2="320.6511" gradientTransform="matrix(0.9446 -0.3282 0.3282 0.9446 -128.6404 43.4688)">
					<stop  offset="0" style="stop-color:#F7941E"/>
					<stop  offset="1" style="stop-color:#F9ED32"/>
				</linearGradient>
				<path class="st32" d="M12.28,482.83c0,0-25.41-57.25-19.04-67.62c6.37-10.37,20.4-8.93,18.5-20.9
					c-1.9-11.98-12.43-34.62,7.56-45.27c19.99-10.65,26.15-12.66,30.46-22.72c4.31-10.07,22.31-15.34,20.3,2.32
					c-2.01,17.66-6.21,15.2-1.29,34.19c4.92,18.99,7.49,22.37-6.42,29.91c-13.9,7.54,11.24,25.4-1.44,37.1
					c-12.68,11.7-18.75,21.67-14.44,28.6C50.79,465.37,12.28,482.83,12.28,482.83z"/>
				<path class="st31" d="M62.76,327.66c0.2-0.28,0.14-0.66-0.14-0.86c-0.28-0.2-0.66-0.14-0.86,0.14
					c-6.47,8.9-12.42,22.13-17.73,37.11c-0.09,0.11-0.13,0.23-0.13,0.37c-1.57,4.45-3.08,9.04-4.54,13.72l-2.36-28.5
					c-0.03-0.34-0.33-0.59-0.67-0.56c-0.34,0.03-0.59,0.33-0.56,0.67l2.61,31.58c0,0,0,0,0,0.01c-0.86,2.85-1.7,5.72-2.52,8.61
					c-0.1,0.13-0.15,0.29-0.13,0.45c-0.87,3.09-1.72,6.2-2.54,9.3l-11.79-33.72c-0.11-0.32-0.46-0.49-0.79-0.38c0,0,0,0,0,0
					c-0.32,0.11-0.49,0.47-0.38,0.79l12.4,35.45c-0.71,2.73-1.4,5.45-2.07,8.15c-0.08,0.12-0.12,0.26-0.1,0.41
					c-0.91,3.69-1.79,7.34-2.62,10.93l-12.07-30.64c-0.13-0.32-0.49-0.49-0.8-0.35c-0.32,0.12-0.47,0.48-0.35,0.8l12.73,32.31
					c-2.22,9.66-4.12,18.75-5.69,26.62l-16.54-34.3c-0.15-0.31-0.52-0.44-0.83-0.29c-0.31,0.15-0.44,0.52-0.29,0.82l17.25,35.78
					c-0.56,2.84-1.07,5.5-1.53,7.96c-0.03,0.07-0.04,0.14-0.04,0.21c-1.96,10.47-3.03,17.12-3.07,17.39
					c-0.05,0.34,0.18,0.65,0.51,0.71c0.1,0.02,0.21,0.01,0.3-0.03c0.21-0.07,0.37-0.25,0.41-0.49c0.04-0.27,1.09-6.84,3.03-17.18
					l20.88-11.13c0.3-0.16,0.41-0.53,0.25-0.83c-0.16-0.3-0.54-0.41-0.84-0.25l-20,10.67c1.23-6.49,2.78-14.33,4.63-22.95
					c0.11,0.02,0.22,0.03,0.33-0.01c0.01,0,0.01-0.01,0.02-0.01l28.72-11.25c0.32-0.12,0.48-0.48,0.35-0.8
					c-0.12-0.32-0.49-0.48-0.8-0.35l-28.34,11.1c1.63-7.56,3.49-15.68,5.55-24.02l19.18-5.65c0.01,0,0.02-0.01,0.03-0.01
					c0.31-0.11,0.48-0.44,0.39-0.76c-0.1-0.33-0.44-0.51-0.77-0.42l-18.49,5.44c1.54-6.19,3.2-12.47,4.96-18.7l20.63-11.69
					c0.3-0.17,0.4-0.54,0.23-0.84c-0.17-0.3-0.54-0.4-0.84-0.23l-19.54,11.07c2.37-8.29,4.92-16.46,7.64-24.17l16.67-9.39
					c0.3-0.17,0.4-0.54,0.23-0.84c-0.17-0.3-0.55-0.4-0.84-0.23l-15.43,8.7C50.83,348.77,56.56,336.2,62.76,327.66z"/>
				<path class="st31" d="M57.31,335.17c3.97-6.85,12.83-16.73,5.29-18.1c4.64-0.2,8.43,2.94,7.45,11.57
					c-2.01,17.66-6.21,15.2-1.29,34.19c4.92,18.99,7.49,22.37-6.42,29.91c-13.9,7.54,11.24,25.4-1.44,37.1
					c-12.68,11.7-18.75,21.67-14.44,28.6c4.31,6.94-29.6,22.22-29.6,22.22S32.37,378.2,57.31,335.17z"/>
			</g>
			<path class="st29" d="M91.3,458.39c-2.08,2.06-2.96,4.86-2.64,8.31c-0.91,0.64-4.76,3.3-10.59,6.86
				c-0.48-2.4-0.89-5.63-0.61-8.87c1.3-0.1,5.45-0.74,6.17-4.89c0.81-4.66-2.9-12.95-3.06-13.3l-0.21-0.47l-0.45,0.26
				c-0.27,0.16-6.6,3.98-7.6,10.14c-0.39,2.36,0.15,4.1,0.97,5.36c1.05,1.61,2.56,2.43,3.26,2.74c-0.32,3.53,0.16,7.03,0.68,9.53
				c-2.54,1.54-5.42,3.22-8.57,4.97c-0.88-2.29-1.85-5.44-2.12-8.72c1.26-0.32,5.25-1.64,5.27-5.85c0.01-4.73-5.03-12.29-5.25-12.6
				l-0.29-0.43l-0.39,0.33c-0.24,0.2-5.84,5.02-5.79,11.27c0.01,1.82,0.49,3.21,1.17,4.25c1.35,2.07,3.48,2.81,4.36,3.03
				c0.27,3.48,1.3,6.8,2.23,9.18c-3.27,1.8-6.82,3.66-10.57,5.49c-0.95-2.3-2.06-5.59-2.39-9.05c1.26-0.33,5.23-1.72,5.18-5.93
				c-0.06-4.73-5.22-12.21-5.43-12.52l-0.3-0.42l-0.39,0.34c-0.24,0.21-5.76,5.11-5.62,11.36c0.04,1.78,0.51,3.12,1.18,4.15
				c1.38,2.11,3.57,2.83,4.46,3.05c0.34,3.62,1.5,7.06,2.49,9.44c-4,1.94-8.22,3.83-12.57,5.58c-0.94-2.29-2-5.52-2.33-8.89
				c1.26-0.33,5.23-1.72,5.18-5.93c-0.06-4.73-5.21-12.21-5.44-12.52l-0.29-0.42l-0.39,0.34c-0.24,0.21-5.76,5.11-5.62,11.36
				c0.04,1.78,0.51,3.13,1.18,4.15c1.38,2.11,3.57,2.83,4.46,3.05c0.33,3.51,1.43,6.85,2.4,9.22c-3.82,1.51-7.74,2.91-11.69,4.11
				c-0.69-2.11-1.4-4.98-1.5-7.93c1.21-0.24,4.88-1.3,5.08-5.14c0.16-3.01-1.85-7.37-3.15-9.85l-6.92,11.53
				c0.12,0.25,0.25,0.48,0.38,0.69c1.15,1.76,2.91,2.48,3.68,2.72c0.09,3.07,0.83,6.04,1.54,8.24c-4.85,1.44-9.74,2.56-14.56,3.27
				l-0.62,1.03c5.4-0.75,10.9-2.04,16.33-3.69c0.16,0.26,0.33,0.52,0.51,0.8c1.27,1.95,3.09,4.34,5.36,6.32
				c-0.39,0.96-1.19,3.65,0.5,6.24c0.45,0.69,1.07,1.37,1.92,2.01c4.7,3.52,11.47,1.99,11.76,1.92l0.5-0.12l-0.17-0.49
				c-0.12-0.34-3-8.37-6.59-11c-3.18-2.34-6.4-0.1-7.37,0.69c-2.4-2.1-4.28-4.68-5.51-6.66c3.7-1.15,7.36-2.47,10.94-3.88
				c1.5,2.09,3.81,4.87,6.7,7.05c-0.32,0.98-0.95,3.67,0.7,6.21c0.54,0.83,1.33,1.64,2.46,2.37c5.24,3.4,12.32,1.28,12.62,1.19
				l0.49-0.15l-0.21-0.47c-0.15-0.35-3.8-8.67-7.79-11.21c-3.56-2.26-6.82,0.39-7.77,1.28c-2.68-2.04-4.85-4.62-6.31-6.62
				c4.26-1.71,8.4-3.57,12.33-5.46c1.5,2.09,3.8,4.85,6.68,7.03c-0.32,0.98-0.95,3.67,0.7,6.21c0.54,0.83,1.33,1.65,2.46,2.38
				c5.24,3.4,12.32,1.28,12.62,1.19l0.49-0.15l-0.21-0.47c-0.15-0.35-3.8-8.67-7.79-11.21c-3.56-2.26-6.82,0.39-7.77,1.28
				c-2.7-2.05-4.88-4.65-6.33-6.65c3.9-1.9,7.58-3.83,10.96-5.7c1.7,1.94,4.3,4.54,7.43,6.45c-0.21,0.93-0.54,3.35,0.92,5.58
				c0.63,0.97,1.6,1.9,3.06,2.66c5.54,2.87,12.38,0.08,12.67-0.04l0.48-0.2l-0.25-0.45c-0.19-0.33-4.63-8.26-8.85-10.4
				c-3.76-1.9-6.75,1.05-7.61,2.03c-2.93-1.81-5.38-4.22-7.02-6.09c3.06-1.7,5.86-3.34,8.34-4.84c2.09,1.52,5.22,3.48,8.72,4.66
				c0,0.76,0.15,2.48,1.19,4.09c0.82,1.26,2.2,2.45,4.52,3.05c6.05,1.57,12.09-2.68,12.34-2.87l0.42-0.3l-0.35-0.38
				c-0.26-0.29-6.35-7.02-10.94-8.17c-4.09-1.02-6.35,2.53-6.96,3.68c-3.19-1.09-6.07-2.85-8.08-4.29
				c5.79-3.53,9.64-6.19,10.65-6.89c0.93,0.62,4.09,2.42,7.95,1.29c4.41-1.29,8.05-5.89,10.83-13.66l0.2-0.55l-0.58-0.07
				C107.1,454.45,96.47,453.25,91.3,458.39z"/>
			<g>
				<path class="st21" d="M-4.53,554.42c0,0-5.12-61.27,4.13-68.83c9.25-7.57,21.8-1.7,23.89-13.42
					c2.1-11.72-0.37-36.11,21.59-39.54c21.96-3.43,28.33-3.31,35.56-11.25c7.24-7.94,25.63-7.04,18.08,8.69
					c-7.55,15.73-10.66,12.09-12.21,31.28c-1.55,19.19-0.26,23.15-15.59,25.67c-15.32,2.51,2.24,27.17-13.28,33.93
					c-15.52,6.76-24.37,14.05-22.6,21.87C36.8,550.63-4.53,554.42-4.53,554.42z"/>
				<linearGradient id="SVGID_28_" gradientUnits="userSpaceOnUse" x1="-5.5226" y1="517.3395" x2="96.8999" y2="380.9677">
					<stop  offset="0" style="stop-color:#CDD658"/>
					<stop  offset="1" style="stop-color:#E1E947"/>
				</linearGradient>
				<path class="st33" d="M-2.02,519.97c0,0-5.12-61.27,4.13-68.83c9.25-7.57,21.8-1.7,23.89-13.42
					c2.1-11.72-0.37-36.11,21.59-39.54c21.96-3.43,28.33-3.31,35.56-11.25c7.24-7.94,25.63-7.04,18.08,8.69
					c-7.55,15.73-10.66,12.09-12.21,31.28c-1.55,19.19-0.26,23.15-15.59,25.67c-15.32,2.51,2.24,27.17-13.28,33.93
					c-15.52,6.76-24.37,14.05-22.6,21.87C39.32,516.19-2.02,519.97-2.02,519.97z"/>
				<path class="st31" d="M94.78,392.36c0.27-0.19,0.34-0.57,0.15-0.84c-0.19-0.27-0.57-0.34-0.84-0.15
					c-8.86,6.17-18.64,16.52-28.39,28.7c-0.11,0.07-0.19,0.18-0.24,0.3c-2.89,3.62-5.77,7.39-8.63,11.26l6.99-27.19
					c0.08-0.32-0.11-0.65-0.44-0.74c-0.32-0.08-0.65,0.11-0.74,0.44l-7.75,30.12c0,0,0,0,0,0.01c-1.72,2.37-3.42,4.76-5.11,7.17
					c-0.14,0.09-0.23,0.22-0.27,0.38c-1.81,2.59-3.59,5.19-5.35,7.8l-0.07-35.07c0-0.33-0.27-0.61-0.61-0.61h0
					c-0.33,0-0.61,0.27-0.61,0.61l0.07,36.86c-1.54,2.3-3.06,4.6-4.55,6.89c-0.11,0.08-0.19,0.2-0.23,0.35
					c-2.04,3.13-4.02,6.23-5.95,9.29l-1.32-32.3c-0.01-0.33-0.3-0.61-0.63-0.58c-0.33,0.01-0.59,0.3-0.58,0.63l1.39,34.06
					c-5.17,8.24-9.86,16.05-13.85,22.85l-4.29-37.13c-0.04-0.33-0.34-0.58-0.67-0.53c-0.33,0.04-0.57,0.34-0.53,0.67l4.47,38.74
					c-1.43,2.45-2.76,4.76-3.98,6.89c-0.05,0.05-0.08,0.12-0.1,0.18c-5.19,9.08-8.32,14.9-8.45,15.14c-0.16,0.3-0.05,0.66,0.25,0.82
					c0.09,0.05,0.19,0.07,0.29,0.07c0.22,0,0.43-0.12,0.54-0.32c0.13-0.24,3.22-5.99,8.34-14.96l22.94-3.6
					c0.33-0.05,0.56-0.36,0.5-0.69c-0.05-0.33-0.37-0.55-0.69-0.5l-21.98,3.45c3.23-5.63,7.19-12.39,11.68-19.79
					c0.09,0.06,0.19,0.1,0.31,0.1c0.01,0,0.02,0,0.02,0l30.26-1.18c0.33-0.01,0.6-0.29,0.58-0.63c-0.01-0.33-0.3-0.6-0.63-0.58
					l-29.85,1.17c3.95-6.48,8.29-13.42,12.88-20.48l19.6,0.94c0.01,0,0.02,0,0.03,0c0.32,0,0.59-0.25,0.61-0.58
					c0.02-0.33-0.24-0.62-0.58-0.63l-18.89-0.91c3.42-5.24,6.98-10.53,10.62-15.75l22.89-4.19c0.33-0.06,0.55-0.38,0.49-0.71
					c-0.06-0.33-0.37-0.55-0.71-0.49l-21.68,3.97c4.87-6.92,9.87-13.68,14.87-19.95l18.48-3.34c0.33-0.06,0.55-0.38,0.49-0.7
					c-0.06-0.33-0.38-0.55-0.7-0.49l-17.1,3.09C76.92,408.09,86.28,398.27,94.78,392.36z"/>
				<path class="st31" d="M87.32,397.56c5.89-5.07,17.28-11.38,10.74-15.07c4.36,1.31,6.87,5.44,3.18,13.13
					c-7.55,15.73-10.66,12.09-12.21,31.28c-1.55,19.19-0.26,23.15-15.59,25.67c-15.32,2.51,2.24,27.17-13.28,33.93
					c-15.52,6.76-24.37,14.05-22.6,21.87c1.76,7.82-34.6,11.07-34.6,11.07S50.32,429.42,87.32,397.56z"/>
			</g>
			<g>
				<g>
					<linearGradient id="SVGID_29_" gradientUnits="userSpaceOnUse" x1="737.3754" y1="501.8735" x2="559.6222" y2="358.0859">
						<stop  offset="0" style="stop-color:#F7941E"/>
						<stop  offset="1" style="stop-color:#F9ED32"/>
					</linearGradient>
					<path class="st34" d="M763.94,391.38c12.57,14.33-12.3,26.98,1.26,40.38c15.78,15.6,40.41-17.71,56.19,3.35
						c15.81,21.09-12.52,28.05-11.08,35.99c4.12,22.68,35.92,2.02,45.57,22.2c9.65,20.18-24.08,17.45-70.19,17.36
						c-46.11-0.09-133.04-4.63-177.33-2.64c-11.96,0.53-41.38,4.52-44.44-17.85c-3.07-22.37,26.45,1.32,32.01-22.32
						c5.92-25.19-32.73-31.04-12.7-61.59c20.04-30.55,45.23,14.37,67.19-1.21c19.8-14.05-22.59-33.14,20.54-42.64
						c38.06-8.38,8.57,34.63,32.16,40.49C725.65,408.49,735.21,358.62,763.94,391.38z"/>
					<path class="st21" d="M608.2,469.54c0.77-2.8,6.8-8.1-10.29-23.13c-17.09-15.03-6.27-36.95,4.87-36.76
						c11.14,0.19,39.79,33.09,54.68,18.79c12.99-12.48-2.17-67.01,29.23-39.85c8.69,7.52,4.87,26.41,19.49,29.87
						c5.05,1.2,26.53-22.27,44.93-8.39c19.77,14.91-6.44,36.26,7.04,43.96c19.15,10.93,24.9-15.25,45.48-3.45
						c19.83,11.37-15.87,42.52,4.04,43.66c26.57,1.53,36.9,7.57,40.92,16.47c-12.21,3.37-35.12,2.4-62.35,2.35
						c-39.88-0.08-143.39-2-170.66-2.52c-10.56,0.09-32.95-5.35-32.28-11.79C584.93,482.85,607.42,472.34,608.2,469.54z"/>
					<path class="st31" d="M702.04,461.37L713.59,444C713.59,444,702.76,450.55,702.04,461.37z"/>
					<path class="st31" d="M777.96,482.67l11.55-17.36C789.5,465.3,778.68,471.85,777.96,482.67z"/>
					<path class="st31" d="M737.14,508.69l11.55-17.36C748.69,491.33,737.86,497.88,737.14,508.69z"/>
					<path class="st31" d="M735.07,436.38l11.55-17.37C746.62,419.01,735.8,425.56,735.07,436.38z"/>
					<path class="st31" d="M731.07,472.87l11.55-17.37C742.62,455.5,731.79,462.05,731.07,472.87z"/>
					<path class="st31" d="M692.2,495.68l11.55-17.36C703.75,478.32,692.93,484.87,692.2,495.68z"/>
					<path class="st31" d="M680.38,439.84l11.55-17.37C691.93,422.48,681.11,429.03,680.38,439.84z"/>
					<path class="st31" d="M782.58,513.92l11.55-17.37C794.13,496.56,783.3,503.11,782.58,513.92z"/>
					<path class="st31" d="M611.57,442.46l-13.51-15.89C598.06,426.58,601.37,438.79,611.57,442.46z"/>
					<path class="st31" d="M640.35,446.86l-13.51-15.89C626.84,430.98,630.15,443.19,640.35,446.86z"/>
					<path class="st31" d="M676.32,449.75l-13.51-15.89C662.81,433.86,666.12,446.08,676.32,449.75z"/>
					<path class="st31" d="M632.15,473.16l-13.51-15.89C618.64,457.27,621.96,469.48,632.15,473.16z"/>
					<path class="st31" d="M625.4,493.44l-13.51-15.89C611.89,477.55,615.2,489.77,625.4,493.44z"/>
					<path class="st31" d="M601.73,507.45l-13.51-15.89C588.22,491.57,591.53,503.78,601.73,507.45z"/>
				</g>
			</g>
			<g>
				<g>
					<path class="st21" d="M669.63,411.8c-10.39,11.85,10.17,22.3-1.04,33.38c-13.05,12.9-33.4-14.64-46.45,2.77
						c-13.07,17.43,10.35,23.19,9.16,29.75c-3.41,18.75-29.69,1.67-37.67,18.35c-7.97,16.68,19.9,14.42,58.02,14.35
						c38.11-0.07,109.97-3.82,146.58-2.18c9.89,0.44,34.2,3.74,36.73-14.75c2.53-18.49-21.86,1.09-26.46-18.45
						c-4.9-20.82,27.05-25.66,10.49-50.91c-16.56-25.25-37.39,11.88-55.54-1c-16.37-11.61,18.68-27.39-16.97-35.24
						c-31.46-6.93-7.09,28.63-26.58,33.46C701.29,425.94,693.39,384.73,669.63,411.8z"/>
					<linearGradient id="SVGID_30_" gradientUnits="userSpaceOnUse" x1="666.9333" y1="419.5681" x2="784.4765" y2="518.6146">
						<stop  offset="0" style="stop-color:#C6CF18"/>
						<stop  offset="1" style="stop-color:#00A651"/>
					</linearGradient>
					<path class="st35" d="M677.51,407.36c-10.39,11.85,10.17,22.3-1.04,33.38c-13.05,12.9-33.4-14.64-46.45,2.77
						c-13.07,17.43,10.35,23.19,9.16,29.75c-3.41,18.75-29.69,1.67-37.67,18.35c-7.97,16.68,19.9,14.42,58.02,14.35
						c38.11-0.07,109.97-3.82,146.58-2.18c9.89,0.44,34.2,3.74,36.73-14.75c2.53-18.49-21.86,1.09-26.46-18.45
						c-4.9-20.82,27.05-25.66,10.49-50.91c-16.56-25.25-37.39,11.88-55.54-1c-16.37-11.61,18.68-27.39-16.97-35.24
						c-31.46-6.93-7.09,28.63-26.58,33.46C709.16,421.51,701.26,380.29,677.51,407.36z"/>
					<path class="st21" d="M806.24,471.97c-0.64-2.31-5.62-6.7,8.5-19.12c14.13-12.42,5.18-30.55-4.03-30.38
						c-9.21,0.16-32.89,27.35-45.2,15.53c-10.74-10.32,1.79-55.39-24.16-32.94c-7.18,6.21-4.03,21.83-16.11,24.69
						c-4.17,0.99-21.93-18.41-37.14-6.94c-16.34,12.33,5.32,29.97-5.82,36.33c-15.82,9.04-20.58-12.6-37.59-2.85
						c-16.39,9.4,13.12,35.14-3.34,36.09c-21.96,1.26-30.5,6.26-33.82,13.61c10.09,2.79,29.03,1.98,51.54,1.94
						c32.96-0.06,118.53-1.65,141.06-2.08c8.73,0.08,27.23-4.42,26.69-9.74C825.47,482.98,806.88,474.28,806.24,471.97z"/>
					<path class="st31" d="M728.67,465.21l-9.55-14.35C719.13,450.86,728.08,456.28,728.67,465.21z"/>
					<path class="st31" d="M665.92,482.82l-9.55-14.35C656.38,468.47,665.33,473.88,665.92,482.82z"/>
					<path class="st31" d="M699.66,504.33l-9.55-14.35C690.11,489.98,699.06,495.4,699.66,504.33z"/>
					<path class="st31" d="M701.37,444.56l-9.55-14.35C691.82,430.2,700.77,435.62,701.37,444.56z"/>
					<path class="st31" d="M704.68,474.72l-9.55-14.35C695.13,460.37,704.08,465.78,704.68,474.72z"/>
					<path class="st31" d="M736.8,493.58l-9.55-14.35C727.26,479.22,736.21,484.64,736.8,493.58z"/>
					<path class="st31" d="M746.57,447.42l-9.55-14.35C737.03,433.07,745.98,438.48,746.57,447.42z"/>
					<path class="st31" d="M662.1,508.66l-9.55-14.35C652.55,494.3,661.5,499.72,662.1,508.66z"/>
				</g>
			</g>
			<g>
				<path class="st4" d="M785.57,584.83c0,0,14.52-74.3,4.21-84.8c-10.3-10.5-26.44-5.02-27.43-19.64
					c-0.99-14.62,5.32-44.14-21.1-51.3c-26.42-7.16-34.22-7.87-42.01-18.56c-7.79-10.7-30.41-12.07-23.29,8.2
					c7.12,20.27,11.42,16.23,10.73,39.93c-0.69,23.7-2.8,28.37,15.62,33.51c18.41,5.14-6.4,32.95,11.69,43.32
					c18.09,10.37,27.93,20.47,24.72,29.81C735.48,574.63,785.57,584.83,785.57,584.83z"/>
				
					<linearGradient id="SVGID_31_" gradientUnits="userSpaceOnUse" x1="676.9019" y1="277.3674" x2="745.8902" y2="512.3282" gradientTransform="matrix(0.9748 -0.2229 0.2229 0.9748 -75.1776 179.638)">
					<stop  offset="0" style="stop-color:#C6CF18"/>
					<stop  offset="1" style="stop-color:#00A651"/>
				</linearGradient>
				<path class="st36" d="M758.72,505.09c0,0,14.52-74.3,4.21-84.8c-10.3-10.5-26.44-5.02-27.43-19.64
					c-0.99-14.62,5.32-44.14-21.1-51.3c-26.42-7.16-34.22-7.87-42.01-18.56c-7.79-10.7-30.41-12.07-23.29,8.2
					c7.12,20.27,11.42,16.23,10.73,39.93c-0.69,23.7-2.8,28.37,15.62,33.51c18.41,5.14-6.4,32.95,11.69,43.32
					c18.09,10.37,27.93,20.47,24.72,29.81C708.63,494.89,758.72,505.09,758.72,505.09z"/>
				<path class="st31" d="M657.43,335.87c-0.31-0.27-0.34-0.74-0.07-1.05c0.27-0.31,0.74-0.34,1.05-0.07
					c10.01,8.74,20.59,22.73,30.89,38.95c0.13,0.1,0.21,0.24,0.25,0.4c3.05,4.81,6.07,9.82,9.04,14.95l-4.9-34.22
					c-0.06-0.41,0.22-0.79,0.63-0.85c0.41-0.06,0.79,0.23,0.84,0.63l5.43,37.91c0,0,0,0.01,0,0.01c1.78,3.13,3.55,6.29,5.29,9.47
					c0.15,0.12,0.25,0.31,0.28,0.5c1.86,3.41,3.69,6.84,5.5,10.27l4.81-42.91c0.05-0.41,0.42-0.7,0.82-0.66c0,0,0,0,0,0
					c0.41,0.05,0.7,0.42,0.66,0.83l-5.06,45.11c1.58,3.02,3.12,6.04,4.64,9.04c0.13,0.12,0.21,0.28,0.23,0.46
					c2.07,4.1,4.09,8.17,6.03,12.17l5.97-39.36c0.06-0.41,0.44-0.71,0.85-0.62c0.41,0.06,0.69,0.44,0.62,0.85l-6.29,41.5
					c5.22,10.79,9.91,20.98,13.87,29.83l10.25-44.87c0.09-0.4,0.49-0.66,0.89-0.56c0.4,0.09,0.65,0.49,0.56,0.89l-10.69,46.8
					c1.42,3.2,2.74,6.2,3.94,8.96c0.05,0.07,0.08,0.15,0.1,0.24c5.13,11.81,8.18,19.36,8.3,19.67c0.15,0.39-0.03,0.82-0.42,0.97
					c-0.12,0.05-0.24,0.06-0.36,0.05c-0.26-0.03-0.5-0.2-0.61-0.46c-0.12-0.31-3.13-7.76-8.2-19.43l-27.6-7.49
					c-0.4-0.1-0.63-0.52-0.53-0.91c0.11-0.4,0.52-0.63,0.92-0.52l26.44,7.18c-3.19-7.32-7.13-16.13-11.63-25.79
					c-0.12,0.06-0.25,0.09-0.39,0.08c-0.01,0-0.02,0-0.03,0l-36.87-5.52c-0.41-0.06-0.69-0.44-0.63-0.85
					c0.06-0.41,0.45-0.7,0.85-0.63l36.38,5.45c-3.96-8.47-8.33-17.54-13.01-26.8l-24.12-1.49c-0.01,0-0.02,0-0.04,0
					c-0.39-0.04-0.69-0.39-0.66-0.79c0.03-0.41,0.38-0.72,0.79-0.7l23.25,1.44c-3.48-6.87-7.13-13.83-10.88-20.7l-27.45-8.21
					c-0.4-0.12-0.62-0.53-0.5-0.93c0.12-0.4,0.53-0.62,0.93-0.5l26,7.78c-5.02-9.12-10.23-18.07-15.52-26.41l-22.17-6.58
					c-0.4-0.12-0.62-0.53-0.5-0.93c0.12-0.39,0.53-0.62,0.93-0.5l20.52,6.09C677.18,357.53,667.04,344.26,657.43,335.87z"/>
				<path class="st31" d="M665.87,343.24c-6.53-7-19.62-16.25-11.11-19.89c-5.52,1.01-9.14,5.74-5.66,15.64
					c7.12,20.27,11.42,16.23,10.73,39.93c-0.69,23.7-2.8,28.37,15.62,33.51c18.41,5.14-6.4,32.95,11.69,43.32
					c18.09,10.37,27.93,20.47,24.72,29.81c-3.21,9.34,40.86,18.21,40.86,18.21S706.86,387.22,665.87,343.24z"/>
			</g>
			<path class="st29" d="M612.43,375.43c2.8,0.84,5.68,0.28,8.56-1.65c1,0.49,5.18,2.6,11.09,6.02c-1.88,1.57-4.52,3.47-7.5,4.77
				c-0.71-1.09-3.25-4.44-7.24-3.09c-4.48,1.52-9.99,8.74-10.23,9.04l-0.31,0.41l0.44,0.27c0.27,0.16,6.64,3.89,12.54,1.83
				c2.26-0.79,3.53-2.09,4.25-3.42c0.91-1.69,0.91-3.41,0.85-4.17c3.25-1.41,6.1-3.5,8.05-5.15c2.56,1.49,5.42,3.22,8.46,5.15
				c-1.59,1.87-3.9,4.22-6.65,6.03c-0.88-0.96-3.95-3.83-7.66-1.83c-4.16,2.25-8.39,10.29-8.56,10.63l-0.24,0.46l0.48,0.19
				c0.29,0.11,7.2,2.73,12.67-0.3c1.6-0.88,2.58-1.96,3.17-3.06c1.17-2.17,0.8-4.4,0.58-5.28c2.92-1.9,5.35-4.39,7-6.34
				c3.14,2.01,6.47,4.24,9.88,6.66c-1.56,1.94-3.93,4.48-6.8,6.43c-0.9-0.95-4.01-3.77-7.69-1.71c-4.13,2.31-8.23,10.42-8.4,10.76
				l-0.23,0.46l0.49,0.18c0.29,0.11,7.24,2.62,12.66-0.49c1.54-0.88,2.5-1.94,3.08-3.02c1.2-2.22,0.78-4.49,0.55-5.37
				c3.02-2.03,5.49-4.69,7.1-6.7c3.61,2.59,7.29,5.39,10.91,8.38c-1.56,1.92-3.89,4.4-6.7,6.3c-0.89-0.95-4.01-3.77-7.69-1.71
				c-4.13,2.31-8.23,10.41-8.4,10.76l-0.23,0.46l0.48,0.18c0.29,0.11,7.24,2.62,12.66-0.49c1.54-0.88,2.5-1.94,3.08-3.02
				c1.2-2.22,0.78-4.49,0.55-5.37c2.93-1.97,5.34-4.53,6.95-6.51c3.16,2.64,6.25,5.41,9.2,8.31c-1.53,1.62-3.7,3.61-6.25,5.11
				c-0.79-0.95-3.47-3.66-6.94-2.01c-2.72,1.3-5.59,5.14-7.15,7.48l13.43,0.57c0.16-0.22,0.3-0.44,0.42-0.67
				c1-1.85,0.79-3.74,0.63-4.53c2.65-1.55,4.91-3.61,6.5-5.29c3.58,3.57,6.9,7.33,9.83,11.22l1.2,0.05c-3.24-4.39-7-8.6-11.05-12.58
				c0.15-0.26,0.3-0.54,0.46-0.83c1.1-2.05,2.33-4.79,2.99-7.73c1.03-0.12,3.77-0.7,5.24-3.42c0.39-0.72,0.69-1.59,0.84-2.65
				c0.85-5.81-3.73-11.03-3.93-11.25l-0.34-0.39l-0.34,0.38c-0.24,0.27-5.92,6.64-6.52,11.04c-0.53,3.91,2.97,5.67,4.13,6.14
				c-0.7,3.11-2.07,6-3.21,8.02c-2.78-2.7-5.68-5.29-8.64-7.76c1.12-2.32,2.46-5.67,2.99-9.25c1.01-0.19,3.68-0.92,5.12-3.58
				c0.47-0.87,0.81-1.95,0.91-3.29c0.48-6.23-4.76-11.43-4.98-11.65l-0.37-0.36l-0.32,0.41c-0.24,0.3-5.8,7.48-6.13,12.2
				c-0.29,4.2,3.6,5.81,4.84,6.21c-0.51,3.34-1.74,6.47-2.8,8.71c-3.54-2.93-7.15-5.67-10.69-8.22c1.11-2.32,2.44-5.66,2.98-9.22
				c1.01-0.19,3.68-0.92,5.12-3.58c0.47-0.87,0.81-1.96,0.91-3.29c0.48-6.23-4.76-11.43-4.98-11.65l-0.37-0.36l-0.32,0.41
				c-0.24,0.3-5.8,7.48-6.13,12.2c-0.29,4.2,3.6,5.81,4.84,6.21c-0.51,3.35-1.75,6.5-2.82,8.74c-3.53-2.52-6.99-4.83-10.25-6.91
				c0.9-2.42,1.93-5.95,2.12-9.61c0.91-0.26,3.2-1.13,4.46-3.47c0.55-1.02,0.9-2.31,0.87-3.96c-0.13-6.24-5.85-10.92-6.09-11.11
				l-0.4-0.32l-0.28,0.44c-0.2,0.32-5.05,8.01-4.91,12.74c0.13,4.21,4.15,5.43,5.42,5.71c-0.19,3.43-1.14,6.74-1.99,9.08
				c-2.96-1.88-5.73-3.55-8.23-5.01c0.34-2.56,0.57-6.25-0.07-9.89c0.67-0.37,2.11-1.31,3.02-3c0.71-1.33,1.1-3.11,0.52-5.43
				c-1.51-6.06-8.14-9.34-8.42-9.47l-0.47-0.23l-0.17,0.49c-0.13,0.36-3.14,8.93-1.95,13.51c1.06,4.08,5.25,4.37,6.56,4.36
				c0.57,3.33,0.4,6.7,0.1,9.15c-5.87-3.39-10.04-5.51-11.14-6.06c0.1-1.12,0.17-4.75-2.67-7.6c-3.24-3.25-9.02-4.26-17.18-2.99
				l-0.57,0.09l0.22,0.54C601.42,363.44,605.45,373.34,612.43,375.43z"/>
			<g>
				<path class="st21" d="M765,530.54c0,0-2.75-64.86-13.45-71.56c-10.69-6.7-23.06,1.1-26.81-10.89
					c-3.75-12-4.39-37.87-27.85-38.56c-23.46-0.69-24.17,5.26-32.81-2.1c-8.64-7.36-31.17-0.41-21.18,15.07
					c9.99,15.48,7.91,8.45,12.08,28.35c4.17,19.9,5.65,18.47,22.04,19.07c16.38,0.6,1.25,28.76,18.41,33.79
					c17.16,5.03,27.39,11.49,26.57,19.91C721.2,532.05,765,530.54,765,530.54z"/>
				
					<linearGradient id="SVGID_32_" gradientUnits="userSpaceOnUse" x1="478.7385" y1="706.2372" x2="564.9537" y2="591.4448" gradientTransform="matrix(-0.9921 0.1255 0.1255 0.9921 1150.0376 -243.9626)">
					<stop  offset="0" style="stop-color:#CDD658"/>
					<stop  offset="1" style="stop-color:#E1E947"/>
				</linearGradient>
				<path class="st37" d="M764.1,523.83c0,0-2.75-64.86-13.45-71.56c-10.69-6.7-23.06,1.1-26.81-10.89
					c-3.75-12-4.39-37.87-27.85-38.56c-23.46-0.69-30.11,0.28-38.75-7.08c-8.64-7.36-27.78-3.98-17.78,11.5
					c9.99,15.48,12.77,11.25,16.94,31.15c4.17,19.9,3.34,24.22,19.73,24.82c16.38,0.6,1.25,28.76,18.41,33.79
					c17.16,5.03,27.39,11.49,26.57,19.91C720.3,525.34,764.1,523.83,764.1,523.83z"/>
				<path class="st31" d="M645.79,402.98c-0.31-0.17-0.43-0.55-0.27-0.86c0.16-0.31,0.55-0.43,0.86-0.27
					c10.1,5.28,21.71,14.83,33.55,26.3c0.13,0.06,0.23,0.16,0.29,0.28c3.5,3.41,7.02,6.98,10.53,10.66l-10.93-27.56
					c-0.13-0.33,0.03-0.7,0.36-0.83c0.33-0.13,0.7,0.03,0.83,0.36l12.11,30.53c0,0,0,0,0,0.01c2.11,2.25,4.22,4.53,6.31,6.84
					c0.15,0.07,0.27,0.2,0.33,0.36c2.24,2.47,4.45,4.96,6.64,7.46l-4.57-36.74c-0.04-0.35,0.21-0.67,0.56-0.71c0,0,0,0,0,0
					c0.35-0.04,0.67,0.21,0.71,0.56l4.81,38.63c1.92,2.21,3.81,4.41,5.68,6.61c0.13,0.07,0.23,0.19,0.28,0.33
					c2.55,3.01,5.04,6,7.46,8.94l-2.9-34.01c-0.03-0.35,0.23-0.68,0.58-0.69c0.35-0.03,0.66,0.23,0.69,0.58l3.05,35.87
					c6.51,7.95,12.46,15.51,17.53,22.1l-0.43-39.46c0-0.35,0.28-0.65,0.63-0.65c0.35,0,0.64,0.28,0.65,0.63l0.45,41.17
					c1.82,2.38,3.52,4.62,5.08,6.69c0.06,0.05,0.1,0.11,0.14,0.18c6.64,8.82,10.69,14.51,10.86,14.74c0.21,0.29,0.14,0.69-0.15,0.89
					c-0.09,0.06-0.19,0.1-0.29,0.11c-0.23,0.03-0.46-0.06-0.6-0.26c-0.16-0.23-4.16-5.85-10.72-14.56l-24.51-0.73
					c-0.35-0.01-0.63-0.3-0.62-0.66c0.01-0.35,0.31-0.63,0.66-0.62l23.48,0.7c-4.13-5.46-9.18-12.03-14.86-19.18
					c-0.09,0.07-0.19,0.13-0.31,0.14c-0.01,0-0.02,0-0.02,0l-31.85,2.77c-0.35,0.03-0.66-0.23-0.69-0.58
					c-0.03-0.35,0.24-0.67,0.58-0.69l31.43-2.73c-4.99-6.27-10.46-12.96-16.2-19.75l-20.41,3.59c-0.01,0-0.02,0-0.03,0
					c-0.34,0.04-0.65-0.19-0.71-0.52c-0.06-0.35,0.17-0.68,0.52-0.74l19.67-3.45c-4.28-5.03-8.71-10.11-13.21-15.09l-24.53-1.36
					c-0.35-0.02-0.62-0.32-0.6-0.67c0.02-0.35,0.32-0.63,0.67-0.6l23.24,1.28c-6.01-6.6-12.15-13.02-18.22-18.92l-19.8-1.05
					c-0.35-0.02-0.62-0.32-0.61-0.67c0.02-0.35,0.32-0.62,0.67-0.61l18.33,0.97C666.59,417.09,655.48,408.05,645.79,402.98z"/>
				<path class="st31" d="M654.31,407.44c-6.84-4.54-19.61-9.63-13.25-14.37c-4.4,1.95-6.47,6.61-1.59,14.17
					c9.99,15.48,12.77,11.25,16.94,31.15c4.17,19.9,3.34,24.22,19.73,24.82c16.38,0.6,1.25,28.76,18.41,33.79
					c17.16,5.03,27.39,11.49,26.57,19.91c-0.81,8.43,37.72,7.01,37.72,7.01S697.28,435.91,654.31,407.44z"/>
			</g>
			<g>
				<g>
					<path class="st4" d="M128.05,409.54c0.31,4.25,14.74,3.92,17.73,7.72c2.67,3.4-0.65,15.47,4,16.83
						c4.65,1.37,8.38-10.58,12.46-12c4.57-1.58,16.53,6.5,19.09,3.09c2.56-3.4-9.29-13.31-9.23-17.84c0.04-3.58,9.34-6.26,6.27-9.73
						c-2.69-3.03-14.41-0.63-17.29,0.02l2.64-7.59l-0.62-0.18l-0.62-0.18l-0.62-0.18l-1.88,7.81c-2.08-2.1-10.64-10.46-14.54-9.36
						c-4.46,1.26,1.91,8.54,0.02,11.58C143.06,403.37,127.74,405.3,128.05,409.54z"/>
					<path class="st38" d="M126.94,404.27c0.31,4.25,14.74,3.92,17.73,7.72c2.67,3.4-0.65,15.47,4,16.83
						c4.65,1.37,8.38-10.58,12.46-12c4.57-1.58,16.53,6.5,19.09,3.09c2.56-3.4-9.29-13.31-9.23-17.84c0.04-3.58,9.34-6.26,6.27-9.73
						c-2.69-3.03-14.41-0.63-17.29,0.02l2.64-7.59l-0.62-0.18l-0.62-0.18l-0.62-0.18l-1.88,7.81c-2.08-2.1-10.64-10.46-14.54-9.36
						c-4.46,1.26,1.91,8.54,0.02,11.58C141.95,398.09,126.63,400.02,126.94,404.27z"/>
					<polygon class="st21" points="158.55,395.94 172.12,395.13 160.86,398.09 170.01,412.67 158.35,399.72 152.13,421.71 
						156.16,399.67 137.63,404.44 155.5,396.94 146.42,387.84 					"/>
				</g>
				<g>
					<path class="st4" d="M416.74,463.97c2.05,2.29,10.17-4.26,13.55-3.4c3.03,0.77,6.45,9.14,9.71,7.87
						c3.26-1.27,0.13-9.75,1.84-12.37c1.92-2.92,12.33-3.57,12.29-6.65c-0.04-3.08-11.19-3.52-13.15-6.14
						c-1.55-2.07,2.58-7.7-0.7-8.34c-2.87-0.55-8.52,5.99-9.89,7.64l-1.83-5.51l-0.44,0.17l-0.44,0.17l-0.44,0.17l2.37,5.3
						c-2.12-0.29-10.7-1.3-12.45,1.05c-2,2.68,4.86,4.05,5.12,6.62C422.61,453.81,414.69,461.68,416.74,463.97z"/>
					<path class="st38" d="M413.78,461.44c2.05,2.29,10.17-4.26,13.55-3.4c3.03,0.77,6.45,9.14,9.71,7.87
						c3.26-1.27,0.13-9.75,1.84-12.37c1.92-2.92,12.33-3.57,12.29-6.65c-0.04-3.07-11.19-3.52-13.15-6.14
						c-1.55-2.07,2.58-7.7-0.7-8.34c-2.87-0.55-8.52,5.99-9.89,7.64l-1.84-5.51l-0.44,0.17l-0.44,0.17l-0.44,0.17l2.37,5.3
						c-2.12-0.29-10.7-1.3-12.45,1.05c-2,2.68,4.86,4.05,5.12,6.62C419.65,451.29,411.73,459.15,413.78,461.44z"/>
					<polygon class="st21" points="428.2,442.73 435.6,436.29 430.46,442.95 442.14,447.26 429.75,444.99 435.89,460.32 
						428.47,445.92 419.98,456.82 426.89,444.65 417.68,443.45 					"/>
				</g>
				<g>
					<path class="st4" d="M225.27,473.34c2.02,1.2,6.42-5.43,9.08-5.59c2.38-0.14,6.79,5.17,8.88,3.5c2.08-1.67-2.15-7.13-1.5-9.42
						c0.73-2.57,8.15-5.43,7.42-7.66c-0.73-2.23-8.95,0.01-10.98-1.45c-1.6-1.15,0.11-6.2-2.42-5.91c-2.22,0.26-4.83,6.32-5.44,7.82
						l-2.6-3.59l-0.28,0.22l-0.28,0.22l-0.28,0.22l2.94,3.31c-1.61,0.28-8.08,1.51-8.82,3.62c-0.84,2.41,4.47,1.83,5.24,3.64
						C227.21,464.61,223.25,472.15,225.27,473.34z"/>
					<path class="st39" d="M225.27,470.12c2.02,1.2,6.42-5.43,9.08-5.58c2.38-0.14,6.79,5.17,8.88,3.5c2.08-1.67-2.15-7.13-1.5-9.42
						c0.73-2.57,8.15-5.43,7.42-7.66c-0.73-2.23-8.95,0.01-10.98-1.45c-1.6-1.15,0.11-6.2-2.42-5.91c-2.22,0.26-4.83,6.32-5.44,7.82
						l-2.6-3.59l-0.28,0.22l-0.28,0.22l-0.28,0.22l2.94,3.31c-1.61,0.28-8.08,1.51-8.82,3.62c-0.84,2.41,4.47,1.83,5.24,3.64
						C227.21,461.38,223.25,468.92,225.27,470.12z"/>
					<polygon class="st21" points="231.47,453.2 235.38,446.81 233.16,452.83 242.65,453.29 233.11,454.48 241.1,464.23 
						232.4,455.45 228.72,465.34 230.96,454.89 223.98,456.13 					"/>
				</g>
				<g>
					<path class="st4" d="M393.62,425.27c1.52,0.9,4.84-4.09,6.84-4.21c1.79-0.1,5.12,3.9,6.69,2.64c1.57-1.26-1.62-5.37-1.13-7.1
						c0.55-1.93,6.14-4.09,5.59-5.77c-0.55-1.68-6.74,0-8.27-1.09c-1.21-0.86,0.08-4.67-1.83-4.45c-1.67,0.2-3.64,4.76-4.1,5.9
						l-1.96-2.7l-0.21,0.17l-0.21,0.17l-0.21,0.17l2.22,2.5c-1.21,0.21-6.09,1.14-6.64,2.73c-0.63,1.82,3.37,1.38,3.95,2.74
						C395.08,418.69,392.1,424.37,393.62,425.27z"/>
					<path class="st39" d="M393.62,422.84c1.52,0.9,4.84-4.09,6.84-4.21c1.79-0.1,5.12,3.9,6.69,2.64c1.57-1.26-1.62-5.37-1.13-7.1
						c0.55-1.93,6.14-4.09,5.59-5.77c-0.55-1.68-6.74,0-8.27-1.09c-1.21-0.86,0.08-4.67-1.83-4.45c-1.67,0.2-3.64,4.76-4.1,5.9
						l-1.96-2.7l-0.21,0.17l-0.21,0.17l-0.21,0.17l2.22,2.5c-1.21,0.21-6.09,1.14-6.64,2.73c-0.63,1.82,3.37,1.38,3.95,2.74
						C395.08,416.26,392.1,421.94,393.62,422.84z"/>
					<polygon class="st21" points="398.29,410.09 401.24,405.27 399.57,409.81 406.72,410.16 399.53,411.06 405.55,418.4 
						398.99,411.79 396.22,419.24 397.91,411.37 392.65,412.3 					"/>
				</g>
				<g>
					<path class="st40" d="M259.24,405.25c2.02,1.2,6.42-5.43,9.08-5.58c2.38-0.14,6.79,5.17,8.88,3.5c2.08-1.67-2.15-7.13-1.5-9.42
						c0.72-2.57,8.15-5.43,7.42-7.66c-0.73-2.23-8.95,0.01-10.98-1.45c-1.61-1.15,0.11-6.2-2.43-5.91
						c-2.22,0.26-4.82,6.32-5.44,7.82l-2.6-3.59l-0.28,0.22l-0.28,0.22l-0.28,0.22l2.94,3.31c-1.61,0.28-8.08,1.51-8.82,3.62
						c-0.84,2.41,4.47,1.83,5.24,3.64C261.18,396.52,257.22,404.05,259.24,405.25z"/>
					<path class="st38" d="M256.16,403.62c2.02,1.2,6.42-5.43,9.08-5.58c2.38-0.14,6.79,5.17,8.88,3.5c2.08-1.67-2.15-7.13-1.5-9.42
						c0.72-2.57,8.15-5.43,7.42-7.66c-0.73-2.23-8.95,0.01-10.98-1.45c-1.61-1.15,0.11-6.2-2.43-5.91
						c-2.22,0.26-4.82,6.32-5.44,7.82l-2.6-3.59l-0.28,0.22l-0.28,0.22l-0.28,0.22l2.94,3.31c-1.61,0.28-8.08,1.51-8.82,3.62
						c-0.84,2.41,4.47,1.83,5.24,3.64C258.1,394.88,254.14,402.42,256.16,403.62z"/>
					<polygon class="st21" points="262.36,386.7 266.26,380.31 264.05,386.33 273.53,386.79 264,387.98 271.99,397.73 
						263.29,388.95 259.61,398.84 261.84,388.39 254.87,389.63 					"/>
				</g>
				<g>
					<path class="st40" d="M462.21,403.05c0.05,1.74,5.93,1.86,7.08,3.47c1.03,1.43-0.55,6.29,1.32,6.93
						c1.87,0.64,3.6-4.16,5.3-4.66c1.89-0.56,6.62,2.95,7.72,1.61c1.1-1.34-3.54-5.59-3.43-7.44c0.08-1.46,3.92-2.38,2.73-3.85
						c-1.04-1.28-5.86-0.52-7.04-0.31l1.21-3.04l-0.25-0.09l-0.25-0.09l-0.25-0.09l-0.91,3.15c-0.81-0.89-4.14-4.45-5.75-4.08
						c-1.84,0.43,0.62,3.51-0.2,4.72C468.44,400.81,462.16,401.32,462.21,403.05z"/>
					<path class="st38" d="M462.01,400.48c0.05,1.74,5.93,1.86,7.08,3.47c1.03,1.43-0.55,6.29,1.32,6.93
						c1.87,0.64,3.6-4.16,5.3-4.66c1.89-0.56,6.61,2.95,7.72,1.61c1.1-1.34-3.54-5.59-3.43-7.44c0.08-1.46,3.92-2.38,2.73-3.85
						c-1.04-1.28-5.86-0.52-7.04-0.31l1.21-3.04l-0.25-0.09l-0.25-0.09l-0.25-0.09l-0.91,3.15c-0.81-0.89-4.14-4.45-5.75-4.08
						c-1.84,0.43,0.62,3.51-0.2,4.72C468.24,398.24,461.96,398.75,462.01,400.48z"/>
					<polygon class="st21" points="475.04,397.66 480.58,397.58 475.94,398.58 479.4,404.69 474.89,399.2 471.95,408.04 
						473.99,399.14 466.36,400.75 473.78,398.01 470.24,394.14 					"/>
				</g>
				<g>
					<path class="st40" d="M427.14,328.43c-1.06,1.37,3.41,5.19,3.29,7.16c-0.11,1.76-4.4,4.52-3.36,6.2
						c1.04,1.68,5.42-0.94,7.05-0.26c1.82,0.76,3.26,6.46,4.96,6.12c1.7-0.34,0.79-6.57,2.04-7.93c0.98-1.07,4.54,0.63,4.55-1.25
						c0.01-1.65-4.21-4.1-5.26-4.69l2.86-1.59l-0.14-0.23l-0.14-0.22l-0.14-0.23l-2.69,1.86c-0.06-1.2-0.39-6.07-1.87-6.79
						c-1.69-0.83-1.74,3.11-3.14,3.52C433.38,330.63,428.2,327.05,427.14,328.43z"/>
					<path class="st39" d="M425.59,327.05c-1.06,1.37,3.41,5.19,3.29,7.16c-0.11,1.76-4.4,4.52-3.36,6.2
						c1.04,1.68,5.42-0.94,7.05-0.26c1.82,0.76,3.26,6.46,4.96,6.12c1.7-0.34,0.79-6.57,2.04-7.93c0.98-1.07,4.54,0.63,4.55-1.25
						c0.01-1.65-4.21-4.1-5.26-4.69l2.86-1.59l-0.14-0.23l-0.14-0.22l-0.14-0.23l-2.69,1.86c-0.06-1.2-0.39-6.07-1.87-6.79
						c-1.69-0.83-1.74,3.11-3.14,3.52C431.83,329.25,426.65,325.68,425.59,327.05z"/>
					<polygon class="st21" points="437.45,333.11 441.79,336.54 437.57,334.38 436.39,341.3 436.36,334.2 428.5,339.19 
						435.71,333.59 428.79,330.01 436.25,332.58 435.97,327.35 					"/>
				</g>
				<g>
					<path class="st41" d="M167.9,201.51c0.33-1.41-4.4-2.77-4.99-4.31c-0.52-1.38,1.78-4.97,0.41-5.89
						c-1.38-0.92-3.8,2.6-5.27,2.64c-1.65,0.05-4.72-3.79-5.9-2.94c-1.18,0.85,1.67,5.27,1.19,6.74c-0.38,1.16-3.68,1.09-3.03,2.53
						c0.57,1.26,4.63,1.67,5.63,1.75l-1.63,2.2l0.18,0.12l0.18,0.12l0.18,0.12l1.4-2.35c0.46,0.9,2.4,4.48,3.78,4.52
						c1.58,0.04,0.24-2.97,1.17-3.77C162.39,201.99,167.57,202.92,167.9,201.51z"/>
					<polygon class="st21" points="156.77,201.01 152.27,199.9 156.23,200.08 154.74,194.4 157.22,199.8 161.47,193.27 
						157.92,200.04 164.44,200.36 157.86,200.99 159.89,204.88 					"/>
				</g>
				<g>
					<path class="st41" d="M140.49,130.93c-0.97-0.39-2.46,2.81-3.62,3.06c-1.04,0.22-3.33-1.82-4.14-0.95
						c-0.81,0.87,1.42,2.99,1.28,4.04c-0.15,1.18-3.22,2.93-2.76,3.86c0.47,0.93,3.93-0.59,4.93-0.09c0.78,0.4,0.36,2.73,1.46,2.44
						c0.96-0.26,1.7-3.1,1.88-3.8l1.38,1.41l0.11-0.12l0.11-0.12l0.11-0.12l-1.51-1.26c0.69-0.23,3.46-1.2,3.64-2.18
						c0.21-1.12-2.09-0.51-2.55-1.25C140.22,134.9,141.46,131.32,140.49,130.93z"/>
					<polygon class="st21" points="138.89,138.78 137.59,141.85 138.17,139.05 133.96,139.48 138.08,138.32 133.92,134.57 
						138.33,137.85 139.29,133.26 139,138 141.99,137 					"/>
				</g>
				<g>
					<path class="st41" d="M29.57,136.52c-0.65,1.2,3.29,3.61,3.43,5.15c0.13,1.38-2.86,4.05-1.84,5.22
						c1.01,1.17,4.09-1.39,5.44-1.07c1.5,0.37,3.32,4.62,4.6,4.14c1.28-0.47-0.19-5.19,0.61-6.4c0.63-0.96,3.6-0.06,3.38-1.53
						c-0.2-1.28-3.77-2.67-4.66-3l2.03-1.58l-0.14-0.16l-0.14-0.16l-0.14-0.16l-1.86,1.78c-0.19-0.93-1.05-4.66-2.29-5.04
						c-1.42-0.44-0.97,2.63-2,3.12C34.68,137.46,30.22,135.32,29.57,136.52z"/>
					<polygon class="st21" points="39.52,139.77 43.31,141.9 39.77,140.74 39.7,146.26 38.81,140.75 33.32,145.59 38.23,140.35 
						32.42,138.42 38.53,139.5 37.66,135.48 					"/>
				</g>
				<g>
					<path class="st39" d="M594.14,128.01c-2.81,0.81-0.56,10.47-2.7,13.02c-1.91,2.28-10.5,1.74-10.76,5.06
						c-0.27,3.32,8.3,4.15,9.83,6.7c1.71,2.85-2.04,12.04,0.61,13.28c2.65,1.24,7.65-8.13,10.71-8.72c2.41-0.47,5.53,5.41,7.43,2.85
						c1.67-2.23-1.6-9.78-2.44-11.63l5.48,0.71l0.03-0.45l0.04-0.44l0.03-0.45l-5.52-0.16c1.13-1.69,5.54-8.63,4.25-11.1
						c-1.47-2.82-5.48,2.49-7.79,1.64C600.41,137.24,596.95,127.2,594.14,128.01z"/>
					<polygon class="st21" points="604.19,148.11 606.65,157.13 603.07,149.96 594.54,158.18 601.62,148.5 585.95,147.41 
						601.35,147.03 595.53,135.23 603.09,146.2 607.94,138.81 					"/>
				</g>
				<g>
					<path class="st4" d="M565.87,333.39c0.82,1.34,5.5-1.19,7.12-0.45c1.45,0.67,2.39,5.19,4.15,4.86
						c1.76-0.33,0.97-4.89,2.08-6.04c1.23-1.29,6.53-0.65,6.79-2.2c0.27-1.55-5.29-2.81-6.04-4.31c-0.59-1.18,2.02-3.63,0.42-4.25
						c-1.39-0.55-4.84,2.22-5.68,2.91l-0.41-2.94l-0.24,0.05l-0.24,0.04l-0.24,0.05l0.7,2.88c-1.04-0.34-5.26-1.65-6.35-0.63
						c-1.25,1.16,2.07,2.49,1.95,3.8C569.77,328.83,565.06,332.04,565.87,333.39z"/>
					<path class="st39" d="M565.3,331.43c0.82,1.34,5.5-1.19,7.12-0.45c1.45,0.67,2.39,5.19,4.15,4.86
						c1.76-0.33,0.97-4.89,2.08-6.04c1.23-1.29,6.53-0.65,6.79-2.2c0.27-1.55-5.29-2.81-6.04-4.31c-0.59-1.18,2.02-3.63,0.42-4.25
						c-1.39-0.55-4.84,2.22-5.68,2.91l-0.41-2.94l-0.24,0.05l-0.24,0.04l-0.24,0.05l0.7,2.88c-1.04-0.34-5.26-1.65-6.35-0.63
						c-1.25,1.16,2.07,2.49,1.95,3.8C569.19,326.87,564.48,330.09,565.3,331.43z"/>
					<polygon class="st21" points="574.28,323.37 578.6,320.82 575.4,323.69 580.87,326.94 574.85,324.65 576.51,332.92 574.12,325 
						568.84,329.69 573.45,324.22 568.93,322.75 					"/>
				</g>
				<g>
					<path class="st38" d="M624.51,52.21c1.77,2.07,9.09-3.56,12.07-2.72c2.67,0.75,5.52,8.23,8.44,7.17
						c2.91-1.05,0.32-8.63,1.89-10.91c1.76-2.55,10.99-2.9,11.02-5.63c0.03-2.72-9.83-3.35-11.52-5.72
						c-1.33-1.86,2.45-6.77-0.44-7.4c-2.53-0.55-7.67,5.13-8.92,6.55l-1.51-4.92l-0.39,0.14l-0.39,0.14l-0.39,0.14l1.99,4.74
						c-1.87-0.3-9.45-1.38-11.05,0.67c-1.83,2.34,4.22,3.69,4.39,5.97C629.92,43.35,622.75,50.14,624.51,52.21z"/>
					<polygon class="st21" points="637.68,35.95 644.37,30.4 639.68,36.19 649.92,40.25 639,37.98 644.11,51.69 637.85,38.78 
						630.1,48.26 636.48,37.63 628.35,36.36 					"/>
				</g>
				<g>
					<path class="st38" d="M384.55,125.73c-0.78,2.61,7.92,5.71,8.84,8.66c0.82,2.65-3.92,9.1-1.45,10.98
						c2.47,1.88,7.42-4.41,10.19-4.33c3.1,0.1,8.4,7.66,10.71,6.21c2.31-1.45-2.52-10.08-1.45-12.78c0.84-2.13,7.02-1.61,5.97-4.38
						c-0.91-2.43-8.47-3.67-10.34-3.94l3.31-3.93l-0.33-0.25l-0.33-0.25l-0.33-0.25l-2.91,4.24c-0.76-1.73-3.97-8.68-6.55-8.92
						c-2.95-0.27-0.81,5.54-2.63,6.92C394.93,125.47,385.33,123.12,384.55,125.73z"/>
					<polygon class="st21" points="405.35,127.97 413.64,130.59 406.23,129.78 408.37,140.59 404.36,130.18 395.62,141.91 
						403.06,129.65 390.9,128.28 403.29,127.87 399.94,120.36 					"/>
				</g>
				<g>
					<path class="st39" d="M248.28,176.04c1.25-0.9-1.59-5.27-0.99-6.91c0.54-1.47,4.88-2.73,4.41-4.42
						c-0.46-1.69-4.84-0.57-6.05-1.56c-1.35-1.1-1.13-6.31-2.67-6.45c-1.53-0.14-2.33,5.37-3.73,6.22
						c-1.11,0.66-3.69-1.68-4.18-0.08c-0.42,1.4,2.54,4.55,3.28,5.31l-2.83,0.63l0.06,0.23l0.06,0.23l0.06,0.23l2.76-0.9
						c-0.25,1.04-1.2,5.25-0.12,6.24c1.23,1.13,2.26-2.21,3.55-2.2C243.54,172.6,247.04,176.94,248.28,176.04z"/>
					<polygon class="st21" points="239.74,167.91 236.92,163.89 239.96,166.79 242.71,161.22 240.94,167.25 248.87,165 
						241.34,167.94 246.31,172.72 240.62,168.66 239.55,173.17 					"/>
				</g>
				<g>
					<path class="st39" d="M32.77,273.82c0.99-0.72-1.27-4.21-0.79-5.51c0.43-1.17,3.89-2.18,3.52-3.52s-3.86-0.45-4.82-1.24
						c-1.08-0.88-0.91-5.03-2.13-5.14c-1.22-0.11-1.86,4.29-2.98,4.96c-0.88,0.53-2.95-1.34-3.33-0.07
						c-0.34,1.12,2.02,3.63,2.62,4.23l-2.26,0.5l0.05,0.18l0.05,0.18l0.05,0.18l2.2-0.72c-0.2,0.83-0.96,4.19-0.1,4.98
						c0.98,0.9,1.81-1.76,2.84-1.75C28.99,271.08,31.77,274.54,32.77,273.82z"/>
					<polygon class="st21" points="25.95,267.33 23.7,264.13 26.13,266.45 28.32,262 26.91,266.81 33.24,265.02 27.23,267.36 
						31.19,271.18 26.66,267.93 25.8,271.53 					"/>
				</g>
				<g>
					<path class="st29" d="M59.01,82.13c-0.95,1.07,2.51,4.49,2.29,6.1c-0.2,1.45-3.9,3.48-3.14,4.92c0.76,1.45,4.53-0.46,5.83,0.2
						c1.46,0.73,2.31,5.53,3.73,5.35c1.42-0.18,1.04-5.37,2.15-6.42c0.88-0.83,3.71,0.79,3.83-0.77c0.1-1.36-3.23-3.63-4.06-4.18
						l2.46-1.14l-0.1-0.19l-0.1-0.19l-0.1-0.19l-2.33,1.38c0.02-1,0.03-5.03-1.15-5.72c-1.35-0.78-1.62,2.47-2.8,2.72
						C64.03,84.31,59.96,81.06,59.01,82.13z"/>
					<polygon class="st21" points="68.45,87.82 71.83,90.92 68.47,88.88 67.09,94.52 67.48,88.66 60.7,92.32 66.98,88.12 
						61.48,84.76 67.49,87.32 67.56,82.99 					"/>
				</g>
			</g>
			<g>
				<path class="st42" d="M291.36,266.05c2.33,0,4.67,0,7,0"/>
				<path class="st42" d="M313.36,258.55c2.33,0,4.67,0,7,0"/>
				<path class="st42" d="M269.86,259.55c2.33,0,4.67,0,7,0"/>
				<path class="st42" d="M236.86,267.05c2.33,0,4.67,0,7,0"/>
				<path class="st42" d="M210.36,256.55c2.33,0,4.67,0,7,0"/>
				<path class="st42" d="M183.36,268.05c2.33,0,4.67,0,7,0"/>
				<path class="st42" d="M150.51,261.55c2.33,0,4.67,0,7,0"/>
				<path class="st42" d="M4.36,267.55c2.33,0,4.67,0,7,0"/>
				<g>
					<path class="st42" d="M181.86,280.05c2.33,0,4.67,0,7,0"/>
					<path class="st42" d="M155.36,269.55c2.33,0,4.67,0,7,0"/>
					<path class="st42" d="M128.36,281.05c2.33,0,4.67,0,7,0"/>
					<path class="st42" d="M95.51,274.55c2.33,0,4.67,0,7,0"/>
				</g>
				<g>
					<path class="st42" d="M108.86,300.55c2.33,0,4.67,0,7,0"/>
					<path class="st42" d="M82.36,290.05c2.33,0,4.67,0,7,0"/>
					<path class="st42" d="M85.86,319.55c2.33,0,4.67,0,7,0"/>
					<path class="st42" d="M22.51,295.05c2.33,0,4.67,0,7,0"/>
				</g>
				<g>
					<path class="st42" d="M293.86,294.55c2.33,0,4.67,0,7,0"/>
					<path class="st42" d="M267.36,284.05c2.33,0,4.67,0,7,0"/>
					<path class="st42" d="M240.36,295.55c2.33,0,4.67,0,7,0"/>
					<path class="st42" d="M207.51,289.05c2.33,0,4.67,0,7,0"/>
				</g>
				<g>
					<path class="st42" d="M428.18,290.55c2.33,0,4.67,0,7,0"/>
					<path class="st42" d="M401.68,280.05c2.33,0,4.67,0,7,0"/>
					<path class="st42" d="M374.68,291.55c2.33,0,4.67,0,7,0"/>
					<path class="st42" d="M341.83,285.05c2.33,0,4.67,0,7,0"/>
				</g>
				<g>
					<path class="st42" d="M276.54,317.51c2.33,0,4.67,0,7,0"/>
					<path class="st42" d="M250.04,307.01c2.33,0,4.67,0,7,0"/>
					<path class="st42" d="M223.04,318.51c2.33,0,4.67,0,7,0"/>
					<path class="st42" d="M190.18,312.01c2.33,0,4.67,0,7,0"/>
				</g>
				<g>
					<path class="st42" d="M380.54,326.35c2.33,0,4.67,0,7,0"/>
					<path class="st42" d="M354.04,315.85c2.33,0,4.67,0,7,0"/>
					<path class="st42" d="M327.04,327.35c2.33,0,4.67,0,7,0"/>
					<path class="st42" d="M294.18,320.85c2.33,0,4.67,0,7,0"/>
				</g>
				<g>
					<path class="st42" d="M122.86,331.55c2.33,0,4.67,0,7,0"/>
					<path class="st42" d="M172.86,314.05c2.33,0,4.67,0,7,0"/>
					<path class="st42" d="M145.86,324.55c2.33,0,4.67,0,7,0"/>
					<path class="st42" d="M113.01,318.62c2.33,0,4.67,0,7,0"/>
				</g>
				<g>
					<path class="st42" d="M418.36,270.05c2.33,0,4.67,0,7,0"/>
					<path class="st42" d="M391.86,259.55c2.33,0,4.67,0,7,0"/>
					<path class="st42" d="M364.86,271.05c2.33,0,4.67,0,7,0"/>
					<path class="st42" d="M332.01,264.55c2.33,0,4.67,0,7,0"/>
				</g>
				<g>
					<path class="st42" d="M435.36,288.55c2.33,0,4.67,0,7,0"/>
					<path class="st42" d="M423.86,256.55c2.33,0,4.67,0,7,0"/>
					<path class="st42" d="M396.86,268.05c2.33,0,4.67,0,7,0"/>
					<path class="st42" d="M364.01,261.55c2.33,0,4.67,0,7,0"/>
				</g>
				<g>
					<path class="st42" d="M674.99,282.81c2.33,0,4.67,0,7,0"/>
					<path class="st42" d="M674.99,263.21c2.33,0,4.67,0,7,0"/>
					<path class="st42" d="M659.99,271.31c2.33,0,4.67,0,7,0"/>
					<path class="st42" d="M557.82,295.8c2.33,0,4.67,0,7,0"/>
					<path class="st42" d="M632.99,282.81c2.33,0,4.67,0,7,0"/>
					<path class="st42" d="M644.23,260.05c2.33,0,4.67,0,7,0"/>
					<path class="st42" d="M623.49,268.65c2.33,0,4.67,0,7,0"/>
					<path class="st42" d="M600.14,276.31c2.33,0,4.67,0,7,0"/>
				</g>
				<g>
					<path class="st42" d="M522.03,292.27c2.33,0,4.67,0,7,0"/>
					<path class="st42" d="M510.53,260.27c2.33,0,4.67,0,7,0"/>
					<path class="st42" d="M483.53,271.77c2.33,0,4.67,0,7,0"/>
					<path class="st42" d="M450.67,265.27c2.33,0,4.67,0,7,0"/>
				</g>
				<g>
					<path class="st42" d="M601.02,295.21c2.33,0,4.67,0,7,0"/>
					<path class="st42" d="M589.52,263.21c2.33,0,4.67,0,7,0"/>
					<path class="st42" d="M562.52,274.71c2.33,0,4.67,0,7,0"/>
					<path class="st42" d="M529.66,268.21c2.33,0,4.67,0,7,0"/>
				</g>
				<g>
					<path class="st42" d="M367.36,282.05c2.33,0,4.67,0,7,0"/>
					<path class="st42" d="M340.86,271.55c2.33,0,4.67,0,7,0"/>
					<path class="st42" d="M313.86,283.05c2.33,0,4.67,0,7,0"/>
					<path class="st42" d="M281.01,276.55c2.33,0,4.67,0,7,0"/>
				</g>
				<g>
					<path class="st42" d="M360.04,306.05c2.33,0,4.67,0,7,0"/>
					<path class="st42" d="M333.54,295.55c2.33,0,4.67,0,7,0"/>
					<path class="st42" d="M306.54,307.05c2.33,0,4.67,0,7,0"/>
					<path class="st42" d="M273.68,300.55c2.33,0,4.67,0,7,0"/>
				</g>
				<g>
					<path class="st42" d="M250.45,336.07c2.33,0,4.67,0,7,0"/>
					<path class="st42" d="M223.95,325.57c2.33,0,4.67,0,7,0"/>
					<path class="st42" d="M196.95,337.07c2.33,0,4.67,0,7,0"/>
					<path class="st42" d="M164.09,330.57c2.33,0,4.67,0,7,0"/>
				</g>
				<g>
					<path class="st42" d="M316.63,347.57c2.33,0,4.67,0,7,0"/>
					<path class="st42" d="M290.13,337.07c2.33,0,4.67,0,7,0"/>
					<path class="st42" d="M263.13,348.57c2.33,0,4.67,0,7,0"/>
					<path class="st42" d="M230.27,342.07c2.33,0,4.67,0,7,0"/>
				</g>
				<g>
					<path class="st42" d="M179.86,298.05c2.33,0,4.67,0,7,0"/>
					<path class="st42" d="M153.36,287.55c2.33,0,4.67,0,7,0"/>
					<path class="st42" d="M126.36,299.05c2.33,0,4.67,0,7,0"/>
					<path class="st42" d="M93.51,292.55c2.33,0,4.67,0,7,0"/>
				</g>
				<g>
					<path class="st42" d="M441.36,260.05c2.33,0,4.67,0,7,0"/>
					<path class="st42" d="M441.36,272.05c2.33,0,4.67,0,7,0"/>
					<path class="st42" d="M414.36,283.55c2.33,0,4.67,0,7,0"/>
					<path class="st42" d="M381.51,277.05c2.33,0,4.67,0,7,0"/>
				</g>
				<g>
					<path class="st42" d="M559.02,260.05c2.33,0,4.67,0,7,0"/>
					<path class="st42" d="M529.66,256.8c2.33,0,4.67,0,7,0"/>
					<path class="st42" d="M616.49,255.05c2.33,0,4.67,0,7,0"/>
					<path class="st42" d="M502.66,268.3c2.33,0,4.67,0,7,0"/>
					<path class="st42" d="M469.81,261.8c2.33,0,4.67,0,7,0"/>
				</g>
				<g>
					<path class="st42" d="M505.52,278.8c2.33,0,4.67,0,7,0"/>
					<path class="st42" d="M505.52,290.8c2.33,0,4.67,0,7,0"/>
					<path class="st42" d="M478.52,302.3c2.33,0,4.67,0,7,0"/>
					<path class="st42" d="M445.67,295.8c2.33,0,4.67,0,7,0"/>
				</g>
			</g>
		</g>
	</g>
</g>
</svg>
