<svg xmlns="http://www.w3.org/2000/svg" xmlns:xlink="http://www.w3.org/1999/xlink" viewBox="0 0 500 500"><style>.st2{fill:#c8e3e3}</style><path fill="#b4ddd8" d="M0 0h500v500H0z"/><defs><path id="SVGID_1_" d="M0 0h500v500H0z"/></defs><clipPath id="SVGID_2_"><use overflow="visible" xlink:href="#SVGID_1_"/></clipPath><g clip-path="url(#SVGID_2_)"><path d="M408.25 115.63s-9.26-7.4-17.77 0c-6.76 5.88-2.5 15.46-2.5 15.46s-11.48 5.18-10.37 14.53c1.11 9.35 10.83 9.44 10.83 9.44s1.67 5.83 6.48 6.85c4.81 1.02 7.59-1.48 7.59-1.48s6.29 7.03 15.18 4.16 12.03-12.31 12.03-12.31 8.29.72 11.26-4.16c4.11-6.76 0-12.49 0-12.49s7.16-8.33 1.33-15.64c-5.83-7.31-14.44-1.3-14.44-1.3s-2.13-6.29-8.61-7.03c-6.47-.75-11.01 3.97-11.01 3.97zM53.48 280.88s-9.26-7.4-17.77 0c-6.76 5.88-2.5 15.46-2.5 15.46s-11.48 5.18-10.37 14.53c1.11 9.35 10.83 9.44 10.83 9.44s1.67 5.83 6.48 6.85 7.59-1.48 7.59-1.48 6.29 7.03 15.18 4.16 12.03-12.31 12.03-12.31 8.29.72 11.26-4.16c4.11-6.76 0-12.49 0-12.49s7.16-8.33 1.33-15.64c-5.83-7.31-14.44-1.3-14.44-1.3s-2.13-6.29-8.61-7.03c-6.47-.75-11.01 3.97-11.01 3.97zM79.7 145.67s-.23-5.8 5.54-9.45c7.18-4.55 14.6.7 14.6.7s5.98-4.17 12.44-1.54c6.46 2.63 6.46 11.96 6.46 11.96s10.88.16 11.01 10.65c.1 8.14-11.25 10.17-11.25 10.17s-3 5.86-11.13 6.34c-8.13.48-9.69-5.62-9.69-5.62s-6.22 5.74-14.48 3.23c-8.26-2.51-6.82-9.81-6.82-9.81s-8.68-1.58-6.94-9.93c1.8-8.62 10.26-6.7 10.26-6.7zM33.62 441.91s-.23-5.8 5.54-9.45c7.18-4.55 14.6.7 14.6.7s5.98-4.17 12.44-1.54c6.46 2.63 6.46 11.96 6.46 11.96s10.88.16 11.01 10.65c.1 8.14-11.25 10.17-11.25 10.17s-3 5.86-11.13 6.34c-8.13.48-9.69-5.62-9.69-5.62s-6.22 5.74-14.48 3.23c-8.26-2.51-6.82-9.81-6.82-9.81s-8.68-1.58-6.94-9.93c1.8-8.62 10.26-6.7 10.26-6.7zM462.37 39s-.23-5.8 5.54-9.45c7.18-4.55 14.6.7 14.6.7s5.98-4.17 12.44-1.54c6.46 2.63 6.46 11.96 6.46 11.96s10.88.16 11.01 10.65c.1 8.14-11.25 10.17-11.25 10.17s-3 5.86-11.13 6.34c-8.13.48-9.69-5.62-9.69-5.62s-6.22 5.74-14.48 3.23c-8.26-2.51-6.82-9.81-6.82-9.81s-8.68-1.58-6.94-9.93c1.8-8.62 10.26-6.7 10.26-6.7zM450.29 247.18s.1-3.64 3.38-4.79 6.74 1.78 6.74 1.78 2.93-3.59 7.55-2.95c4.62.64 6.66 4.64 6.22 8.54 0 0 4.08.8 4.88 4.53s-1.33 6-5.24 7.1c0 0-1.15 3.11-5.33 4-4.17.89-8.79-2.57-8.79-2.57s-3.91 3.99-9.41 2.22c-5.5-1.78-4.17-7.01-4.17-7.01s-5.5-.89-4.97-6.14c.61-6.07 6.21-6.13 9.14-4.71zM180.91 467.73s.1-3.64 3.38-4.79 6.74 1.78 6.74 1.78 2.93-3.59 7.55-2.95c4.62.64 6.66 4.64 6.22 8.54 0 0 4.08.8 4.88 4.53.8 3.73-1.33 6-5.24 7.1 0 0-1.15 3.11-5.33 4-4.17.89-8.79-2.57-8.79-2.57s-3.91 3.99-9.41 2.22c-5.5-1.78-4.17-7.01-4.17-7.01s-5.5-.89-4.97-6.14c.61-6.07 6.21-6.13 9.14-4.71zM200.37 286.91s.1-3.64 3.38-4.79 6.74 1.78 6.74 1.78 2.93-3.59 7.55-2.95c4.62.64 6.66 4.64 6.22 8.54 0 0 4.08.8 4.88 4.53.8 3.73-1.33 6-5.24 7.1 0 0-1.15 3.11-5.33 4-4.17.89-8.79-2.57-8.79-2.57s-3.91 3.99-9.41 2.22c-5.5-1.78-4.17-7.01-4.17-7.01s-5.5-.89-4.97-6.14c.61-6.07 6.21-6.13 9.14-4.71zM5.85 188.3s.13-4.91 4.55-6.46c4.42-1.56 9.09 2.39 9.09 2.39s3.95-4.84 10.17-3.97c6.22.86 8.97 6.25 8.37 11.51 0 0 5.5 1.08 6.58 6.1 1.08 5.03-1.8 8.09-7.06 9.57 0 0-1.56 4.19-7.18 5.38-5.62 1.2-11.84-3.47-11.84-3.47s-5.26 5.38-12.68 2.99c-7.42-2.39-5.62-9.45-5.62-9.45s-7.42-1.2-6.7-8.28c.83-8.15 8.37-8.22 12.32-6.31zM229.85 109.64s.13-4.91 4.55-6.46c4.42-1.56 9.09 2.39 9.09 2.39s3.95-4.84 10.17-3.97c6.22.86 8.97 6.25 8.38 11.51 0 0 5.5 1.08 6.58 6.1s-1.8 8.09-7.06 9.57c0 0-1.56 4.19-7.18 5.38-5.62 1.2-11.84-3.47-11.84-3.47s-5.26 5.38-12.68 2.99c-7.42-2.39-5.62-9.45-5.62-9.45s-7.42-1.2-6.7-8.28c.82-8.15 8.36-8.23 12.31-6.31zM314.47 436.97s.13-4.91 4.55-6.46c4.42-1.56 9.09 2.39 9.09 2.39s3.95-4.84 10.17-3.97c6.22.86 8.97 6.25 8.37 11.51 0 0 5.5 1.08 6.58 6.1s-1.8 8.09-7.06 9.57c0 0-1.56 4.19-7.18 5.38s-11.84-3.47-11.84-3.47-5.26 5.38-12.68 2.99c-7.42-2.39-5.62-9.45-5.62-9.45s-7.42-1.2-6.7-8.28c.82-8.15 8.37-8.23 12.32-6.31zM140.24 184.21s-8.1-5.27-16.53.28c-6.62 4.36-5.45 13.8-5.45 13.8s-9.32 2.33-8.51 13.58c.81 11.25 15.1 13.27 19.96 11.14 0 0-2.23 7.4 4.05 12.26 6.28 4.86 15.2-1.82 15.2-1.82s4.51 4.79 11.14 3.6c9.83-1.77 9.83-11.19 9.83-11.19s10.01 1.44 13.27-4.96c5.37-10.54-2.94-14.59-2.94-14.59s5.07-10.44-2.23-17.43-14.99 0-14.99 0-2.03-6.69-9.74-8.39c-7.57-1.69-13.06 3.72-13.06 3.72zM307.31 267.8s-10.47-6.81-21.36.36c-8.56 5.64-7.05 17.83-7.05 17.83s-12.04 3.01-11 17.54c1.05 14.53 19.5 17.15 25.79 14.4 0 0-2.88 9.56 5.24 15.84 8.12 6.28 19.63-2.36 19.63-2.36s5.83 6.19 14.4 4.65c12.7-2.29 12.7-14.46 12.7-14.46s12.93 1.86 17.15-6.41c6.94-13.61-3.8-18.85-3.8-18.85s6.54-13.48-2.88-22.51c-9.42-9.03-19.37 0-19.37 0s-2.62-8.64-12.58-10.85c-9.78-2.17-16.87 4.82-16.87 4.82zM441.11 400.11s-6.9-4.49-14.08.24c-5.64 3.72-4.64 11.75-4.64 11.75s-7.94 1.98-7.25 11.56 12.85 11.3 16.99 9.49c0 0-1.9 6.3 3.45 10.44s12.94-1.55 12.94-1.55 3.84 4.08 9.49 3.06c8.37-1.51 8.37-9.53 8.37-9.53s8.52 1.23 11.3-4.23c4.57-8.97-2.5-12.42-2.5-12.42s4.31-8.89-1.9-14.84c-6.21-5.95-12.77 0-12.77 0s-1.73-5.69-8.29-7.15c-6.44-1.43-11.11 3.18-11.11 3.18zM344.05 189.52s.27-7.71 7.34-9.19 10.35 6.88 10.35 6.88 2.91-5 8.26-4.32c5.35.69 4.98 5.89 4.98 5.89s12.35-3.76 12.23 9.95c0 0 6.68 3.96 5.08 10.11-1.61 6.15-11.43 6.44-11.43 6.44s-1.56 7.97-11.1 8.82c-9.53.85-11.11-5.98-11.11-5.98s-5.84 7.68-16.64 3.3c-8.73-3.54-7-12.35-7-12.35s-8.34-3.01-7.1-11.85c1.24-8.84 12.09-11.3 16.14-7.7zM365.67 72.82s-.61 11.01-10.77 12.91c-10.15 1.9-14.58-10.14-14.58-10.14s-4.31 7.06-11.94 5.92c-7.62-1.15-6.93-8.56-6.93-8.56s-17.77 4.99-17.17-14.59c0 0-9.43-5.87-6.95-14.61 2.48-8.74 16.53-8.85 16.53-8.85s2.48-11.35 16.13-12.27c13.65-.92 15.69 8.88 15.69 8.88s8.58-10.8 23.88-4.22c12.36 5.32 9.63 17.86 9.63 17.86s11.83 4.56 9.78 17.15c-2.04 12.61-17.63 15.79-23.3 10.52zM457.38 286.19s.27-7.71 7.34-9.19c7.07-1.48 10.35 6.88 10.35 6.88s2.91-5 8.26-4.32c5.35.69 4.98 5.89 4.98 5.89s12.35-3.76 12.23 9.95c0 0 6.68 3.96 5.08 10.11-1.61 6.15-11.43 6.44-11.43 6.44s-1.56 7.97-11.1 8.82c-9.53.85-11.11-5.98-11.11-5.98s-5.84 7.68-16.64 3.3c-8.73-3.54-7-12.35-7-12.35s-8.34-3.01-7.1-11.85c1.24-8.84 12.09-11.3 16.14-7.7zM219.37 328.59s.27-7.71 7.34-9.19c7.07-1.48 10.35 6.88 10.35 6.88s2.91-5 8.26-4.32c5.35.69 4.98 5.89 4.98 5.89s12.35-3.76 12.23 9.95c0 0 6.68 3.96 5.08 10.11-1.61 6.15-11.43 6.44-11.43 6.44s-1.56 7.97-11.1 8.82c-9.53.85-11.11-5.98-11.11-5.98s-5.84 7.68-16.64 3.3c-8.73-3.54-7-12.35-7-12.35s-8.34-3.01-7.1-11.85c1.24-8.84 12.09-11.3 16.14-7.7zM64.71 40.19s.27-7.71 7.34-9.19c7.07-1.48 10.35 6.88 10.35 6.88s2.91-5 8.26-4.32c5.35.69 4.98 5.89 4.98 5.89s12.35-3.76 12.23 9.95c0 0 6.68 3.96 5.08 10.11s-11.43 6.44-11.43 6.44-1.56 7.97-11.1 8.82c-9.53.85-11.11-5.98-11.11-5.98s-5.84 7.68-16.64 3.3c-8.73-3.54-7-12.35-7-12.35s-8.34-3.01-7.1-11.85c1.24-8.84 12.1-11.3 16.14-7.7z" class="st2"/></g></svg>

