<?xml version="1.0" encoding="utf-8"?>
<!-- Generator: Adobe Illustrator 24.1.2, SVG Export Plug-In . SVG Version: 6.00 Build 0)  -->
<svg version="1.1" id="Слой_1" xmlns="http://www.w3.org/2000/svg" xmlns:xlink="http://www.w3.org/1999/xlink" x="0px" y="0px"
	 viewBox="0 0 527.73 384.24" style="enable-background:new 0 0 527.73 384.24;" xml:space="preserve">
<style type="text/css">
	.st0{fill:#E3F4FE;}
	.st1{fill:#FFFFFF;}
	.st2{fill:#14242B;}
	.st3{fill:#F4A7B7;}
	.st4{opacity:0.57;fill:#FFFFFF;}
</style>
<g>
	<path class="st0" d="M483.82,145.46c-6.25-1.8-12.7-2.66-19.21-2.84c10.84-25.33,11.86-52.83-13.02-72.78
		c-16.98-13.62-39.88-16.31-60.56-11.02c-6.72,1.72-13.01,4.42-18.98,7.77c-1.13-10.47-3.79-20.73-8.8-30.46
		C350.69,11.77,324.08-1.31,297.16,0.1c-40,2.1-65.71,27.45-81.16,59.65c-3.39-4.56-7.18-8.83-11.53-12.67
		c-20.48-18.14-49.85-26.02-75.15-13.3c-20.7,10.41-33.31,32.74-36.96,55.08c-2.29,13.97-1.29,27.72,0.35,41.46
		c-8.81-3.49-18.23-5.25-28.37-4.24c-24.47,2.44-47.5,17.95-58.06,40.35c-17.43,36.99,3.63,73.82,36.04,88.29
		c-5.42,12.15-4.55,26.66,3.21,38.04c13.44,19.7,33.77,23.56,53.07,18.4c37.6,42.58,90.43,69.54,149.52,72.78
		c50.43,2.76,111.97-14.9,149.69-52.18c5.31,1.52,10.83,2.48,16.5,2.77c20.78,1.07,42.3-8.58,49.71-29.13
		c3.6-9.98,3.08-19.57,0.2-28.63c10.8-2.79,21.12-7.07,30.38-13.55c20.35-14.23,33.81-38.32,33.11-63.42
		C526.97,173.65,508.47,152.56,483.82,145.46z M386.63,271.11c0.16-0.34,0.31-0.69,0.47-1.03c-0.11,0.4-0.24,0.8-0.36,1.2
		C386.7,271.22,386.66,271.17,386.63,271.11z"/>
</g>
<path class="st1" d="M176.62,177.84c-0.47-13.37,9.98-24.59,23.35-25.06c13.37-0.47,24.59,9.98,25.06,23.35
	c0.47,13.37-9.98,24.59-23.35,25.06C188.31,201.66,177.09,191.21,176.62,177.84z"/>
<path class="st2" d="M186.3,177.5c-0.29-8.02,5.99-14.75,14.01-15.04c8.02-0.28,14.75,5.99,15.04,14.01
	c0.28,8.02-5.99,14.75-14.01,15.04C193.32,191.79,186.59,185.52,186.3,177.5z"/>
<path class="st1" d="M203.59,186.58c-0.14-4.01,2.99-7.38,7-7.52c4.01-0.14,7.38,2.99,7.52,7c0.14,4.01-2.99,7.38-7,7.52
	C207.1,193.73,203.73,190.59,203.59,186.58z"/>
<path class="st1" d="M300.07,173.47c-0.47-13.37,9.98-24.59,23.35-25.06c13.37-0.47,24.59,9.98,25.06,23.35
	c0.47,13.37-9.98,24.59-23.35,25.06C311.76,197.29,300.54,186.84,300.07,173.47z"/>
<path class="st2" d="M309.75,173.13c-0.28-8.02,5.99-14.75,14.01-15.04c8.02-0.28,14.75,5.99,15.04,14.01s-5.99,14.75-14.01,15.04
	C316.77,187.42,310.04,181.15,309.75,173.13z"/>
<path class="st1" d="M327.04,182.21c-0.14-4.01,2.99-7.38,7-7.52c4.01-0.14,7.38,2.99,7.52,7c0.14,4.01-2.99,7.38-7,7.52
	C330.55,189.36,327.18,186.22,327.04,182.21z"/>
<g>
	<path class="st2" d="M284.09,235.56c0.5,10.08-6.32,19.75-17.15,19.91c-10.77,0.15-18.29-8.23-18.51-18.65
		c-0.07-3.51-5.52-3.32-5.45,0.19c0.28,13.29,10.44,24.39,24.15,23.9c13.71-0.48,23.06-12.27,22.4-25.55
		C289.36,231.87,283.91,232.05,284.09,235.56L284.09,235.56z"/>
</g>
<path class="st3" d="M138.35,226.45c-0.33-9.36,6.99-17.21,16.34-17.54c9.36-0.33,17.21,6.99,17.54,16.34
	c0.33,9.36-6.99,17.21-16.34,17.54C146.54,243.13,138.68,235.81,138.35,226.45z"/>
<path class="st3" d="M359.88,219.83c-0.33-9.36,6.99-17.21,16.35-17.54c9.36-0.33,17.21,6.99,17.54,16.34
	c0.33,9.36-6.99,17.21-16.35,17.54C368.06,236.5,360.21,229.19,359.88,219.83z"/>
<path class="st4" d="M181.6,44.37c-15.14-10.54-65.61-4.95-75.92,46.31C95.38,141.93,221.35,72.04,181.6,44.37z"/>
<path class="st4" d="M311.36,13.12c-34.14-6.06-67.43,12.08-66.66,33.86c0.77,21.78,100.36,27.96,104.43,6
	C353.2,31.03,333.35,17.02,311.36,13.12z"/>
<path class="st4" d="M391.39,82.99c4.24-17.11,35.62-20.65,55.84,2.87c20.22,23.52,14.32,43.12-3.3,43.74
	C426.99,130.21,385.56,106.5,391.39,82.99z"/>
<path class="st4" d="M80.77,140.03c-14.87-9.17-57.92,6.9-49.89,28.42C38.91,189.98,104.81,154.86,80.77,140.03z"/>
</svg>
