<svg xmlns="http://www.w3.org/2000/svg" viewBox="0 0 750 450" xml:space="preserve"><style>.st0{fill:#ff449e}.st1{fill:#ff8d53}.st2{fill:gold}.st3{fill:#9fcc19}.st4{fill:#00bed8}.st5{fill:#a45eac}.st6{fill:#d9f3f2}.st7{fill:#fff}</style><switch><g><path d="M651.22 161.86C612.5 83.13 511.24 0 365.9 0S119.3 83.13 80.59 161.86c-38.72 78.73-34.96 172.8-34.96 172.8h167.01s-1.01-67.68 24.01-129.26c25.02-61.58 78.03-101.16 129.26-101.16s104.24 39.59 129.26 101.16c25.02 61.58 24.01 129.26 24.01 129.26h167.01c-.01 0 3.75-94.07-34.97-172.8z" class="st0"/><path d="M641.7 334.66c5.03-46.38 3.41-101.92-18.05-153.25C574.32 63.49 457.16 14.77 365.9 14.77c-91.26 0-208.42 48.72-257.75 166.65-21.46 51.32-23.07 106.87-18.05 153.24h122.53s-1.01-67.68 24.01-129.26c25.02-61.58 78.03-101.16 129.26-101.16s104.24 39.59 129.26 101.16c25.02 61.58 24.01 129.26 24.01 129.26H641.7z" class="st1"/><path d="M621.48 334.66c1.27-40.38-4.14-104.66-31.55-160.23C550.89 95.29 467.4 29.78 365.9 29.78S180.92 95.29 141.88 174.43c-27.41 55.57-32.82 119.86-31.55 160.23h102.3s-1.01-67.68 24.01-129.26c25.02-61.58 78.03-101.16 129.26-101.16s104.24 39.59 129.26 101.16c25.02 61.58 24.01 129.26 24.01 129.26h102.31z" class="st2"/><path d="M583.71 334.66c.39-19.48-.16-54.02-6.12-96.36-9.35-66.38-106.93-189.38-208.37-186.34C267.79 55 200.16 109.81 163.81 186.54c-29.15 61.54-28.3 125.28-26.82 148.12h75.63s-1.01-67.68 24.01-129.26c25.02-61.58 78.03-101.16 129.26-101.16s104.24 39.59 129.26 101.16c25.02 61.58 24.01 129.26 24.01 129.26h64.55z" class="st3"/><path d="M560.58 334.66c-.43-15.06-2.69-42.58-10.76-89.66-14.31-83.53-71.75-165.63-167.41-172.17-95.66-6.53-155.04 47.94-193.58 131.98-29.45 64.21-26.19 111.23-23.02 129.85h46.82s-1.01-67.68 24.01-129.26c25.02-61.58 78.03-101.16 129.26-101.16s104.24 39.59 129.26 101.16c25.02 61.58 24.01 129.26 24.01 129.26h41.41z" class="st4"/><path d="M536.17 334.66c-1.26-26.19-4.69-76.67-13.33-112.19-12.14-49.93-53.01-132.14-148.67-133.36-95.66-1.22-149.27 71.25-170.43 143.1-15.35 52.12-16.27 87.13-15.62 102.45h24.52s-1.01-67.68 24.01-129.26c25.02-61.58 78.03-101.16 129.26-101.16s104.24 39.59 129.26 101.16c25.02 61.58 24.01 129.26 24.01 129.26h16.99z" class="st5"/><g><path d="M516.74 307.57s-20.62-12.18-39.58 0c-15.07 9.67-5.57 25.42-5.57 25.42s-25.56 8.53-23.09 23.9c2.47 15.38 24.12 15.53 24.12 15.53s3.71 9.59 14.43 11.27c10.72 1.67 16.91-2.44 16.91-2.44s14.02 11.57 33.81 6.85c19.79-4.72 26.8-20.25 26.8-20.25s18.46 1.19 25.08-6.85c9.15-11.11 0-20.55 0-20.55s15.95-13.7 2.96-25.73c-12.99-12.03-32.16-2.13-32.16-2.13s-4.75-10.34-19.17-11.57c-14.42-1.22-24.54 6.55-24.54 6.55z" class="st6"/><path d="M553.85 302.77s.82-17.25 27.21-24.97c26.39-7.71 52.5 9.74 52.5 9.74s14.29-13.36 34.09-10.56c27.21 3.86 28.04 24.36 28.04 24.36s22.35-3.58 33.81 4.26c18.97 12.99 9.07 29.03 9.07 29.03s18.69 11.37 8.25 25.58c-10.45 14.21-35.74 9.95-35.74 9.95s-14.29 19.49-45.91 5.28c0 0-8.8 16.44-35.74 16.24-26.94-.2-36.29-14.21-36.29-14.21s-21.17 10.15-40.68-2.03c-19.52-12.18-11.27-26.18-11.27-26.18s-28.31-8.93-25.84-28.01c2.49-19.09 38.5-18.48 38.5-18.48z" class="st7"/><path d="M633.17 287.29c-3.23-2.05-26.29-15.87-50.12-10.01 12.51-.37 32.17 1.68 49.56 14.93 0 .01 1.58-1.91.56-4.92zM695.63 300.61c-.45-3.63-3.75-19.72-26.98-23.45 9 3.41 21.8 11.15 23.27 28.61 0 0 2.21-1.94 3.71-5.16zM738.58 334.64s8.1-13.13-4.41-25.25c3.59 6.82 7.08 18.31-3.7 26.67 0 0 10.54 11.27 3.62 20.25-6.92 8.98-24.44 7.31-24.44 7.31s-2.27 5.94-17.73 7.61-30.1-3.04-30.1-3.04-12.59 24.51-51.43 20.56c5.03 1.68 11.32 2.88 19.06 2.94 26.94.2 35.74-16.24 35.74-16.24 31.61 14.21 45.91-5.28 45.91-5.28s25.29 4.26 35.74-9.95c10.43-14.21-8.26-25.58-8.26-25.58z" class="st6"/></g><g><path d="M62.16 302.69s-16.49-7.92-33.64.42c-13.48 6.56-11.1 20.74-11.1 20.74s-18.97 3.5-17.32 20.4c1.65 16.9 30.72 19.94 40.62 16.75 0 0-4.54 11.11 8.25 18.42 12.78 7.31 30.93-2.74 30.93-2.74s9.18 7.2 22.68 5.4c20-2.66 20-16.82 20-16.82s20.37 2.16 27.01-7.46c10.93-15.83-5.98-21.92-5.98-21.92s10.31-15.68-4.54-26.18c-14.84-10.5-30.51 0-30.51 0s-4.12-10.05-19.82-12.61c-15.41-2.53-26.58 5.6-26.58 5.6z" class="st6"/><path fill="#c5eae8" d="M198.45 342.22s.46-9.81 12.65-11.69c12.19-1.88 17.83 8.75 17.83 8.75s5.02-6.37 14.23-5.49c9.21.88 8.57 7.49 8.57 7.49s21.29-4.78 21.07 12.66c0 0 11.52 5.04 8.75 12.87-2.77 7.83-19.7 8.19-19.7 8.19s-2.7 10.14-19.12 11.22c-16.43 1.08-19.14-7.61-19.14-7.61s-10.06 9.78-28.67 4.2c-15.04-4.5-12.06-15.71-12.06-15.71s-14.37-3.83-12.23-15.08c2.14-11.26 20.84-14.38 27.82-9.8z"/><path d="M88.96 303.45s-4.12-14.61 13.61-23.44c17.73-8.83 42.06-3.65 48.66 4.57 0 0 5.77-14.31 35.05-14.61 29.28-.3 39.17 15.83 40.82 23.14 0 0 24.74-2.13 35.46 10.35 10.72 12.48 4.54 28.32-4.54 35.62 0 0 2.89 10.66-9.48 14.92-12.37 4.26-18.56-1.52-18.56-1.52s-3.71 14.61-25.56 18.57c-21.85 3.96-42.88-11.27-42.88-11.27s-9.48 16.44-37.93 13.7c-28.45-2.74-35.05-22.53-35.05-22.53s-29.27-3.65-31.33-23.44c-2.08-19.8 31.73-24.06 31.73-24.06z" class="st7"/><path d="M110.15 277.15c11.79-1.75 30.36-1.64 42.51 12.6 0 0 .4-2.47-1.23-5.62-.15.28-.22.45-.22.45-5.68-7.11-24.59-11.93-41.06-7.43zM193.54 270.24c10.46 2.8 23.02 9.49 30.25 25.29 0 0 1.94-.84 3.14-3.05-1.85-6.87-10.41-20.12-33.39-22.24zM268 315.22c-1.24 7.47-4.92 16.28-14.93 20.5 0 0 5.01 18.35-19.24 18.84 3.07 1.08 7.96 1.75 14.71-.57 12.37-4.26 9.48-14.92 9.48-14.92 6.36-5.12 11.29-14.43 9.98-23.85zM226.68 346.53c-5.69 17.61-22.25 23.25-32.93 25.05 3.47.24 7.05.11 10.66-.54 20.33-3.68 24.96-16.58 25.5-18.36-1.19-3.82-3.23-6.15-3.23-6.15zM109.69 370.34c3.92 1.49 8.52 2.62 13.91 3.14 26.97 2.6 36.89-12.03 37.85-13.56.29-4.42-.95-7.6-.95-7.6-17.57 19.3-38.97 19.71-50.81 18.02z" class="st6"/><g><path d="M213.96 410.86s-19.55 29.06-1.66 32.48c17.03 3.24 14.78-16.7 1.66-32.48z" class="st0"/><path d="M69.56 409.26s-19.55 29.06-1.66 32.48c17.03 3.24 14.78-16.7 1.66-32.48z" class="st5"/><path d="M150.84 429.37s-9.94 14.78-.84 16.52c8.66 1.65 7.51-8.49.84-16.52z" class="st4"/><path d="M35.02 393.57s-9.94 14.78-.84 16.52c8.66 1.65 7.51-8.5.84-16.52z" class="st3"/><path d="M170.59 388.35s-12.45 18.51-1.06 20.68c10.85 2.07 9.42-10.63 1.06-20.68z" class="st1"/><path d="M120.81 398.8s-14.29 22.5-2.23 22.65c12.39.16 13.78-10.87 2.23-22.65z" class="st0"/><path d="M249.57 393.57s-14.29 22.5-2.23 22.65c12.39.15 13.78-10.88 2.23-22.65z" class="st2"/></g></g><g><path d="M620.93 410.34s-19.55 29.06-1.66 32.48c17.03 3.24 14.78-16.7 1.66-32.48z" class="st3"/><path d="M518.5 422.26s-12.45 18.51-1.06 20.68c10.84 2.07 9.41-10.63 1.06-20.68z" class="st1"/><path d="M485.01 399.88s-12.45 18.51-1.06 20.68c10.84 2.07 9.41-10.63 1.06-20.68z" class="st0"/><path d="M564.14 404.25s-14.29 22.5-2.23 22.65c12.39.16 13.77-10.88 2.23-22.65z" class="st4"/><path d="M681.63 427.34s-14.29 22.5-2.23 22.65c12.39.16 13.77-10.87 2.23-22.65z" class="st2"/><path d="M712.05 392.92s-14.29 22.5-2.23 22.65c12.39.16 13.77-10.88 2.23-22.65z" class="st5"/></g></g></switch></svg>

