<svg xmlns="http://www.w3.org/2000/svg" viewBox="0 0 478.94 471.25" xml:space="preserve"><style>.st0{fill:#f9ec6c}.st1{fill:#ffc91b}</style><path d="M272.53 68.03c-2.97-19.93 2.38-39.56 14.78-55.39l-8.19-2.94c-.02 19.22-4.63 37.79-14.03 54.6l8.19 2.94c.62-16.41 4.5-32.04 11.54-46.86 2.49-5.24-6.02-8.26-8.49-3.05-7.37 15.51-11.4 32.08-12.05 49.23-.16 4.07 5.87 7.09 8.19 2.94 10.19-18.23 15.63-38.2 15.65-59.12 0-4.45-5.35-6.56-8.19-2.94-13.87 17.72-19.59 40.02-16.28 62.24.87 5.75 9.74 4.1 8.88-1.65z" class="st0"/><path d="M325.84 83.66c6.19-25.21 20.96-46.73 42.28-61.54-2.38-1.66-4.76-3.33-7.14-4.99-8.73 22.6-22.12 42.79-39.62 59.56 2.38 1.66 4.76 3.33 7.14 4.99 5.53-16.96 15.06-31.74 28.34-43.67 4.32-3.88-1.46-10.81-5.79-6.92-14.43 12.96-25.02 29.09-31.04 47.54-1.31 4.01 3.75 8.23 7.14 4.99 18.66-17.89 33-39.31 42.32-63.42 1.73-4.48-3.69-7.38-7.14-4.99a112.335 112.335 0 00-44.98 65.41c-1.37 5.57 7.1 8.68 8.49 3.04zM220.79 68.11c-5.81-20.82-6.62-42.16-2.43-63.36l-8.94.48c3.91 21.14 5.05 42.46 3.44 63.89-.44 5.78 8.56 6.5 9 .69 1.67-22.17.48-44.36-3.57-66.22-.99-5.37-8-4.28-8.94.48-4.32 21.87-3.43 44.23 2.56 65.7 1.56 5.54 10.45 3.95 8.88-1.66z" class="st1"/><path d="M172.3 77.43c-8-8.11-13.24-17.92-15.34-29.13-2.63 1.24-5.26 2.48-7.9 3.72 8.85 8.2 14.61 18.49 16.69 30.39 1 5.72 9.88 4.09 8.87-1.65-2.33-13.27-8.75-25.36-18.64-34.53-3.09-2.86-8.81-1.14-7.9 3.72 2.36 12.62 8.27 24.12 17.29 33.28 4.06 4.1 11.01-1.66 6.93-5.8zM371.49 122.16c11.1-16.91 28.24-28.23 48.17-31.73-1.51-2.36-3.02-4.71-4.53-7.07-12.9 14.41-29.18 24.85-47.44 31.08 1.61 2.53 3.23 5.05 4.84 7.58 11.46-11.87 24.82-21.05 40.05-27.4 5.4-2.25 1.51-10.44-3.86-8.2-15.88 6.62-30.06 16.26-42.01 28.64-3.64 3.77-.12 9.27 4.84 7.57 19.84-6.77 37.03-18.47 50.99-34.06 2.77-3.09-.97-7.69-4.53-7.07-22.15 3.89-41.58 16.61-53.92 35.42-3.21 4.89 4.19 10.12 7.4 5.24z" class="st0"/><path d="M395.99 173.48c18.54-11.26 39.01-17.84 60.64-19.51-.92-2.85-1.84-5.7-2.76-8.56a248.485 248.485 0 01-60.88 20.62c-5.71 1.14-4.08 10.06 1.66 8.91a257.63 257.63 0 0063.08-21.34c4.87-2.39 2.19-8.94-2.76-8.55a141.77 141.77 0 00-62.84 20.22c-4.94 3.01-1.13 11.23 3.86 8.21z" class="st1"/><path d="M406.21 222.13c10.65-4.35 21.68-5.18 32.93-2.91l-1.59-8.62c-11.05 5.1-22.74 6.23-34.61 3.7-5.68-1.21-6.33 7.84-.69 9.04 13.32 2.84 26.83 1.16 39.17-4.54 4.48-2.07 2.55-7.79-1.58-8.62-12.74-2.56-25.48-1.14-37.48 3.75-5.42 2.21-1.54 10.4 3.85 8.2z" class="st0"/><path d="M73.1 66.6c24.2 7.66 44.8 23.58 57.92 45.38 1.87-2.06 3.74-4.11 5.61-6.17-21.97-10.2-41.16-25.02-56.73-43.57-1.66 2.38-3.33 4.76-4.99 7.14 16.57 6.64 30.6 17.24 41.62 31.27 3.6 4.58 10.51-1.23 6.92-5.79C111.46 79.6 95.97 68.11 77.96 60.9c-4.21-1.69-7.8 3.79-4.99 7.14 16.63 19.81 37.15 35.38 60.6 46.27 3.41 1.58 7.58-2.89 5.61-6.17-14.35-23.85-36.44-41.61-63.03-50.03-5.52-1.75-8.6 6.73-3.05 8.49z" class="st1"/><path d="M305.44 385.18c13.13 15.41 19.1 35.06 16.87 55.16l8.62-1.59c-10.19-16.39-16.18-34.79-17.04-54.1l-8.62 1.59c8.19 14.33 13.21 29.74 15.03 46.14.64 5.8 9.55 4.13 8.91-1.66-1.9-17.1-7.21-33.41-15.74-48.35-1.98-3.47-8.84-3.39-8.62 1.59.93 20.91 6.81 40.84 17.88 58.65 2.31 3.71 8.08 3.23 8.62-1.59 2.48-22.36-4.37-44.55-18.95-61.67-3.8-4.43-10.74 1.39-6.96 5.83z" class="st0"/><path d="M252.48 391.83c7.87 24.19 6.31 50.21-3.75 73.49 2.89.23 5.79.47 8.68.7-4.5-23.79-3.83-48.03 2.18-71.5-2.89-.23-5.79-.47-8.68-.7 4.25 17.3 4.02 34.94-.98 52.05-1.62 5.55 6.86 8.64 8.49 3.05 5.44-18.62 6-37.91 1.36-56.76-.97-3.96-7.49-5.37-8.68-.7-6.42 25.05-7.37 50.78-2.56 76.2.87 4.58 6.96 4.7 8.68.7 11.07-25.62 12.04-53.92 3.42-80.39-1.79-5.49-9.94-1.59-8.16 3.86zM347.24 355.81c17.84 11.52 32.61 26.74 43.35 45.09 2.24-1.88 4.47-3.76 6.71-5.63-17-13.29-32.03-28.61-45.08-45.8-3.54-4.66-10.47 1.18-6.95 5.82 13.51 17.79 29.2 33.63 46.8 47.39 3.45 2.7 9.01-1.71 6.71-5.63-11.53-19.7-27.13-36.24-46.32-48.64-4.89-3.16-10.13 4.24-5.22 7.4z" class="st1"/><path d="M381.42 316.1c11.13 2.78 20.68 8.2 28.51 16.63 1.27-2.48 2.55-4.95 3.82-7.43-11.42-2.31-21.34-8.12-29.14-16.73-3.92-4.32-10.88 1.49-6.95 5.82 9.58 10.56 21.46 17.13 35.4 19.95 3.85.78 6.31-4.74 3.82-7.43-8.87-9.56-19.72-16.18-32.39-19.34-5.61-1.4-8.74 7.11-3.07 8.53zM188.78 382.65c-.55 20.1-8.95 38.64-23.95 52.09 2.46 1.27 4.93 2.54 7.4 3.8 3.37-18.96 11.55-36.25 23.71-51.14-2.64-1.38-5.29-2.75-7.93-4.13-3.47 16.04-9.91 30.8-19.43 44.18-3.38 4.74 4.01 9.93 7.38 5.2 9.96-13.99 16.92-29.54 20.55-46.33 1.05-4.86-4.53-8.3-7.93-4.13-13.23 16.19-21.68 35.1-25.34 55.66-.69 3.86 4.66 6.26 7.4 3.8 16.73-15.01 26.54-35.83 27.15-58.33.14-5.76-8.85-6.49-9.01-.67z" class="st0"/><path d="M473.79 271.39c-25.27 6.42-51.32 3.41-74.51-8.48-.24 2.91-.47 5.81-.71 8.72 24.16-2.94 48.37-.52 71.49 7.06.24-2.91.47-5.81.7-8.72-17.66 3.12-35.24 1.56-52.08-4.57-5.48-2-8.55 6.53-3.07 8.53 18.31 6.67 37.62 8.34 56.81 4.95 4.36-.77 5.01-7.31.71-8.72-24.68-8.09-50.44-10.58-76.21-7.44-4.98.61-4.26 6.9-.71 8.72 24.43 12.52 52.64 15.62 79.23 8.86 5.63-1.42 4.02-10.35-1.65-8.91zM77.27 278.6c-18.24 11.57-38.47 18.54-59.97 20.63.92 2.84 1.83 5.68 2.75 8.52 19.11-9.83 39.2-17.12 60.19-21.74 5.66-1.25 4.04-10.13-1.65-8.87-21.71 4.78-42.62 12.28-62.38 22.45-4.71 2.42-2.28 9 2.75 8.52 22.17-2.15 43.36-9.41 62.17-21.34 4.83-3.08 1.04-11.27-3.86-8.17z" class="st1"/><path d="M73.5 227.68c-10.53 4.54-21.46 5.63-32.72 3.59.53 2.86 1.05 5.72 1.58 8.58 10.91-5.3 22.49-6.7 34.38-4.4 5.69 1.1 6.34-7.91.69-9-13.3-2.57-26.74-.67-38.91 5.24-4.33 2.1-2.67 7.81 1.58 8.58 12.72 2.3 25.41.68 37.25-4.43 5.34-2.3 1.48-10.45-3.85-8.16zM96.35 133.73c-11.12-2.54-20.78-7.72-28.73-15.96-1.27 2.47-2.54 4.93-3.8 7.4 11.41 2.07 21.42 7.6 29.37 16.02 3.98 4.21 10.91-1.56 6.92-5.79-9.73-10.32-21.66-16.7-35.6-19.23-3.77-.68-6.39 4.72-3.8 7.39 9.03 9.34 19.9 15.75 32.6 18.66 5.58 1.28 8.7-7.2 3.04-8.49z" class="st0"/><path d="M5.1 180.03c25.03-6.89 51.02-4.45 74.34 6.94.23-2.89.47-5.79.7-8.68-23.99 3.4-48.14 1.51-71.31-5.58-.23 2.89-.47 5.79-.7 8.68 17.51-3.45 35.05-2.29 51.94 3.48 5.49 1.88 8.56-6.61 3.05-8.49-18.35-6.28-37.61-7.61-56.64-3.86-4.23.83-5.1 7.33-.7 8.68 24.72 7.57 50.42 9.59 76.01 5.96 4.85-.69 4.38-6.89.7-8.68-24.56-11.98-52.7-14.57-79.05-7.32-5.54 1.52-3.96 10.41 1.66 8.87z" class="st1"/><path d="M99.82 324.33c-6.71 9.26-15.57 15.85-26.27 19.83 1.87 2.23 3.74 4.46 5.61 6.68 6.65-10.11 15.9-17.3 27.28-21.38 5.47-1.96 1.58-10.11-3.85-8.16-12.73 4.56-23.38 13.05-30.81 24.34-2.59 3.94 1.46 8.22 5.61 6.68 12.09-4.49 22.24-12.36 29.8-22.79 3.42-4.71-3.96-9.9-7.37-5.2z" class="st0"/><path d="M135.77 357.76c-9.58 18.84-23.43 34.8-40.44 47.29 2.19 2.02 4.39 4.04 6.58 6.06 11.41-18.2 24.94-34.74 40.62-49.44 4.23-3.96-1.55-10.9-5.79-6.92-16.23 15.21-30.39 32.3-42.2 51.16-2.75 4.38 2.43 9.11 6.58 6.06 18.38-13.5 32.82-30.86 43.14-51.16 2.62-5.16-5.89-8.16-8.49-3.05z" class="st1"/></svg>

