<svg xmlns="http://www.w3.org/2000/svg" viewBox="0 0 290.03 285.63" xml:space="preserve"><style>.st1{fill:#010001}.st2{fill:#ff8a6f}.st3{fill:#f9ec6c}.st4{fill:#fff}</style><path fill="#fccc00" d="M202.46 10.2C128.74-20.07 4.1 14.37.06 149.09-3.85 279.45 171.81 324.27 243.5 249.36c61.65-64.42 75.04-191.5-41.04-239.16z"/><path d="M70.11 127.46c-6.07 6.62-3.7 17.92 4.31 21.94 8.98 4.52 18.52-3.42 19.28-12.55.84-10.09-10.11-17.48-19.28-13.31-8.67 3.95-8.85 17.24-.3 21.51 10.16 5.09 20.31-9.88 11.91-17.42-1.93-1.73-5.85-1.91-7.09.91-1.86 4.26-1.45 8.67 1.99 12.02 1.9 1.86 4.43 1.52 6.38 0 3.07-2.39 4.25-6.8 2.82-10.42-1.67-4.22-7.29-5.46-11.15-3.64-7.81 3.68-2.57 16.25 5.34 15.21 2.44-.32 4.48-1.84 4.51-4.51.02-2.19-2.1-4.83-4.51-4.51-.83.01-.98.07-.42.18.37.18.42.11.14-.21-1.01 1.1-1.87 1.58-.54 2.58l-2.07-2.7c.42 1.08.42.92-.5 1.64h6.38c-.21-.21-.76-.66-.58-1.09-2.36.3-4.72.61-7.09.91.48.43.68.04.44 1.07-.11.47-.49 1.48-1.01 1.73-1.14.54-1.79-.39-2.13-1.54-1.39-4.63 5.15-4.84 7.16-1.86 1.96 2.9-.81 8.73-4.57 8.27-3.17-.39-5.23-5.47-3.05-7.85 3.93-4.26-2.44-10.65-6.37-6.36zM214.12 124.75c-6.71-8.39-19.15-.95-19.11 8.39.05 10.5 11.64 15.66 19.71 9.22 8.41-6.71 5.72-20.4-4.97-22.94-9.54-2.26-16.96 9.01-11.72 17.09 6.63 10.23 23.15-1.19 16.44-10.93-2.03-2.95-5.74-2.82-7.79 0-3.14 4.31-3.91 9.86-2.27 14.91 1.79 5.5 10.51 3.14 8.7-2.4-.97-2.98-.47-5.44 1.36-7.95h-7.79c.57.83.42.06.09.53-.24.35-.68.91-1.16.94-.14.01.1.22-.14-.2-.18-.32-.15-.8-.12-1.16.35-4.14 5.55-1.13 5.59 1.77.04 2.98-4.76 6.32-6.5 2.86-1.14-2.27 1.07-6.54 3.31-3.74 1.53 1.92 4.78 1.57 6.38 0 1.89-1.87 1.5-4.5-.01-6.39zM119.6 180.62c1.08 13.93 12.85 26.07 27.32 25.52 14.38-.55 25.24-13.92 25.01-27.78-.05-2.9-4.56-2.91-4.51 0 .19 11.46-8.55 22.64-20.5 23.27-11.87.63-21.92-9.58-22.8-21.01-.23-2.88-4.75-2.9-4.52 0z" class="st1"/><path d="M49.84 177.49c-4.88 7.92-1.42 18.86 7.25 22.42 9.14 3.76 20.49-1.56 23.64-10.89 3.45-10.21-4.53-19.48-14.65-20.55-10.24-1.08-20.34 6.86-19.05 17.7 1.14 9.58 11.54 15.31 20.36 12.03 8.87-3.3 14.74-16.15 4.89-22.07-6.29-3.78-22.4-1.57-19.18 8.94 2.5 8.17 16.58 7.65 19.28-.05 4-11.36-16.33-12.74-16.17-.66.07 5.13 4.75 8.63 9.67 7.88 5.42-.83 8.09-5.9 7.94-10.99-.1-3.36-4.31-5.33-6.78-2.81-2.89 2.96-4.3 6.39-4.29 10.53.01 5.11 7.95 5.12 7.94 0 0-2.12.48-3.39 1.97-4.91-2.26-.94-4.52-1.87-6.78-2.81.54 1.94-.25 2.51-2.35 1.7-1.69.46-2.19.37-1.5-.28.46-1.41 4.37-.61 5.28-.09 5.49 3.17-1.27 8.65-5.12 8.7-10.35.14-8.58-14.27 1.03-14.95 4.06-.29 9.33 1.79 10.33 6.24.9 4.02-2.28 8.11-5.78 9.66-6.97 3.08-15.71-3.26-11.08-10.76 2.69-4.34-4.17-8.33-6.85-3.98zM236.74 166.05c-12.76-3.19-24.15 11.39-15.19 22.33 9 11 25.78 2.52 28.64-9.51 1.4-5.9-1-12.11-6.61-14.75-4.77-2.25-13.23-2.56-17.95.04-11.7 6.45-7.4 25.73 4.38 29.2 11.71 3.45 23.37-9.03 16.36-20.12-7.26-11.48-24.29-4.07-24.59 8.23-.35 14.42 21.73 8.65 21.26-3.4-.21-5.46-5.71-9.47-10.99-8.44-5.48 1.06-8.29 7.08-6.47 12.18 2.03 5.66 9.58 7.5 13.64 2.94 3.47-3.9 5.53-13-1.75-14-5.8-.79-11.3 7.13-8.68 12.39 1.23 2.48 4.35 3.41 6.83 2.38 3.23-1.35 4.04-4.5 4.27-7.7.25-3.51-4.95-4.76-6.56-1.78-2.05 3.78-2.05 7.53.02 11.31 2.17 3.98 8.26.43 6.08-3.55-.93-1.4-.94-2.8-.02-4.2-2.19-.59-4.37-1.19-6.56-1.78l.54.96c.7.54 1.4 1.08 2.11 1.62-.57-.74 1.44-2.26-.22-2.75-.03-.01-1.18 2.59-1.72 2.63-1.26.1-2.03-2.16-1.18-3.08 2.15-2.33 3.92.92 3.15 2.72-.88 2.04-5.53 4.58-6.74 2.25-1.27-2.46 2.55-6.5 4.5-7.21 5.92-2.14 10.15 4.52 6.75 9.39-3.55 5.09-11.27 2.28-13.36-2.57-1.1-2.56-1.09-5.44-.09-8.03 1.35-3.51 3.97-4 7.37-4.08 2.52-.06 6.03-.22 8.01 1.69 2.47 2.38 1.67 6.23.06 8.81-2.92 4.68-9.81 9.18-14.65 4.26-5.38-5.47.88-13.22 7.47-11.57 4.41 1.08 6.29-5.71 1.89-6.81z" class="st2"/><path d="M85.16 77.92c-4.39.93-7.95 3.68-9.93 7.71-.71 1.44.13 3.48 1.95 3.39 5.3-.26 10.46-1.79 14.84-4.85 2.77-1.93 6.85-5.9 4-9.48-2.57-3.23-8.2-1.34-11.25.07-4.17 1.93-7.5 5.26-9.53 9.36-.72 1.45.13 3.48 1.95 3.39 6.27-.28 11.94-2.8 16.27-7.35 1.45-1.53.29-3.63-1.6-3.85-3.8-.44-7.23.87-9.93 3.54-2.07 2.04 1.12 5.23 3.19 3.19 1.91-1.89 4.11-2.52 6.74-2.22-.53-1.28-1.06-2.57-1.59-3.85-3.51 3.69-7.98 5.8-13.08 6.03l1.95 3.39c1.06-2.14 2.43-4.05 4.31-5.56 1.57-1.27 5.17-3.7 7.35-3.24 2.97.63-3.22 4.07-4.45 4.66-2.89 1.39-5.97 2.08-9.17 2.24l1.95 3.39c1.5-3.05 3.92-4.93 7.24-5.63 2.83-.58 1.63-4.93-1.21-4.33zM196.02 76.54c-2.88-.87-5.72-1.18-8.73-.89-.94.09-1.96.63-2.18 1.66-1.59 7.71 9.04 10.78 14.74 11.86 2.64.5 6.28 1.17 7.39-2.08 1.02-2.98-1.42-5.69-3.53-7.42-2.85-2.35-6.22-4.1-9.8-5.05-2.69-.72-7.67-1.96-9.28 1.27-3.29 6.63 11.34 9.89 15.01 10.88 2.81.76 4-3.59 1.2-4.35-3.67-.99-7.02-2.63-10.6-3.79-1.17-.38-1.69-.37-.49-.22 1.01.13 1.97.29 2.96.56 1.77.47 3.47 1.17 5.07 2.07 1.41.8 3.48 1.92 4.39 3.29.67 1.01.6.43.04.69-.58.27-2.31-.44-2.88-.58-2.19-.53-10.58-2.47-9.86-5.93-.73.55-1.45 1.1-2.18 1.66 2.61-.25 5.01-.03 7.53.73 2.78.83 3.97-3.52 1.2-4.36z" class="st3"/><path d="M76.84 135.34c-1.58.87-1.8 3.27-.44 4.44 1.49 1.29 3.67.17 4.54-1.28.91-1.52.7-4.09-1.45-4.29-1.85-.17-3.52 1.63-3.04 3.45.34 1.28 2.33.74 1.99-.55-.07-.26.06-.45.26-.62.24-.2.42-.13.67-.22.08-.03-.06-.19-.04-.05.02.14.07.23.08.38.01.33-.12.66-.3.93-.21.32-.88.97-1.33.72-.41-.23-.24-.94.1-1.12 1.17-.65.13-2.43-1.04-1.79zM204.13 132.26c.05.99.11 1.98.16 2.97.03.5.45 1.11 1.03 1.03 1.23-.16 2.33-.81 2.86-1.98.29-.64.39-1.24-.03-1.84-.29-.42-.71-.71-1.2-.86-1.89-.59-4.03.96-3.65 2.98.24 1.31 2.24.75 1.99-.55 0-.01.05-.13.05-.13.15-.19.27-.23.48-.3.43-.14.6-.07.72.2-.03-.27-.07-.53-.1-.8-.12.55-.51 1.12-1.12 1.2l1.03 1.03c-.05-.99-.11-1.98-.16-2.97-.06-1.3-2.13-1.31-2.06.02z" class="st4"/></svg>

