<svg xmlns="http://www.w3.org/2000/svg" id="Layer_1" x="0" y="0" version="1.1" viewBox="0 0 512 512" xml:space="preserve"><path fill="#ef403c" d="M109.206 46.422C149.414 15.652 201.178.347 255.652.347 396.845.347 511.305 114.806 511.305 256S396.846 511.653 255.653 511.653 0 397.193 0 256c0-58.423 19.598-112.27 52.577-155.323 0 0 12.789-20.706 56.629-54.255z"/><circle cx="255.653" cy="255.997" r="225.235" fill="#f2f2f2"/><path fill="#285493" d="M255.653 63.627c106.245 0 192.373 86.128 192.373 192.373s-86.128 192.373-192.373 192.373S63.28 362.244 63.28 256c0-51.016 19.858-97.394 52.267-131.825 0-.001 50.711-60.548 140.106-60.548z"/><circle cx="255.653" cy="255.997" r="159.266" fill="#ef403c"/><path fill="#f2f2f2" d="M255.63 107.451l53.126 77.535 90.158 26.568-57.437 70.328 2.593 93.955-88.44-27.342-88.555 31.5 2.593-93.954-57.324-74.487 90.158-26.568z"/><path d="M406.187 48.86c30.511 42.105 48.512 93.866 48.512 149.84 0 141.193-114.459 255.652-255.653 255.652-55.973 0-107.735-18.002-149.84-48.512 46.453 64.105 121.92 105.813 207.14 105.813C397.541 511.652 512 397.193 512 256c0-85.22-41.708-160.686-105.813-207.14z" opacity=".2"/></svg>

