<svg xmlns="http://www.w3.org/2000/svg" viewBox="0 0 512 512"><path fill="#f94141" d="M271.469 401.367l-2.887 1.266L20.477 511.32c-16.493-16.492-17.872-31.082-13.47-46.574 1.634-5.75 4.067-11.64 6.821-17.789 6.012-13.418 13.543-28.113 17.621-45.59C42.43 354.301 0 344.891 0 344.891c16.41-27.477 90.742-41.711 160.574-30.09 7.863 1.304 15.676 2.937 23.344 4.926l78.137 7.906 8.554 67.008zm0 0"/><path fill="#e22b2b" d="M270.61 394.64l-2.028 7.993L20.477 511.32c-16.493-16.492-17.872-31.082-13.47-46.574 1.266-6.305 3.618-12.226 6.821-17.789 21.367-37.047 80.762-57.766 111.676-65.043 28.242-6.64 43.937-39.66 35.07-67.113 7.863 1.304 15.676 2.937 23.344 4.926l78.137 7.906zm0 0"/><path fill="#357fbc" d="M437.055 451.8v59.52H156.246V451.8c0-77.542 62.856-140.41 140.399-140.41 10.972 0 21.648 1.266 31.898 3.641 25.969 6.031 49.168 19.274 67.387 37.485 25.406 25.414 41.125 60.511 41.125 99.285zm0 0"/><path fill="#589ce0" d="M437.05 451.8v59.52H220.044V451.8c0-27.581 7.95-53.308 21.703-75.01 16.86 7.163 35.41 11.136 54.899 11.136 9.117 0 18.039-.867 26.667-2.531 26.68-5.125 50.672-17.801 69.668-35.735 1.004.93 1.977 1.883 2.95 2.856 25.402 25.414 41.12 60.511 41.12 99.285zm0 0"/><path fill="#ffd0a6" d="M512 206.121c0 28.02-22.707 50.727-50.727 50.727a50.586 50.586 0 01-24.222-6.141H157.008a49.221 49.221 0 01-9.496 3.965 50.779 50.779 0 01-14.727 2.176c-28.02 0-50.726-22.707-50.726-50.727 0-28.02 22.707-50.723 50.726-50.723 4.645 0 9.13.625 13.399 1.797 3.523.953 6.89 2.29 10.058 3.946h281.574a49.876 49.876 0 019.297-3.735 50.59 50.59 0 0114.16-2.008c28.02 0 50.727 22.704 50.727 50.723zm0 0"/><g fill="#e8b182"><path d="M461.273 237.43a7.844 7.844 0 110-15.688c8.614 0 15.622-7.008 15.622-15.62 0-8.61-7.008-15.618-15.622-15.618-8.613 0-15.617 7.008-15.617 15.617a7.848 7.848 0 01-7.847 7.848 7.847 7.847 0 01-7.844-7.848c0-17.262 14.047-31.305 31.308-31.305 17.262 0 31.309 14.043 31.309 31.305 0 17.266-14.047 31.309-31.309 31.309zm0 0"/><path d="M437.055 140.41v95.613c0 68.422-48.95 125.41-113.739 137.868a140.794 140.794 0 01-26.671 2.53c-77.543 0-140.399-62.855-140.399-140.398V140.41C156.246 62.867 219.102 0 296.645 0c9.12 0 18.043.867 26.671 2.531 28.082 5.399 53.18 19.16 72.614 38.594 25.406 25.414 41.125 60.512 41.125 99.285zm0 0"/><path d="M447.113 157.406v78.617c0 6.247-.437 12.395-1.285 18.43a50.49 50.49 0 01-8.777-3.746H157.008a49.221 49.221 0 01-9.496 3.965 130.623 130.623 0 01-1.328-18.649v-78.828c3.523.953 6.89 2.29 10.058 3.946h281.574a49.876 49.876 0 019.297-3.735zm0 0"/></g><path fill="#ffd0a6" d="M437.055 140.41v95.613c0 68.422-48.95 125.41-113.739 137.868-64.793-12.457-113.742-69.446-113.742-137.868V140.41c0-68.422 48.95-125.422 113.742-137.879 28.082 5.399 53.18 19.16 72.614 38.594 25.406 25.414 41.125 60.512 41.125 99.285zm0 0"/><path fill="#e8b182" d="M297.027 297.957c-16.004 0-32.011-6.09-44.195-18.277a7.841 7.841 0 010-11.09 7.84 7.84 0 0111.094 0c18.25 18.25 47.953 18.25 66.207 0a7.834 7.834 0 0111.09 0 7.834 7.834 0 010 11.09c-12.184 12.187-28.188 18.277-44.196 18.277zm0 0"/><path fill="#5b5b68" d="M437.055 140.41v20.73c-166.22-.21-221.473-68.19-221.473-68.19 0 28.237-28.238 58.034-59.332 68.19v-20.73C156.25 62.867 219.105 0 296.648 0c9.118 0 18.04.867 26.668 2.531 28.082 5.399 53.184 19.16 72.618 38.594 25.402 25.414 41.12 60.512 41.12 99.285zm0 0"/><path fill="#40404c" d="M323.313 2.531c-49.649 9.547-89.989 45.246-106.149 92.196-1.074-1.141-1.59-1.778-1.59-1.778 0 28.239-28.238 58.035-59.332 68.192v-20.73C156.242 62.866 219.102 0 296.641 0c9.12 0 18.043.867 26.671 2.531zm0 0"/><path fill="#e8b182" d="M132.785 237.43c-17.265 0-31.308-14.043-31.308-31.309 0-17.262 14.043-31.305 31.308-31.305 17.262 0 31.305 14.043 31.305 31.305a7.845 7.845 0 11-15.688 0c0-8.61-7.004-15.617-15.617-15.617-8.613 0-15.62 7.008-15.62 15.617 0 8.613 7.007 15.621 15.62 15.621a7.844 7.844 0 110 15.688zm0 0"/><path fill="#5b5b68" d="M235.484 224.934a7.844 7.844 0 01-7.843-7.844v-34.512a7.844 7.844 0 1115.687 0v34.512a7.844 7.844 0 01-7.844 7.844zm0 0M357.816 224.934a7.844 7.844 0 01-7.843-7.844v-34.512a7.844 7.844 0 017.843-7.844 7.841 7.841 0 017.844 7.844v34.512a7.841 7.841 0 01-7.844 7.844zm0 0"/></svg>

